<svg width="521" height="186" viewBox="0 0 521 186" fill="none" xmlns="http://www.w3.org/2000/svg">
<path fill-rule="evenodd" clip-rule="evenodd" d="M0 0H520.443V83.4781C513.045 83.479 507.048 89.477 507.048 96.8756C507.048 104.274 513.045 110.272 520.443 110.273V185.505H0V110.273H0.00142384C7.40069 110.273 13.399 104.275 13.399 96.8756C13.399 89.4764 7.40069 83.4781 0.00142384 83.4781H0V0Z" fill="url(#paint0_linear_3451:1161)"/>
<line x1="78.8415" y1="185.506" x2="78.8415" y2="1.03181" stroke="#D5D5D5" stroke-width="5.15291"/>
<mask id="path-4-inside-1_3451:1161" fill="white">
<path fill-rule="evenodd" clip-rule="evenodd" d="M0 0H520.443V83.4781C513.045 83.479 507.048 89.477 507.048 96.8756C507.048 104.274 513.045 110.272 520.443 110.273V185.505H0V110.273H0.00142384C7.40069 110.273 13.399 104.275 13.399 96.8756C13.399 89.4764 7.40069 83.4781 0.00142384 83.4781H0V0Z"/>
</mask>
<path d="M520.443 0H525.596V-5.15291H520.443V0ZM0 0V-5.15291H-5.15291V0H0ZM520.443 83.4781L520.444 88.631L525.596 88.6303V83.4781H520.443ZM520.443 110.273H525.596V105.121L520.444 105.12L520.443 110.273ZM520.443 185.505V190.658H525.596V185.505H520.443ZM0 185.505H-5.15291V190.658H0V185.505ZM0 110.273V105.12H-5.15291V110.273H0ZM0 83.4781H-5.15291V88.631H0V83.4781ZM520.443 -5.15291H0V5.15291H520.443V-5.15291ZM525.596 83.4781V0H515.291V83.4781H525.596ZM512.201 96.8756C512.201 92.3226 515.891 88.6316 520.444 88.631L520.443 78.3252C510.199 78.3265 501.895 86.6313 501.895 96.8756H512.201ZM520.444 105.12C515.891 105.12 512.201 101.429 512.201 96.8756H501.895C501.895 107.12 510.199 115.425 520.443 115.426L520.444 105.12ZM525.596 185.505V110.273H515.291V185.505H525.596ZM0 190.658H520.443V180.352H0V190.658ZM-5.15291 110.273V185.505H5.15291V110.273H-5.15291ZM0.00142384 105.12H0V115.426H0.00142384V105.12ZM8.24607 96.8756C8.24607 101.429 4.55482 105.12 0.00142384 105.12V115.426C10.2466 115.426 18.5519 107.121 18.5519 96.8756H8.24607ZM0.00142384 88.631C4.55482 88.631 8.24607 92.3222 8.24607 96.8756H18.5519C18.5519 86.6305 10.2466 78.3252 0.00142384 78.3252V88.631ZM0 88.631H0.00142384V78.3252H0V88.631ZM-5.15291 0V83.4781H5.15291V0H-5.15291Z" fill="#D5D5D5" mask="url(#path-4-inside-1_3451:1161)"/>
<defs>
<linearGradient id="paint0_linear_3451:1161" x1="0" y1="0" x2="520" y2="186" gradientUnits="userSpaceOnUse">
<stop stop-color="#044CD7"/>
<stop offset="1" stop-color="#B11CC9"/>
</linearGradient>
</defs>
</svg>
