<svg width="521" height="186" viewBox="0 0 521 186" fill="none" xmlns="http://www.w3.org/2000/svg">
<path fill-rule="evenodd" clip-rule="evenodd" d="M0 0H520.443V83.4781C513.045 83.479 507.048 89.477 507.048 96.8756C507.048 104.274 513.045 110.272 520.443 110.273V185.505H0V110.273H0.00142384C7.40069 110.273 13.399 104.275 13.399 96.8756C13.399 89.4764 7.40069 83.4781 0.00142384 83.4781H0V0Z" fill="url(#paint0_linear_3451:1161)"/>
<path d="M63.0781 36.8145L67.32 36.8145L67.32 35.3717L68.2434 35.3717L68.2434 39.2312L67.32 39.2312L67.32 37.7884L63.0781 37.7884L63.0781 36.8145ZM68.2434 44.0359L68.2434 45.0097L63.0781 45.0097L63.0781 44.0359L68.2434 44.0359ZM63.9077 54.6083C63.5999 54.3534 63.3643 54.0528 63.2008 53.7065C63.0421 53.3603 62.9627 52.9731 62.9627 52.5451C62.9627 52.1603 63.0324 51.802 63.1719 51.4702C63.3114 51.1431 63.5013 50.8594 63.7418 50.6189C63.9823 50.3784 64.266 50.1885 64.5931 50.049C64.9249 49.9095 65.2808 49.8398 65.6608 49.8398C66.0407 49.8398 66.3942 49.9095 66.7212 50.049C67.0531 50.1885 67.3392 50.3784 67.5797 50.6189C67.8202 50.8594 68.0101 51.1431 68.1496 51.4702C68.2891 51.802 68.3588 52.1603 68.3588 52.5451C68.3588 52.9587 68.2867 53.3218 68.1424 53.6344C67.9981 53.9518 67.7889 54.2332 67.5148 54.4784L66.8511 53.7931C67.029 53.6392 67.1709 53.4613 67.2767 53.2593C67.3825 53.0621 67.4354 52.8264 67.4354 52.5523C67.4354 52.3118 67.3921 52.0858 67.3056 51.8742C67.2238 51.6625 67.106 51.4774 66.9521 51.3187C66.7982 51.1648 66.6106 51.0421 66.3894 50.9508C66.173 50.8594 65.9301 50.8137 65.6608 50.8137C65.3914 50.8137 65.1462 50.8594 64.9249 50.9508C64.7085 51.0421 64.5233 51.1648 64.3694 51.3187C64.2155 51.4774 64.0953 51.6625 64.0087 51.8742C63.927 52.0858 63.8861 52.3118 63.8861 52.5523C63.8861 52.8408 63.9438 53.0957 64.0592 53.317C64.1795 53.543 64.3478 53.7426 64.5642 53.9157L63.9077 54.6083ZM68.2434 59.5021L68.2434 60.476L66.0287 60.476L66.0287 60.5337L68.2434 62.4238L68.2434 63.5997L68.1857 63.5997L66.0503 61.7313L63.1358 63.7945L63.0781 63.7945L63.0781 62.6042L65.2784 61.0676L64.5931 60.476L63.0781 60.476L63.0781 59.5021L68.2434 59.5021ZM62.9627 70.0199C62.9627 69.7986 62.994 69.587 63.0565 69.385C63.119 69.183 63.2128 68.9979 63.3378 68.8295C63.4629 68.6612 63.6144 68.5145 63.7923 68.3895C63.9751 68.2644 64.1867 68.1658 64.4272 68.0937L64.7879 69.0099C64.5282 69.0772 64.3117 69.195 64.1386 69.3634C63.9703 69.5317 63.8861 69.7529 63.8861 70.0271C63.8861 70.1281 63.8981 70.2243 63.9222 70.3156C63.951 70.4118 63.9895 70.496 64.0376 70.5681C64.0905 70.6451 64.1554 70.7052 64.2324 70.7485C64.3093 70.7918 64.3983 70.8134 64.4993 70.8134C64.5955 70.8134 64.6821 70.7966 64.759 70.7629C64.836 70.7292 64.9081 70.6715 64.9754 70.5898C65.0428 70.5128 65.1077 70.4094 65.1702 70.2796C65.2327 70.1545 65.2977 69.9982 65.365 69.8106L65.4804 69.4932C65.5285 69.3538 65.5934 69.2119 65.6752 69.0676C65.7569 68.9281 65.8555 68.8007 65.971 68.6853C66.0864 68.5698 66.2211 68.4736 66.375 68.3967C66.5337 68.3245 66.7116 68.2885 66.9088 68.2885C67.1108 68.2885 67.2984 68.327 67.4715 68.4039C67.6494 68.4857 67.8033 68.5987 67.9332 68.743C68.0679 68.8921 68.1713 69.0676 68.2434 69.2696C68.3203 69.4764 68.3588 69.7048 68.3588 69.9549C68.3588 70.2146 68.3228 70.4383 68.2506 70.6258C68.1833 70.8182 68.0943 70.9793 67.9837 71.1092C67.8779 71.2438 67.7601 71.3521 67.6302 71.4338C67.5003 71.5156 67.3777 71.5757 67.2623 71.6142L66.9016 70.7557C67.0459 70.7076 67.1757 70.6186 67.2911 70.4888C67.4066 70.3637 67.4643 70.1906 67.4643 69.9694C67.4643 69.7577 67.4138 69.5822 67.3128 69.4427C67.2166 69.3033 67.0891 69.2335 66.9304 69.2335C66.7765 69.2335 66.6443 69.3009 66.5337 69.4355C66.4279 69.5702 66.3245 69.7842 66.2235 70.0776L66.1152 70.4022C66.0431 70.609 65.9589 70.7966 65.8628 70.9649C65.7714 71.138 65.6608 71.2847 65.5309 71.405C65.4011 71.53 65.252 71.6238 65.0836 71.6863C64.9201 71.7536 64.7301 71.7873 64.5137 71.7873C64.2444 71.7873 64.0111 71.732 63.814 71.6214C63.6216 71.5156 63.4629 71.3785 63.3378 71.2102C63.2128 71.0418 63.119 70.8519 63.0565 70.6403C62.994 70.4286 62.9627 70.2218 62.9627 70.0199ZM68.2434 83.688L68.2434 84.7989L63.0781 86.7395L63.0781 85.6646L64.3117 85.239L64.3117 83.2479L63.0781 82.8223L63.0781 81.7474L68.2434 83.688ZM65.2063 84.9216L66.4976 84.4599L67.1252 84.2723L67.1252 84.2146L66.4976 84.027L65.2063 83.5653L65.2063 84.9216ZM68.2434 90.5161L68.2434 91.5694L65.1341 92.6371L64.4704 92.8247L64.4704 92.8824L65.1341 93.0844L68.2434 94.1953L68.2434 95.2486L63.0781 93.3657L63.0781 92.3413L68.2434 90.5161ZM68.2434 100.965L68.2434 102.076L63.0781 104.016L63.0781 102.941L64.3117 102.516L64.3117 100.525L63.0781 100.099L63.0781 99.0242L68.2434 100.965ZM65.2063 102.198L66.4976 101.737L67.1252 101.549L67.1252 101.491L66.4976 101.304L65.2063 100.842L65.2063 102.198ZM68.2434 108.733L68.2434 109.707L63.0781 109.707L63.0781 108.733L68.2434 108.733ZM68.2434 114.86L68.2434 115.834L64.0015 115.834L64.0015 118.02L63.0781 118.02L63.0781 114.86L68.2434 114.86ZM68.2434 124.333L68.2434 125.444L63.0781 127.385L63.0781 126.31L64.3117 125.884L64.3117 123.893L63.0781 123.468L63.0781 122.393L68.2434 124.333ZM65.2063 125.567L66.4976 125.105L67.1252 124.918L67.1252 124.86L66.4976 124.672L65.2063 124.211L65.2063 125.567ZM68.2434 132.102L68.2434 134.122C68.2434 134.343 68.2073 134.55 68.1352 134.742C68.0679 134.934 67.9717 135.1 67.8466 135.24C67.7264 135.384 67.5845 135.497 67.421 135.579C67.2575 135.661 67.0819 135.701 66.8944 135.701C66.6202 135.701 66.3894 135.634 66.2018 135.499C66.0191 135.37 65.8796 135.206 65.7834 135.009L65.7257 135.009C65.6295 135.273 65.478 135.485 65.2712 135.644C65.0692 135.807 64.8167 135.889 64.5137 135.889C64.2925 135.889 64.0929 135.843 63.915 135.752C63.7418 135.665 63.5927 135.545 63.4677 135.391C63.3426 135.237 63.2464 135.057 63.1791 134.85C63.1118 134.648 63.0781 134.429 63.0781 134.194L63.0781 132.102L68.2434 132.102ZM66.1369 134.049C66.1369 134.275 66.197 134.449 66.3172 134.569C66.4423 134.694 66.589 134.756 66.7573 134.756C66.9256 134.756 67.0699 134.696 67.1901 134.576C67.3104 134.456 67.3705 134.29 67.3705 134.078L67.3705 133.075L66.1369 133.075L66.1369 134.049ZM63.9727 134.158C63.9727 134.403 64.0328 134.59 64.153 134.72C64.2781 134.85 64.4368 134.915 64.6291 134.915C64.8215 134.915 64.9802 134.848 65.1053 134.713C65.2351 134.583 65.3001 134.388 65.3001 134.129L65.3001 133.075L63.9727 133.075L63.9727 134.158ZM68.2434 140.751L68.2434 141.724L64.0015 141.724L64.0015 143.91L63.0781 143.91L63.0781 140.751L68.2434 140.751ZM67.32 149.69L66.1225 149.69L66.1225 151.761L65.1991 151.761L65.1991 149.69L64.0015 149.69L64.0015 151.991L63.0781 151.991L63.0781 148.716L68.2434 148.716L68.2434 151.991L67.32 151.991L67.32 149.69Z" fill="white"/>
<path d="M47.6329 66.4579C45.8329 66.4579 44.3989 65.9239 43.3309 64.8559C42.0589 63.6559 41.4229 62.0779 41.4229 60.1219C41.4229 58.2499 42.0709 56.6659 43.3669 55.3699C44.6629 54.0739 46.2589 53.4259 48.1549 53.4259C50.0509 53.4259 51.6469 54.0739 52.9429 55.3699C54.2389 56.6659 54.8869 58.2499 54.8869 60.1219C54.8869 61.0699 54.7189 61.9639 54.3829 62.8039C54.0469 63.6439 53.5729 64.3339 52.9609 64.8739L51.7729 63.6859C52.2529 63.2899 52.6249 62.7739 52.8889 62.1379C53.1649 61.5139 53.3029 60.8419 53.3029 60.1219C53.3029 58.7179 52.8169 57.5299 51.8449 56.5579C50.8609 55.5979 49.6309 55.1179 48.1549 55.1179C46.6789 55.1179 45.4489 55.5979 44.4649 56.5579C43.4929 57.5299 43.0069 58.7179 43.0069 60.1219C43.0069 61.4059 43.3669 62.4739 44.0869 63.3259C44.8069 64.1779 45.7969 64.6699 47.0569 64.8019L47.0569 60.1219L48.6049 60.1219L48.6049 66.3679C48.2689 66.4279 47.9449 66.4579 47.6329 66.4579ZM44.4109 70.3843C43.9789 70.3843 43.6189 70.5643 43.3309 70.9243C43.0429 71.2963 42.8989 71.7283 42.8989 72.2203C42.8989 72.9163 43.1569 73.5343 43.6729 74.0743C44.1889 74.6263 44.7949 74.9023 45.4909 74.9023C45.8989 74.3863 46.1029 73.6663 46.1029 72.7423C46.1029 72.0703 45.9409 71.5063 45.6169 71.0503C45.2929 70.6063 44.8909 70.3843 44.4109 70.3843ZM50.8189 72.5263C50.8189 73.7503 50.4889 74.7163 49.8289 75.4243C49.1809 76.1323 48.2869 76.4863 47.1469 76.4863L41.7109 76.4863L41.7109 74.9023L42.9349 74.9023L42.9349 74.8303C41.9269 74.1463 41.4229 73.2343 41.4229 72.0943C41.4229 71.1223 41.7109 70.3063 42.2869 69.6463C42.8629 68.9983 43.5829 68.6743 44.4469 68.6743C45.3589 68.6743 46.0849 69.0163 46.6249 69.7003C47.1649 70.3963 47.4349 71.3203 47.4349 72.4723C47.4349 73.4563 47.2549 74.2663 46.8949 74.9023L47.2729 74.9023C47.8489 74.9023 48.3349 74.6743 48.7309 74.2183C49.1389 73.7623 49.3429 73.2283 49.3429 72.6163C49.3429 71.6923 48.9529 70.9603 48.1729 70.4203L49.0909 68.9623C50.2429 69.7663 50.8189 70.9543 50.8189 72.5263ZM41.7109 81.2701L41.7109 79.6141L50.5309 79.6141L50.5309 81.1981L49.3069 81.1981L49.3069 81.2701C49.7389 81.5221 50.0989 81.9061 50.3869 82.4221C50.6749 82.9501 50.8189 83.4721 50.8189 83.9881C50.8189 84.6361 50.6689 85.2061 50.3689 85.6981C50.0689 86.1901 49.6549 86.5501 49.1269 86.7781C50.2549 87.5101 50.8189 88.5241 50.8189 89.8201C50.8189 90.8401 50.5069 91.6261 49.8829 92.1781C49.2589 92.7301 48.3709 93.0061 47.2189 93.0061L41.7109 93.0061L41.7109 91.3501L46.9669 91.3501C47.7949 91.3501 48.3889 91.2001 48.7489 90.9001C49.1209 90.6001 49.3069 90.0961 49.3069 89.3881C49.3069 88.7521 49.0369 88.2181 48.4969 87.7861C47.9569 87.3541 47.3209 87.1381 46.5889 87.1381L41.7109 87.1381L41.7109 85.4821L46.9669 85.4821C47.7949 85.4821 48.3889 85.3321 48.7489 85.0321C49.1209 84.7321 49.3069 84.2281 49.3069 83.5201C49.3069 82.8841 49.0369 82.3501 48.4969 81.9181C47.9569 81.4861 47.3209 81.2701 46.5889 81.2701L41.7109 81.2701ZM41.4229 100.162C41.4229 98.8662 41.8669 97.7982 42.7549 96.9582C43.6429 96.1182 44.7649 95.6982 46.1209 95.6982C47.4649 95.6982 48.5809 96.1062 49.4689 96.9222C50.3689 97.7382 50.8189 98.7822 50.8189 100.054C50.8189 101.362 50.3929 102.4 49.5409 103.168C48.7009 103.948 47.5189 104.338 45.9949 104.338L45.8149 104.32L45.8149 97.3902C44.9509 97.4142 44.2549 97.7022 43.7269 98.2542C43.1989 98.8062 42.9349 99.4662 42.9349 100.234C42.9349 101.29 43.4629 102.118 44.5189 102.718L43.7989 104.194C43.0549 103.798 42.4729 103.246 42.0529 102.538C41.6329 101.842 41.4229 101.05 41.4229 100.162ZM47.1829 97.5162L47.1829 102.574C47.7949 102.526 48.2989 102.274 48.6949 101.818C49.1029 101.374 49.3069 100.774 49.3069 100.018C49.3069 99.3942 49.1149 98.8542 48.7309 98.3982C48.3469 97.9542 47.8309 97.6602 47.1829 97.5162ZM41.7109 108.769L41.7109 107.113L50.5309 107.113L50.5309 108.697L49.0909 108.697L49.0909 108.769C49.5589 108.937 49.9549 109.279 50.2789 109.795C50.6149 110.323 50.7829 110.839 50.7829 111.343C50.7829 111.823 50.7109 112.231 50.5669 112.567L48.9649 112.063C49.0489 111.859 49.0909 111.535 49.0909 111.091C49.0909 110.467 48.8389 109.921 48.3349 109.453C47.8309 108.997 47.2429 108.769 46.5709 108.769L41.7109 108.769ZM44.1589 121.31C43.3909 121.31 42.7429 120.974 42.2149 120.302C41.6869 119.63 41.4229 118.784 41.4229 117.764C41.4229 116.876 41.6509 116.096 42.1069 115.424C42.5749 114.752 43.1869 114.272 43.9429 113.984L44.5729 115.46C44.0449 115.676 43.6309 115.988 43.3309 116.396C43.0429 116.816 42.8989 117.272 42.8989 117.764C42.8989 118.292 43.0129 118.73 43.2409 119.078C43.4689 119.438 43.7389 119.618 44.0509 119.618C44.6149 119.618 45.0289 119.186 45.2929 118.322L45.6709 116.81C46.1029 115.094 46.9309 114.236 48.1549 114.236C48.9589 114.236 49.6009 114.56 50.0809 115.208C50.5729 115.868 50.8189 116.708 50.8189 117.728C50.8189 118.508 50.6329 119.21 50.2609 119.834C49.8889 120.47 49.3909 120.914 48.7669 121.166L48.1549 119.69C48.5269 119.522 48.8149 119.246 49.0189 118.862C49.2349 118.49 49.3429 118.07 49.3429 117.602C49.3429 117.17 49.2349 116.78 49.0189 116.432C48.8029 116.096 48.5389 115.928 48.2269 115.928C47.7229 115.928 47.3629 116.402 47.1469 117.35L46.8049 118.682C46.3729 120.434 45.4909 121.31 44.1589 121.31ZM41.4229 128.059C41.4229 126.763 41.8669 125.695 42.7549 124.855C43.6429 124.015 44.7649 123.595 46.1209 123.595C47.4649 123.595 48.5809 124.003 49.4689 124.819C50.3689 125.635 50.8189 126.679 50.8189 127.951C50.8189 129.259 50.3929 130.297 49.5409 131.065C48.7009 131.845 47.5189 132.235 45.9949 132.235L45.8149 132.217L45.8149 125.287C44.9509 125.311 44.2549 125.599 43.7269 126.151C43.1989 126.703 42.9349 127.363 42.9349 128.131C42.9349 129.187 43.4629 130.015 44.5189 130.615L43.7989 132.091C43.0549 131.695 42.4729 131.143 42.0529 130.435C41.6329 129.739 41.4229 128.947 41.4229 128.059ZM47.1829 125.413L47.1829 130.471C47.7949 130.423 48.2989 130.171 48.6949 129.715C49.1029 129.271 49.3069 128.671 49.3069 127.915C49.3069 127.291 49.1149 126.751 48.7309 126.295C48.3469 125.851 47.8309 125.557 47.1829 125.413Z" fill="white"/>
<path d="M147.744 73.768H162.304C163.899 73.768 165.389 74.028 166.776 74.548C168.163 75.0333 169.359 75.7267 170.364 76.628C171.404 77.4947 172.219 78.5173 172.808 79.696C173.397 80.8747 173.692 82.14 173.692 83.492C173.692 85.468 173.207 87.132 172.236 88.484C171.3 89.8013 170.121 90.8067 168.7 91.5V91.916C170.607 92.6093 172.132 93.7013 173.276 95.192C174.455 96.648 175.044 98.468 175.044 100.652C175.044 102.247 174.715 103.685 174.056 104.968C173.432 106.216 172.565 107.291 171.456 108.192C170.347 109.093 169.047 109.787 167.556 110.272C166.1 110.757 164.523 111 162.824 111H147.744V73.768ZM161.784 88.952C163.413 88.952 164.661 88.5187 165.528 87.652C166.429 86.7507 166.88 85.6933 166.88 84.48C166.88 83.2667 166.447 82.2267 165.58 81.36C164.713 80.4933 163.517 80.06 161.992 80.06H154.764V88.952H161.784ZM162.564 104.552C164.332 104.552 165.684 104.119 166.62 103.252C167.556 102.351 168.024 101.207 168.024 99.82C168.024 98.4333 167.539 97.2893 166.568 96.388C165.632 95.452 164.228 94.984 162.356 94.984H154.764V104.552H162.564ZM192.511 111.832C190.327 111.832 188.334 111.485 186.531 110.792C184.763 110.064 183.255 109.024 182.007 107.672C180.759 106.32 179.788 104.691 179.095 102.784C178.402 100.843 178.055 98.6413 178.055 96.18V73.768H185.075V96.596C185.075 97.844 185.231 98.988 185.543 100.028C185.855 101.068 186.323 101.969 186.947 102.732C187.571 103.495 188.351 104.101 189.287 104.552C190.223 104.968 191.298 105.176 192.511 105.176C193.759 105.176 194.851 104.968 195.787 104.552C196.723 104.101 197.503 103.495 198.127 102.732C198.751 101.969 199.219 101.068 199.531 100.028C199.843 98.988 199.999 97.844 199.999 96.596V73.768H207.019V96.18C207.019 98.5027 206.672 100.635 205.979 102.576C205.32 104.483 204.35 106.129 203.067 107.516C201.819 108.868 200.294 109.925 198.491 110.688C196.723 111.451 194.73 111.832 192.511 111.832ZM221.524 93.684L208.992 73.768H217.364L224.8 86.092H225.216L232.392 73.768H240.868L228.544 93.684V111H221.524V93.684ZM259.349 111V80.424H248.949V73.768H276.769V80.424H266.369V111H259.349ZM280.202 73.768H287.222V111H280.202V73.768ZM325.209 105.02C323.372 107.239 321.205 108.937 318.709 110.116C316.213 111.26 313.423 111.832 310.337 111.832C307.564 111.832 304.981 111.329 302.589 110.324C300.232 109.319 298.187 107.949 296.453 106.216C294.72 104.483 293.351 102.437 292.345 100.08C291.34 97.688 290.837 95.1227 290.837 92.384C290.837 89.6453 291.34 87.0973 292.345 84.74C293.351 82.348 294.72 80.2853 296.453 78.552C298.187 76.8187 300.232 75.4493 302.589 74.444C304.981 73.4387 307.564 72.936 310.337 72.936C313.319 72.936 315.936 73.456 318.189 74.496C320.477 75.536 322.505 77.044 324.273 79.02L319.333 83.804C318.224 82.5213 316.941 81.4987 315.485 80.736C314.064 79.9733 312.365 79.592 310.389 79.592C308.656 79.592 307.027 79.904 305.501 80.528C303.976 81.1173 302.641 81.9667 301.497 83.076C300.388 84.1853 299.504 85.5373 298.845 87.132C298.187 88.692 297.857 90.4427 297.857 92.384C297.857 94.3253 298.187 96.0933 298.845 97.688C299.504 99.248 300.388 100.583 301.497 101.692C302.641 102.801 303.976 103.668 305.501 104.292C307.027 104.881 308.656 105.176 310.389 105.176C312.469 105.176 314.307 104.76 315.901 103.928C317.531 103.061 318.969 101.848 320.217 100.288L325.209 105.02ZM329.285 73.768H336.305V89.732H336.721L350.345 73.768H358.821V74.184L345.353 89.576L360.225 110.584V111H351.645L340.569 95.14L336.305 100.08V111H329.285V73.768ZM369.53 80.424V89.056H384.454V95.712H369.53V104.344H386.118V111H362.51V73.768H386.118V80.424H369.53ZM398.917 111V80.424H388.517V73.768H416.337V80.424H405.937V111H398.917ZM430.649 111.832C429.055 111.832 427.529 111.607 426.073 111.156C424.617 110.705 423.283 110.029 422.069 109.128C420.856 108.227 419.799 107.135 418.897 105.852C417.996 104.535 417.285 103.009 416.765 101.276L423.369 98.676C423.855 100.548 424.704 102.108 425.917 103.356C427.131 104.569 428.725 105.176 430.701 105.176C431.429 105.176 432.123 105.089 432.781 104.916C433.475 104.708 434.081 104.431 434.601 104.084C435.156 103.703 435.589 103.235 435.901 102.68C436.213 102.125 436.369 101.484 436.369 100.756C436.369 100.063 436.248 99.4387 436.005 98.884C435.763 98.3293 435.347 97.8093 434.757 97.324C434.203 96.8387 433.457 96.3707 432.521 95.92C431.62 95.4693 430.493 95.0013 429.141 94.516L426.853 93.684C425.848 93.3373 424.825 92.8693 423.785 92.28C422.78 91.6907 421.861 90.98 421.029 90.148C420.197 89.316 419.504 88.3453 418.949 87.236C418.429 86.092 418.169 84.8093 418.169 83.388C418.169 81.932 418.447 80.58 419.001 79.332C419.591 78.0493 420.405 76.94 421.445 76.004C422.52 75.0333 423.785 74.288 425.241 73.768C426.732 73.2133 428.379 72.936 430.181 72.936C432.053 72.936 433.665 73.196 435.017 73.716C436.404 74.2013 437.565 74.8427 438.501 75.64C439.472 76.4027 440.252 77.252 440.841 78.188C441.431 79.124 441.864 80.008 442.141 80.84L435.953 83.44C435.607 82.4 434.965 81.464 434.029 80.632C433.128 79.8 431.88 79.384 430.285 79.384C428.76 79.384 427.495 79.748 426.489 80.476C425.484 81.1693 424.981 82.088 424.981 83.232C424.981 84.3413 425.467 85.2947 426.437 86.092C427.408 86.8547 428.951 87.6 431.065 88.328L433.405 89.108C434.896 89.628 436.248 90.2347 437.461 90.928C438.709 91.5867 439.767 92.384 440.633 93.32C441.535 94.256 442.211 95.3307 442.661 96.544C443.147 97.7227 443.389 99.092 443.389 100.652C443.389 102.593 442.991 104.275 442.193 105.696C441.431 107.083 440.443 108.227 439.229 109.128C438.016 110.029 436.647 110.705 435.121 111.156C433.596 111.607 432.105 111.832 430.649 111.832Z" fill="white"/>
<line x1="78.8415" y1="185.506" x2="78.8415" y2="1.03181" stroke="#D5D5D5" stroke-width="5.15291"/>
<mask id="path-7-inside-1_3451:1161" fill="white">
<path fill-rule="evenodd" clip-rule="evenodd" d="M0 0H520.443V83.4781C513.045 83.479 507.048 89.477 507.048 96.8756C507.048 104.274 513.045 110.272 520.443 110.273V185.505H0V110.273H0.00142384C7.40069 110.273 13.399 104.275 13.399 96.8756C13.399 89.4764 7.40069 83.4781 0.00142384 83.4781H0V0Z"/>
</mask>
<path d="M520.443 0H525.596V-5.15291H520.443V0ZM0 0V-5.15291H-5.15291V0H0ZM520.443 83.4781L520.444 88.631L525.596 88.6303V83.4781H520.443ZM520.443 110.273H525.596V105.121L520.444 105.12L520.443 110.273ZM520.443 185.505V190.658H525.596V185.505H520.443ZM0 185.505H-5.15291V190.658H0V185.505ZM0 110.273V105.12H-5.15291V110.273H0ZM0 83.4781H-5.15291V88.631H0V83.4781ZM520.443 -5.15291H0V5.15291H520.443V-5.15291ZM525.596 83.4781V0H515.291V83.4781H525.596ZM512.201 96.8756C512.201 92.3226 515.891 88.6316 520.444 88.631L520.443 78.3252C510.199 78.3265 501.895 86.6313 501.895 96.8756H512.201ZM520.444 105.12C515.891 105.12 512.201 101.429 512.201 96.8756H501.895C501.895 107.12 510.199 115.425 520.443 115.426L520.444 105.12ZM525.596 185.505V110.273H515.291V185.505H525.596ZM0 190.658H520.443V180.352H0V190.658ZM-5.15291 110.273V185.505H5.15291V110.273H-5.15291ZM0.00142384 105.12H0V115.426H0.00142384V105.12ZM8.24607 96.8756C8.24607 101.429 4.55482 105.12 0.00142384 105.12V115.426C10.2466 115.426 18.5519 107.121 18.5519 96.8756H8.24607ZM0.00142384 88.631C4.55482 88.631 8.24607 92.3222 8.24607 96.8756H18.5519C18.5519 86.6305 10.2466 78.3252 0.00142384 78.3252V88.631ZM0 88.631H0.00142384V78.3252H0V88.631ZM-5.15291 0V83.4781H5.15291V0H-5.15291Z" fill="#D5D5D5" mask="url(#path-7-inside-1_3451:1161)"/>
<defs>
<linearGradient id="paint0_linear_3451:1161" x1="0" y1="0" x2="520" y2="186" gradientUnits="userSpaceOnUse">
<stop stop-color="#044CD7"/>
<stop offset="1" stop-color="#B11CC9"/>
</linearGradient>
</defs>
</svg>
