<svg xmlns="http://www.w3.org/2000/svg" xmlns:xlink="http://www.w3.org/1999/xlink" viewBox="0 0 1816.87 258.29"><defs><style>.cls-1{fill:none;}.cls-2{fill:#fff;}.cls-3{fill:url(#linear-gradient);}.cls-4{clip-path:url(#clip-path);}.cls-5{fill:url(#linear-gradient-2);}.cls-6{fill:url(#linear-gradient-3);}.cls-7{clip-path:url(#clip-path-2);}.cls-8{fill:url(#linear-gradient-4);}.cls-9{fill:url(#linear-gradient-5);}.cls-10{clip-path:url(#clip-path-3);}.cls-11{fill:url(#linear-gradient-6);}</style><linearGradient id="linear-gradient" x1="213.1" y1="97.37" x2="88.08" y2="97.37" gradientUnits="userSpaceOnUse"><stop offset="0" stop-color="#9f54ff"/><stop offset="1" stop-color="#00f9ff"/></linearGradient><clipPath id="clip-path" transform="translate(3.61 3.24)"><path class="cls-1" d="M93.74,187.66a9.63,9.63,0,0,0,3.94,6,5.13,5.13,0,0,0,3.83,1c.79-.15,5.93-.66,5-6.94a197.17,197.17,0,0,1-.6-51.34c2.85-23.4,8.52-33.61,10.9-37.53,5.13-8.47,9.09-14,14.91-17.52a35.66,35.66,0,0,1,12.79-4.74c2.85-.45,8.57-1,18.82,2a86.06,86.06,0,0,1,28.06,14.44A223.74,223.74,0,0,0,186.7,59.2c-3.76-17.12-6.82-30.36-17-43.21C164.6,9.64,158.43,2.11,148.46.36c-11-1.92-20.31,4.28-24,6.75C93.24,27.84,89.12,85.9,87.73,105.49A291.37,291.37,0,0,0,93.74,187.66Z"/></clipPath><linearGradient id="linear-gradient-2" x1="179.53" y1="18.08" x2="78.02" y2="155.25" gradientUnits="userSpaceOnUse"><stop offset="0" stop-color="#9f54ff"/><stop offset="0.1" stop-color="#886cff"/><stop offset="0.32" stop-color="#589eff"/><stop offset="0.52" stop-color="#32c6ff"/><stop offset="0.71" stop-color="#16e2ff"/><stop offset="0.88" stop-color="#06f3ff"/><stop offset="1" stop-color="#00f9ff"/></linearGradient><linearGradient id="linear-gradient-3" x1="7860.33" y1="10020.37" x2="7735.3" y2="10020.37" gradientTransform="matrix(-0.52, -0.85, 0.85, -0.52, -4407.62, 12051.63)" xlink:href="#linear-gradient"/><clipPath id="clip-path-2" transform="translate(3.61 3.24)"><path class="cls-1" d="M190.05,176.88a9.62,9.62,0,0,0,3-6.47A5.21,5.21,0,0,0,192,166.6c-.54-.59-3.66-4.72-8.56-.69a196.69,196.69,0,0,1-43.51,27.25c-21.46,9.76-33.12,10.24-37.71,10.25-9.91,0-16.65-.49-22.73-3.6a35.37,35.37,0,0,1-10.7-8.45c-1.88-2.2-5.32-6.79-8.09-17.11a86.12,86.12,0,0,1-2.28-31.48A223.16,223.16,0,0,0,32,164.45C19.31,176.58,9.61,186.09,4,201.51c-2.79,7.63-6,16.82-2.3,26.23,4.08,10.38,14.23,15.11,18.28,17,33.94,15.83,85.64-10.9,103.09-19.92A291.35,291.35,0,0,0,190.05,176.88Z"/></clipPath><linearGradient id="linear-gradient-4" x1="7826.76" y1="9941.08" x2="7725.25" y2="10078.25" gradientTransform="matrix(-0.52, -0.85, 0.85, -0.52, -4407.62, 12051.63)" xlink:href="#linear-gradient-2"/><linearGradient id="linear-gradient-5" x1="-4651.09" y1="11590.82" x2="-4776.11" y2="11590.82" gradientTransform="translate(8244.83 9765.4) rotate(117.77)" xlink:href="#linear-gradient"/><clipPath id="clip-path-3" transform="translate(3.61 3.24)"><path class="cls-1" d="M132.43,101.32a9.61,9.61,0,0,0-7.12.71,5.18,5.18,0,0,0-2.7,2.9c-.23.77-2.18,5.56,3.79,7.7A196.92,196.92,0,0,1,172.1,136c19.37,13.42,25.77,23.19,28.13,27.13,5.1,8.49,8.11,14.54,8.55,21.36A35.63,35.63,0,0,1,207,198c-.92,2.74-3.1,8.05-10.55,15.72a86.39,86.39,0,0,1-25.85,18.09,222.71,222.71,0,0,0,32.16,11.59c16.91,4.65,30,8.11,46.18,5.05,8-1.52,17.51-3.47,23.7-11.47,6.82-8.82,5.68-20,5.23-24.41-3.81-37.25-53.26-68-69.95-78.31A291.23,291.23,0,0,0,132.43,101.32Z"/></clipPath><linearGradient id="linear-gradient-6" x1="-4684.66" y1="11511.53" x2="-4786.16" y2="11648.69" gradientTransform="translate(8244.83 9765.4) rotate(117.77)" xlink:href="#linear-gradient-2"/></defs><g id="Layer_2" data-name="Layer 2"><g id="Layer_1-2" data-name="Layer 1"><circle class="cls-2" cx="142.85" cy="159.39" r="81.92"/><path class="cls-3" d="M93.74,187.66a9.63,9.63,0,0,0,3.94,6,5.13,5.13,0,0,0,3.83,1c.79-.15,5.93-.66,5-6.94a197.17,197.17,0,0,1-.6-51.34c2.85-23.4,8.52-33.61,10.9-37.53,5.13-8.47,9.09-14,14.91-17.52a35.66,35.66,0,0,1,12.79-4.74c2.85-.45,8.57-1,18.82,2a86.06,86.06,0,0,1,28.06,14.44A223.74,223.74,0,0,0,186.7,59.2c-3.76-17.12-6.82-30.36-17-43.21C164.6,9.64,158.43,2.11,148.46.36c-11-1.92-20.31,4.28-24,6.75C93.24,27.84,89.12,85.9,87.73,105.49A291.37,291.37,0,0,0,93.74,187.66Z" transform="translate(3.61 3.24)"/><g class="cls-4"><path class="cls-5" d="M193.12,98.55a72.25,72.25,0,0,0,2.06-24.46,74.18,74.18,0,0,0-2.09-11.94c-5.65-22.56-9.37-37.44-21.23-50.26C166.43,6,160.12-.79,150.19-2.72c-16.87-3.28-32,10-38.8,15.94C73.1,46.76,78.48,158.6,79.88,170.23c4,3.11,3.15-5,9.09-6.48C88.86,153,99,95.37,102,80.14c3.29-16.35,3.53-23.13,9.27-37.24,6.42-15.76,16.76-24.23,27.73-25.68C155.68,15,172.61,23.92,193.12,98.55Z" transform="translate(3.61 3.24)"/></g><path class="cls-6" d="M190.05,176.88a9.62,9.62,0,0,0,3-6.47A5.21,5.21,0,0,0,192,166.6c-.54-.59-3.66-4.72-8.56-.69a196.69,196.69,0,0,1-43.51,27.25c-21.46,9.76-33.12,10.24-37.71,10.25-9.91,0-16.65-.49-22.73-3.6a35.37,35.37,0,0,1-10.7-8.45c-1.88-2.2-5.32-6.79-8.09-17.11a86.12,86.12,0,0,1-2.28-31.48A223.16,223.16,0,0,0,32,164.45C19.31,176.58,9.61,186.09,4,201.51c-2.79,7.63-6,16.82-2.3,26.23,4.08,10.38,14.23,15.11,18.28,17,33.94,15.83,85.64-10.9,103.09-19.92A291.35,291.35,0,0,0,190.05,176.88Z" transform="translate(3.61 3.24)"/><g class="cls-7"><path class="cls-8" d="M62.21,138.48a72.12,72.12,0,0,0-22,11,73.57,73.57,0,0,0-9.1,8C14.85,174,4.08,185-.68,201.77c-2.17,7.68-4.71,16.63-1.18,26.11C4.13,244,23.29,250,32,252.7,80.53,267.9,173.2,205,182.4,197.79c.59-5-6-.06-10.27-4.38-9.17,5.72-63.58,27.1-78.18,32.41-15.67,5.71-21.57,9-36.61,11.48C40.54,240,27.92,235.62,21,227,10.43,213.94,9.2,194.86,62.21,138.48Z" transform="translate(3.61 3.24)"/></g><path class="cls-9" d="M132.43,101.32a9.61,9.61,0,0,0-7.12.71,5.18,5.18,0,0,0-2.7,2.9c-.23.77-2.18,5.56,3.79,7.7A196.92,196.92,0,0,1,172.1,136c19.37,13.42,25.77,23.19,28.13,27.13,5.1,8.49,8.11,14.54,8.55,21.36A35.63,35.63,0,0,1,207,198c-.92,2.74-3.1,8.05-10.55,15.72a86.39,86.39,0,0,1-25.85,18.09,222.71,222.71,0,0,0,32.16,11.59c16.91,4.65,30,8.11,46.18,5.05,8-1.52,17.51-3.47,23.7-11.47,6.82-8.82,5.68-20,5.23-24.41-3.81-37.25-53.26-68-69.95-78.31A291.23,291.23,0,0,0,132.43,101.32Z" transform="translate(3.61 3.24)"/><g class="cls-10"><path class="cls-11" d="M165,230.78A72.27,72.27,0,0,0,185.65,244a73.16,73.16,0,0,0,11.54,3.71c22.59,5.52,37.49,9.16,54.36,4.64,7.71-2.07,16.69-4.48,23-12.36,10.76-13.4,6.1-32.93,4-41.76-11.84-49.51-113.3-96.87-124.24-101-4.59,2,3,5.14,1.5,11.06,9.61,4.94,55.85,40.71,67.89,50.52,12.93,10.53,18.82,13.9,28.63,25.56,10.95,13,13.63,26.12,9.8,36.5C256.31,236.57,240.55,247.4,165,230.78Z" transform="translate(3.61 3.24)"/></g><path class="cls-2" d="M505.91,55.72a86.25,86.25,0,0,0-57.22-22.06c-49.63,0-87.89,41-87.89,91.34,0,50.66,38.26,91,87.89,91,42.4,0,74.11-24.47,75.83-64.11H457V124H561.06c0,83.76-44.47,122.71-112.37,122.71-67.55,0-119.94-54.12-119.94-121.67,0-67.21,52.39-122,119.94-122A116.72,116.72,0,0,1,529,34.35Z" transform="translate(3.61 3.24)"/><path class="cls-2" d="M610.68,182.9l-23.1,60.32H553.46L643.77,5.74h34.46l90,237.48H734.42l-23.1-60.32Zm89.61-29L661,48.48,621.71,154Z" transform="translate(3.61 3.24)"/><path class="cls-2" d="M1013,5.74h29.3l29,237.48H1039.5L1017.79,64.68,943.68,217H915.42L840.63,64.68,818.91,243.22H787.2L816.15,5.74h29.3l83.76,174.4Z" transform="translate(3.61 3.24)"/><path class="cls-2" d="M1445.2,243.22h-39l-61.35-88.93h-30.33v88.93h-32.4V5.74h91.34c50,0,70.31,37.22,70.31,74.45,0,35.16-17.58,69.28-62,73.07ZM1314.57,35.73v88.58h56.53c29,0,39.63-22.06,39.63-44.12,0-21.71-10.68-44.46-38.25-44.46Z" transform="translate(3.61 3.24)"/><path class="cls-2" d="M1502.85,174.63c0,20.68,21,42.05,51,42.05,30.34,0,45.16-16.89,47.91-34.81,1.73-25.51-19-37.57-40.32-42.4l-30.68-7.58c-50.66-12.75-57.9-41.36-57.9-62,0-40,36.53-66.87,76.86-66.87,43.08,0,76.52,26.89,76.52,69.63h-32.06c0-23.79-18.61-38.95-44.8-38.95-23.44,0-44.47,14.13-44.47,35.84,0,10.35,3.79,25.85,33.78,33.09l31,7.59c44.46,11.37,68.59,36.19,63.42,74.44-4.48,34.47-32.4,62-79.28,62-48.25,0-83.06-34.82-83.06-72Z" transform="translate(3.61 3.24)"/><polygon class="cls-2" points="1101.14 8.98 1258.13 8.98 1229.25 38.94 1101.14 38.94 1101.14 8.98"/><polygon class="cls-2" points="1101.14 114.65 1258.13 114.65 1229.25 144.62 1101.14 144.62 1101.14 114.65"/><polygon class="cls-2" points="1101.14 216.49 1258.13 216.49 1229.25 246.45 1101.14 246.45 1101.14 216.49"/><polygon class="cls-2" points="1659.88 8.98 1816.87 8.98 1787.98 38.94 1659.88 38.94 1659.88 8.98"/><polygon class="cls-2" points="1659.88 114.65 1816.87 114.65 1787.98 144.62 1659.88 144.62 1659.88 114.65"/><polygon class="cls-2" points="1659.88 216.49 1816.87 216.49 1787.98 246.45 1659.88 246.45 1659.88 216.49"/></g></g></svg>