<svg width="157" height="44" viewBox="0 0 157 44" fill="none" xmlns="http://www.w3.org/2000/svg">
<path d="M50 40.3758L48.2712 43.3995H2.28723L22.9607 7.80825L24.6807 10.7983L7.51298 40.3828L50 40.3758Z" fill="#044CD7"/>
<path d="M43.5435 36.0268L40.0503 36.0305L22.975 6.37125L1.73075 43.1718L0 40.0253L22.9323 0.339752L43.5435 36.0268Z" fill="#044CD7"/>
<path d="M49.9983 39.6428H8.74927L10.4958 36.6263H44.5983L23.432 0H27.105L49.9983 39.6428Z" fill="#044CD7"/>
<path d="M65.5526 12.0006H70.6262L78.1788 32.18H73.3313L71.7812 27.6706H64.3977L62.8476 32.18H58L65.5526 12.0006ZM70.372 23.6686L68.9064 19.441L68.2306 16.9609H67.9488L67.273 19.441L65.8074 23.6686H70.372ZM80.5463 12.0006H88.1558C89.245 12.0006 90.2226 12.165 91.0869 12.4938C91.9506 12.8232 92.6793 13.2788 93.2711 13.8607C93.863 14.4432 94.3133 15.1337 94.6239 15.9322C94.9345 16.7307 95.089 17.5997 95.089 18.5386C95.089 19.1968 94.9803 19.8068 94.7649 20.3705C94.5488 20.9342 94.2575 21.4562 93.8912 21.9347C93.5248 22.4138 93.0967 22.8366 92.6088 23.203C92.1197 23.5693 91.5936 23.8752 91.0305 24.1195V24.3732L96.3014 31.8976V32.1794H91.2848L86.1835 24.9081H84.9435V32.1794H80.5474V12.0006H80.5463ZM88.1558 20.8502C88.945 20.8502 89.5644 20.62 90.0159 20.1597C90.4669 19.6994 90.6917 19.131 90.6917 18.4546C90.6917 17.7782 90.481 17.2104 90.0576 16.7495C89.6349 16.2898 89.0007 16.059 88.1558 16.059H84.9423V20.8502H88.1558ZM102.896 32.18V16.1717H97.2585V12.0006H112.929V16.1717H107.292V32.18H102.896ZM115.634 12.0006H120.031V32.18H115.634V12.0006ZM124.089 12.0006H137.392V16.1717H128.486V20.2302H136.49V24.4014H128.486V32.18H124.089V12.0006ZM145.424 22.7943L138.632 12H143.93L147.482 17.9185H147.763L151.145 12H156.5L149.82 22.7943V32.1794H145.424V22.7943Z" fill="#044CD7"/>
</svg>
