<svg width="49" height="64" viewBox="0 0 49 64" fill="none" xmlns="http://www.w3.org/2000/svg">
<path fill-rule="evenodd" clip-rule="evenodd" d="M21.3851 44.8704H27.4006V52.3182C28.919 52.4536 30.4264 52.6928 31.9122 53.0343L35.6704 59.5424C28.4103 62.3296 20.3753 62.3296 13.1152 59.5424L16.8735 53.0343C18.359 52.69 19.8664 52.4478 21.3851 52.3095V44.8618V44.8704Z" fill="#FAD2B9"/>
<path fill-rule="evenodd" clip-rule="evenodd" d="M24.3931 12C28.0048 12 31.5355 13.071 34.5385 15.0776C37.5416 17.0842 39.8822 19.9362 41.2643 23.273C42.6465 26.6098 43.0081 30.2815 42.3035 33.8239C41.5989 37.3662 39.8597 40.6201 37.3058 43.1739C34.7519 45.7278 31.498 47.467 27.9557 48.1716C24.4134 48.8763 20.7416 48.5146 17.4048 47.1325C14.068 45.7503 11.216 43.4097 9.20941 40.4067C7.20284 37.4036 6.13184 33.873 6.13184 30.2613C6.13184 25.4181 8.05579 20.7733 11.4804 17.3486C14.9051 13.9239 19.5499 12 24.3931 12Z" fill="#FAD2B9"/>
<path fill-rule="evenodd" clip-rule="evenodd" d="M31.9124 53.0337C35.7974 53.936 39.4858 55.5375 42.7975 57.7601C37.3526 61.402 30.9494 63.346 24.3988 63.346C17.8482 63.346 11.4449 61.402 6 57.7601C9.31171 55.5375 13.0001 53.936 16.8851 53.0337L21.3853 57.5453H27.4008L31.9124 53.0337Z" fill="#1F9EE4"/>
<path fill-rule="evenodd" clip-rule="evenodd" d="M24.3776 57.7143L21.3555 60.7335C21.2887 60.8007 21.2093 60.854 21.1218 60.8904C21.0343 60.9268 20.9404 60.9455 20.8457 60.9455C20.7509 60.9455 20.6571 60.9268 20.5696 60.8904C20.4821 60.854 20.4026 60.8007 20.3358 60.7335C20.307 60.7066 20.2811 60.6768 20.2585 60.6447L14.9648 53.3688L16.6521 51.6816C16.7839 51.547 16.9632 51.4693 17.1516 51.465C17.34 51.4608 17.5226 51.5304 17.6603 51.659L24.3891 57.7146L24.3776 57.7143Z" fill="#A0D2F0"/>
<path fill-rule="evenodd" clip-rule="evenodd" d="M24.3789 57.7147L27.401 60.7339C27.4678 60.8011 27.5472 60.8544 27.6347 60.8908C27.7222 60.9272 27.8161 60.946 27.9108 60.946C28.0056 60.946 28.0994 60.9272 28.1869 60.8908C28.2744 60.8544 28.3539 60.8011 28.4207 60.7339C28.4495 60.7071 28.4754 60.6773 28.498 60.6451L33.7917 53.3693L32.1044 51.6821C31.9736 51.5513 31.7975 51.4757 31.6125 51.4709C31.4276 51.4662 31.2479 51.5327 31.1105 51.6566L24.3817 57.7122L24.3789 57.7147Z" fill="#A0D2F0"/>
<path fill-rule="evenodd" clip-rule="evenodd" d="M36.6842 54.3461L33.7881 53.418V61.9915C34.7736 61.6993 35.7389 61.3641 36.6842 60.986V54.3461ZM14.9654 61.9829V53.418L12.0723 54.3461V60.9746C13.0147 61.3527 13.9829 61.6907 14.9654 61.9829Z" fill="#262C5F"/>
<path d="M15.4268 29.8574L17.5981 27.686L19.7694 29.8574M29.0159 29.8574L31.1873 27.686L33.3586 29.8574H29.0159Z" stroke="#333333" stroke-width="1.86188" stroke-linecap="round" stroke-linejoin="round"/>
<path d="M25.1234 39.6796C24.6919 39.8491 24.38 40.26 24.3731 40.8215C24.3567 41.2218 24.5261 41.8415 25.4261 42.4814C27.7332 43.8978 31.5868 43.5373 31.5146 40.4288C30.1786 41.81 28.644 42.0437 27.2828 40.6405C26.9297 40.3082 26.6041 39.9521 26.1573 39.7408C25.8437 39.5963 25.5197 39.5658 25.1233 39.6797L25.1234 39.6796Z" fill="#333333"/>
<path d="M29.5807 41.5557C30.461 41.4158 31.1763 40.7405 31.1401 40.265C31.0031 38.8811 29.4982 39.3793 29.8978 40.175C29.0927 39.7612 29.3723 39.0618 30.0422 38.8194C30.6297 38.5904 31.5013 38.9177 31.8183 39.5749C32.455 41.6781 30.8336 42.9207 28.8438 43.173L29.5807 41.5557Z" fill="#333333"/>
<path d="M23.6217 39.6796C24.0532 39.8491 24.365 40.26 24.372 40.8215C24.3884 41.2218 24.2189 41.8415 23.319 42.4814C21.0118 43.8978 17.1583 43.5373 17.2305 40.4288C18.5665 41.81 20.101 42.0437 21.4622 40.6405C21.8154 40.3082 22.141 39.9521 22.5878 39.7408C22.9014 39.5963 23.2254 39.5658 23.6218 39.6797L23.6217 39.6796Z" fill="#333333"/>
<path d="M19.1652 41.5557C18.2849 41.4158 17.5696 40.7405 17.6058 40.265C17.7427 38.8811 19.2476 39.3793 18.8481 40.175C19.6531 39.7612 19.3735 39.0618 18.7037 38.8194C18.1162 38.5904 17.2446 38.9177 16.9276 39.5749C16.2908 41.6781 17.9123 42.9207 19.9021 43.173L19.1652 41.5557Z" fill="#333333"/>
<path d="M36.1059 2.33186C35.9968 3.83233 35.6234 5.01388 35.07 5.94328C34.9533 12.6717 32.4564 15.914 30.781 18.056L35.0439 16.7359C34.8564 17.5322 34.3469 18.7613 34.9455 20.171C35.4078 19.516 37.1926 18.5275 38.6249 19.2235C38.5019 20.2292 38.3552 21.2313 38.2142 22.2346L40.7514 22.4779C40.9876 23.5758 40.8978 25.1227 40.5817 25.7995L42.1528 26.3683C42.2115 27.1508 42.1811 27.9223 41.9416 28.8802C44.3344 28.3927 45.9642 27.6378 47.5005 25.1476C48.3111 23.8026 48.8879 22.1806 48.8394 20.2677C47.6616 21.659 46.1086 22.3192 44.5204 23.1288C46.362 19.9971 47.0294 16.6848 46.8233 14.4738C44.7443 17.3751 43.5263 18.1701 41.186 19.257C41.5365 16.0305 42.7497 13.9978 44.7128 11.5388C41.4885 11.1702 40.0991 11.9563 37.6679 13.3614C38.9547 9.38882 38.2965 5.81051 36.1058 2.33154L36.1059 2.33186ZM2.77666 10.4496C5.41951 11.4789 8.31861 13.0035 8.75674 15.6995C6.60058 15.7112 4.54049 14.7069 3.02771 13.6647C2.98252 15.9943 3.83295 17.1324 4.94476 19.0649C2.90337 19.5214 1.52467 20.4323 0 21.7481C2.06462 21.7036 3.48095 21.4509 4.78061 22.9593C3.06795 24.379 1.38711 26.0131 1.38711 28.4047C4.00709 26.6588 4.92354 26.7211 7.36945 27.7817C7.73473 25.4893 8.04809 23.5725 8.15822 23.1301C8.85783 22.9228 9.15581 22.8618 9.83433 22.764C9.22424 20.6616 10.1455 20.0702 10.5176 19.4809L12.6525 19.9071C11.546 18.1608 13.4043 16.374 14.6745 15.5173C13.4158 13.4772 13.0712 12.2461 12.5867 10.7633C9.41732 8.41569 5.82373 8.98755 2.77695 10.4493L2.77666 10.4496Z" fill="#62F1F1"/>
<path d="M20.7661 0.000311347C17.9225 1.76685 17.2449 8.1079 17.3327 9.42199C15.3727 7.77313 15.097 5.53037 15.1337 3.98703C12.41 5.68966 12.1149 8.06856 12.5864 10.7635C12.8995 12.2186 13.2649 13.7243 14.6743 15.5175C14.6749 15.5173 14.6755 15.5167 14.676 15.5164C15.4612 16.3299 16.2226 17.0997 17.0387 17.8818C17.1552 15.9088 17.1673 14.0264 19.0724 13.4032C20.1912 14.2004 21.1702 15.084 22.2094 15.9797L25.1979 13.0787C26.7955 14.1997 26.7413 14.9368 27.0437 17.0705C27.653 16.5739 29.5114 14.5222 31.528 14.2009C31.8073 15.3687 31.2467 17.1183 30.7811 18.056C30.7811 18.056 34.8341 14.7032 35.0817 10.1394C35.1779 8.36771 35.145 6.98482 35.0701 5.94328C34.1609 7.51838 32.6044 8.42823 31.1675 8.816C29.9585 6.1984 30.466 2.74932 31.0315 0.520769C27.5757 1.37537 25.1072 5.71063 24.7562 7.61625C22.1332 5.5227 20.9056 3.0465 20.7661 0L20.7661 0.000311347Z" fill="#62F1F1"/>
</svg>
