<svg width="37" height="64" viewBox="0 0 37 64" fill="none" xmlns="http://www.w3.org/2000/svg">
<path fill-rule="evenodd" clip-rule="evenodd" d="M15.5113 45.1023H21.4652V52.4737C22.9681 52.6077 24.4601 52.8446 25.9306 53.1825L29.6504 59.6241C22.4646 62.3827 14.5119 62.3827 7.32617 59.6241L11.0459 53.1825C12.5163 52.8418 14.0082 52.6021 15.5113 52.4652V45.0938V45.1023Z" fill="#FAD2B9"/>
<path fill-rule="evenodd" clip-rule="evenodd" d="M18.4854 12.5688C22.0602 12.5688 25.5546 13.6289 28.5269 15.6149C31.4992 17.6009 33.8159 20.4238 35.1839 23.7264C36.5519 27.029 36.9098 30.6632 36.2124 34.1692C35.515 37.6753 33.7936 40.8958 31.2659 43.4236C28.7381 45.9513 25.5176 47.6727 22.0115 48.3701C18.5055 49.0675 14.8713 48.7096 11.5687 47.3416C8.26604 45.9736 5.44322 43.657 3.4572 40.6847C1.47117 37.7124 0.411133 34.2179 0.411133 30.6431C0.411133 25.8495 2.31538 21.2523 5.70497 17.8627C9.09455 14.4731 13.6918 12.5688 18.4854 12.5688Z" fill="#FAD2B9"/>
<path fill-rule="evenodd" clip-rule="evenodd" d="M25.9273 53.1831C29.7725 54.0762 33.4232 55.6613 36.701 57.8612C31.3118 61.4657 24.9742 63.3899 18.4906 63.3899C12.0071 63.3899 5.66944 61.4657 0.280273 57.8612C3.55807 55.6613 7.20874 54.0762 11.054 53.1831L15.508 57.6485H21.4619L25.9273 53.1831Z" fill="#00A1E0"/>
<path fill-rule="evenodd" clip-rule="evenodd" d="M3.06464 56.1849L4.05412 57.2311L2.2793 59.1023C3.5276 59.8132 4.82135 60.4411 6.15215 60.982V54.7446C5.10236 55.1729 4.07558 55.6555 3.07598 56.1906L3.06464 56.1849Z" fill="#FFEB3B"/>
<path fill-rule="evenodd" clip-rule="evenodd" d="M12.1772 62.7802V54.3172L11.0431 53.1831C9.37531 53.5721 7.74092 54.0926 6.15527 54.7396V60.977C8.10334 61.7704 10.1239 62.3724 12.1885 62.7745L12.1772 62.7802Z" fill="#00A1E0"/>
<path fill-rule="evenodd" clip-rule="evenodd" d="M30.8177 60.9827V54.7453C29.2312 54.0964 27.5959 53.5741 25.927 53.1831L24.793 54.3172V62.783C26.8549 62.3799 28.8727 61.7769 30.8177 60.9827Z" fill="#00A1E0"/>
<path fill-rule="evenodd" clip-rule="evenodd" d="M33.9059 56.1849L32.9164 57.2311L34.6912 59.1023C33.4429 59.8132 32.1492 60.4411 30.8184 60.982V54.7446C31.8682 55.1729 32.8949 55.6555 33.8945 56.1906L33.9059 56.1849Z" fill="#FFEB3B"/>
<path fill-rule="evenodd" clip-rule="evenodd" d="M18.4869 60.1632C16.5337 60.1643 14.6462 59.4578 13.1738 58.1745C11.7013 56.8912 10.7434 55.118 10.4775 53.183C11.3082 52.9732 12.156 52.7974 13.0122 52.6528C13.1504 54.0087 13.7868 55.2651 14.7982 56.1787C15.8096 57.0923 17.124 57.598 18.4869 57.598C19.8498 57.598 21.1643 57.0923 22.1757 56.1787C23.1871 55.2651 23.8235 54.0087 23.9617 52.6528C24.8122 52.7974 25.6628 52.9732 26.4963 53.183C26.2316 55.1188 25.2742 56.893 23.8015 58.177C22.3289 59.461 20.4407 60.1676 18.4869 60.1661V60.1632Z" fill="#FFEB3B"/>
<path d="M25.2273 25.4995V28.7316M11.7432 25.4995V28.7316V25.4995Z" stroke="#333333" stroke-width="1.8741" stroke-linecap="round" stroke-linejoin="round"/>
<path fill-rule="evenodd" clip-rule="evenodd" d="M0.513309 14.1396C0.133083 18.3468 -0.584104 29.1012 0.885994 34.7557C0.694416 22.3294 4.3985 14.8592 18.4862 14.8564C32.574 14.8592 36.2781 22.3296 36.0865 34.7557C37.5566 29.1012 36.8394 18.3468 36.4591 14.1396H18.4861H0.513026H0.513309Z" fill="#1A1A1A"/>
<path d="M0.578019 6.57959C0.186056 13.511 -0.0234925 19.5945 0.167003 25.4384C2.8503 11.7433 32.1393 9.86868 36.8032 25.4384C36.9937 19.5945 36.6955 12.0404 36.38 6.57959C27.2391 10.6328 10.4817 11.927 0.57731 6.57959H0.578019Z" fill="#1A1A1A"/>
<path fill-rule="evenodd" clip-rule="evenodd" d="M18.4866 4.96289C12.1783 4.96289 5.87 6.16206 2.40541 8.56074C1.46413 9.21283 0.970747 10.3864 0.820455 11.4722C0.692092 12.3879 0.582177 13.3877 0.486328 14.4381H36.4875C36.3919 13.3877 36.2819 12.3881 36.1536 11.4722C36.0033 10.3863 35.5101 9.20426 34.5688 8.56074C31.1042 6.16214 24.796 4.96289 18.4877 4.96289H18.4866Z" fill="#1A1A1A"/>
<path d="M7.43555 8.99319C13.4555 9.95616 16.8245 5.19632 18.093 0C19.3295 4.8646 22.1119 9.91406 28.4632 8.95463C18.846 14.7934 12.1195 12.2417 7.43555 8.99277V8.99319Z" fill="#1A1A1A"/>
<path fill-rule="evenodd" clip-rule="evenodd" d="M18.4874 41.5389C17.9254 41.5407 17.3693 41.423 16.8561 41.1938C16.3429 40.9646 15.8843 40.629 15.5105 40.2092C15.3365 40.0209 15.2442 39.7714 15.2536 39.5153C15.263 39.2591 15.3735 39.0171 15.5608 38.8421C15.7481 38.6672 15.9971 38.5735 16.2533 38.5815C16.5095 38.5896 16.7521 38.6988 16.9281 38.8852L16.9508 38.9078L16.9735 38.9334C17.16 39.1337 17.3841 39.2954 17.6331 39.4091C17.8821 39.5228 18.151 39.5863 18.4246 39.5961C18.6981 39.6058 18.9709 39.5616 19.2274 39.4658C19.4838 39.3701 19.7189 39.2248 19.9192 39.0383L20.0241 38.9334C20.106 38.8353 20.2064 38.7544 20.3197 38.6953C20.4329 38.6362 20.5567 38.6001 20.684 38.5889C20.8112 38.5778 20.9394 38.5919 21.0612 38.6305C21.183 38.6691 21.2959 38.7313 21.3936 38.8136C21.4912 38.896 21.5717 38.9968 21.6302 39.1103C21.6888 39.2238 21.7244 39.3478 21.7349 39.4751C21.7454 39.6024 21.7307 39.7305 21.6916 39.8521C21.6525 39.9737 21.5897 40.0864 21.5069 40.1837L21.4842 40.2092C21.1095 40.63 20.6495 40.9663 20.1347 41.1956C19.6199 41.4248 19.0623 41.5419 18.4988 41.5389H18.4874Z" fill="black"/>
<path fill-rule="evenodd" clip-rule="evenodd" d="M18.4191 33.9943C16.2466 33.9858 14.0952 34.4031 12.5656 35.4534C10.4052 36.9646 9.75725 38.7173 8.56033 40.5876C7.58562 42.0746 5.91624 43.4296 4.74219 42.3834C11.9506 50.8195 24.9879 50.8283 32.208 42.4023C30.2771 43.5166 28.9348 41.702 28.3782 40.5876C25.3454 35.5963 24.3764 34.1643 18.4191 33.9941V33.9943ZM18.3432 36.3754C20.4574 36.3981 22.592 36.743 23.2044 38.0629C23.9349 41.2721 21.0532 43.0115 18.4751 43.0288C16.7484 43.0146 15.0162 42.3539 14.1486 40.8343C12.3454 37.6702 15.1791 36.4094 18.3432 36.3754Z" fill="#1A1A1A"/>
</svg>
