<svg width="37" height="64" viewBox="0 0 37 64" fill="none" xmlns="http://www.w3.org/2000/svg">
<path fill-rule="evenodd" clip-rule="evenodd" d="M15.3851 44.8704H21.4006V52.3182C22.919 52.4536 24.4264 52.6928 25.9122 53.0343L29.6704 59.5424C22.4103 62.3296 14.3753 62.3296 7.11523 59.5424L10.8735 53.0343C12.359 52.69 13.8664 52.4478 15.3851 52.3095V44.8618V44.8704Z" fill="#FAD2B9"/>
<path fill-rule="evenodd" clip-rule="evenodd" d="M18.3931 12C22.0048 12 25.5355 13.071 28.5385 15.0776C31.5416 17.0842 33.8822 19.9362 35.2643 23.273C36.6465 26.6098 37.0081 30.2815 36.3035 33.8239C35.5989 37.3662 33.8597 40.6201 31.3058 43.1739C28.7519 45.7278 25.498 47.467 21.9557 48.1716C18.4134 48.8763 14.7416 48.5146 11.4048 47.1325C8.06801 45.7503 5.21599 43.4097 3.20941 40.4067C1.20284 37.4036 0.131836 33.873 0.131836 30.2613C0.131836 25.4181 2.05579 20.7733 5.48044 17.3486C8.90509 13.9239 13.5499 12 18.3931 12Z" fill="#FAD2B9"/>
<path fill-rule="evenodd" clip-rule="evenodd" d="M25.9124 53.0337C29.7974 53.936 33.4858 55.5375 36.7975 57.7601C31.3526 61.402 24.9494 63.346 18.3988 63.346C11.8482 63.346 5.44492 61.402 0 57.7601C3.31171 55.5375 7.00015 53.936 10.8851 53.0337L15.3853 57.5453H21.4008L25.9124 53.0337Z" fill="#1F9EE4"/>
<path fill-rule="evenodd" clip-rule="evenodd" d="M18.3776 57.7143L15.3555 60.7335C15.2887 60.8007 15.2093 60.854 15.1218 60.8904C15.0343 60.9268 14.9404 60.9455 14.8457 60.9455C14.7509 60.9455 14.6571 60.9268 14.5696 60.8904C14.4821 60.854 14.4026 60.8007 14.3358 60.7335C14.307 60.7066 14.2811 60.6768 14.2585 60.6447L8.96484 53.3688L10.6521 51.6816C10.7839 51.547 10.9632 51.4693 11.1516 51.465C11.34 51.4608 11.5226 51.5304 11.6603 51.659L18.3891 57.7146L18.3776 57.7143Z" fill="#A0D2F0"/>
<path fill-rule="evenodd" clip-rule="evenodd" d="M18.3789 57.7147L21.401 60.7339C21.4678 60.8011 21.5472 60.8544 21.6347 60.8908C21.7222 60.9272 21.8161 60.946 21.9108 60.946C22.0056 60.946 22.0994 60.9272 22.1869 60.8908C22.2744 60.8544 22.3539 60.8011 22.4207 60.7339C22.4495 60.7071 22.4754 60.6773 22.498 60.6451L27.7917 53.3693L26.1044 51.6821C25.9736 51.5513 25.7975 51.4757 25.6125 51.4709C25.4276 51.4662 25.2479 51.5327 25.1105 51.6566L18.3817 57.7122L18.3789 57.7147Z" fill="#A0D2F0"/>
<path fill-rule="evenodd" clip-rule="evenodd" d="M30.6842 54.3461L27.7881 53.418V61.9915C28.7736 61.6993 29.7389 61.3641 30.6842 60.986V54.3461ZM8.96542 61.9829V53.418L6.07227 54.3461V60.9746C7.01472 61.3527 7.9829 61.6907 8.96542 61.9829Z" fill="#262C5F"/>
<path d="M9.42676 29.8574L11.5981 27.686L13.7694 29.8574M23.0159 29.8574L25.1873 27.686L27.3586 29.8574H23.0159Z" stroke="#333333" stroke-width="1.86188" stroke-linecap="round" stroke-linejoin="round"/>
<path d="M19.1234 39.6796C18.6919 39.8491 18.38 40.26 18.3731 40.8215C18.3567 41.2218 18.5261 41.8415 19.4261 42.4814C21.7332 43.8978 25.5868 43.5373 25.5146 40.4288C24.1786 41.81 22.644 42.0437 21.2828 40.6405C20.9297 40.3082 20.6041 39.9521 20.1573 39.7408C19.8437 39.5963 19.5197 39.5658 19.1233 39.6797L19.1234 39.6796Z" fill="#333333"/>
<path d="M23.5807 41.5557C24.461 41.4158 25.1763 40.7405 25.1401 40.265C25.0031 38.8811 23.4982 39.3793 23.8978 40.175C23.0927 39.7612 23.3723 39.0618 24.0422 38.8194C24.6297 38.5904 25.5013 38.9177 25.8183 39.5749C26.455 41.6781 24.8336 42.9207 22.8438 43.173L23.5807 41.5557Z" fill="#333333"/>
<path d="M17.6217 39.6796C18.0532 39.8491 18.365 40.26 18.372 40.8215C18.3884 41.2218 18.2189 41.8415 17.319 42.4814C15.0118 43.8978 11.1583 43.5373 11.2305 40.4288C12.5665 41.81 14.101 42.0437 15.4622 40.6405C15.8154 40.3082 16.141 39.9521 16.5878 39.7408C16.9014 39.5963 17.2254 39.5658 17.6218 39.6797L17.6217 39.6796Z" fill="#333333"/>
<path d="M13.1652 41.5557C12.2849 41.4158 11.5696 40.7405 11.6058 40.265C11.7427 38.8811 13.2476 39.3793 12.8481 40.175C13.6531 39.7612 13.3735 39.0618 12.7037 38.8194C12.1162 38.5904 11.2446 38.9177 10.9276 39.5749C10.2908 41.6781 11.9123 42.9207 13.9021 43.173L13.1652 41.5557Z" fill="#333333"/>
<path fill-rule="evenodd" clip-rule="evenodd" d="M0.513309 14.1396C0.133083 18.3468 -0.584104 29.1012 0.885994 34.7557C0.694416 22.3294 4.3985 14.8592 18.4862 14.8564C32.574 14.8592 36.2781 22.3296 36.0865 34.7557C37.5566 29.1012 36.8394 18.3468 36.4591 14.1396H18.4861H0.513026H0.513309Z" fill="#1A1A1A"/>
<path d="M0.578019 6.57959C0.186056 13.511 -0.0234925 19.5945 0.167003 25.4384C2.8503 11.7433 32.1393 9.86868 36.8032 25.4384C36.9937 19.5945 36.6955 12.0404 36.38 6.57959C27.2391 10.6328 10.4817 11.927 0.57731 6.57959H0.578019Z" fill="#1A1A1A"/>
<path fill-rule="evenodd" clip-rule="evenodd" d="M18.4866 4.96289C12.1783 4.96289 5.87 6.16206 2.40541 8.56074C1.46413 9.21283 0.970747 10.3864 0.820455 11.4722C0.692092 12.3879 0.582177 13.3877 0.486328 14.4381H36.4875C36.3919 13.3877 36.2819 12.3881 36.1536 11.4722C36.0033 10.3863 35.5101 9.20426 34.5688 8.56074C31.1042 6.16214 24.796 4.96289 18.4877 4.96289H18.4866Z" fill="#1A1A1A"/>
<path d="M7.43555 8.99319C13.4555 9.95616 16.8245 5.19632 18.093 0C19.3295 4.8646 22.1119 9.91406 28.4632 8.95463C18.846 14.7934 12.1195 12.2417 7.43555 8.99277V8.99319Z" fill="#1A1A1A"/>
</svg>
