<svg width="61" height="63" viewBox="0 0 61 63" fill="none" xmlns="http://www.w3.org/2000/svg">
<path fill-rule="evenodd" clip-rule="evenodd" d="M27.2786 44.5008H33.2941V51.9485C34.8126 52.0839 36.32 52.3232 37.8057 52.6646L41.564 59.1728C34.3039 61.96 26.2689 61.96 19.0088 59.1728L22.767 52.6646C24.2526 52.3204 25.76 52.0782 27.2786 51.9399V44.4922V44.5008Z" fill="#FAD2B9"/>
<path fill-rule="evenodd" clip-rule="evenodd" d="M30.2867 11.6304C33.8984 11.6304 37.429 12.7014 40.4321 14.7079C43.4351 16.7145 45.7757 19.5665 47.1579 22.9034C48.54 26.2402 48.9017 29.9119 48.197 33.4542C47.4924 36.9966 45.7532 40.2504 43.1993 42.8043C40.6454 45.3582 37.3916 47.0974 33.8493 47.802C30.3069 48.5066 26.6352 48.145 23.2984 46.7629C19.9616 45.3807 17.1095 43.0401 15.103 40.0371C13.0964 37.034 12.0254 33.5034 12.0254 29.8916C12.0254 25.0485 13.9493 20.4036 17.374 16.979C20.7986 13.5543 25.4435 11.6304 30.2867 11.6304Z" fill="#FAD2B9"/>
<path fill-rule="evenodd" clip-rule="evenodd" d="M37.8059 52.6646C41.6909 53.5668 45.3794 55.1684 48.6911 57.391C43.2462 61.0329 36.8429 62.9769 30.2923 62.9769C23.7417 62.9769 17.3385 61.0329 11.8936 57.391C15.2053 55.1684 18.8937 53.5668 22.7787 52.6646L27.2789 57.1762H33.2943L37.8059 52.6646Z" fill="#1F9EE4"/>
<path fill-rule="evenodd" clip-rule="evenodd" d="M30.2721 57.3451L27.2501 60.3643C27.1833 60.4315 27.1038 60.4849 27.0163 60.5212C26.9288 60.5576 26.835 60.5764 26.7402 60.5764C26.6454 60.5764 26.5516 60.5576 26.4641 60.5212C26.3766 60.4849 26.2972 60.4315 26.2303 60.3643C26.2016 60.3375 26.1757 60.3077 26.153 60.2755L20.8594 52.9997L22.5466 51.3125C22.6785 51.1779 22.8577 51.1001 23.0461 51.0959C23.2345 51.0917 23.4171 51.1613 23.5549 51.2898L30.2836 57.3454L30.2721 57.3451Z" fill="#A0D2F0"/>
<path fill-rule="evenodd" clip-rule="evenodd" d="M30.2725 57.3456L33.2945 60.3648C33.3613 60.432 33.4408 60.4853 33.5283 60.5217C33.6158 60.5581 33.7096 60.5768 33.8044 60.5768C33.8992 60.5768 33.993 60.5581 34.0805 60.5217C34.168 60.4853 34.2474 60.432 34.3143 60.3648C34.343 60.3379 34.3689 60.3082 34.3916 60.276L39.6852 53.0001L37.998 51.313C37.8671 51.1821 37.6911 51.1065 37.5061 51.1018C37.3211 51.0971 37.1414 51.1635 37.004 51.2875L30.2753 57.343L30.2725 57.3456Z" fill="#A0D2F0"/>
<path fill-rule="evenodd" clip-rule="evenodd" d="M42.5777 53.9765L39.6817 53.0483V61.6218C40.6671 61.3297 41.6324 60.9945 42.5777 60.6164V53.9765ZM20.859 61.6133V53.0484L17.9658 53.9765V60.605C18.9083 60.9831 19.8764 61.3211 20.859 61.6133Z" fill="#262C5F"/>
<path d="M21.3203 29.4882L23.4916 27.3169L25.6629 29.4882M34.9095 29.4882L37.0808 27.3169L39.2522 29.4882H34.9095Z" stroke="#333333" stroke-width="1.86188" stroke-linecap="round" stroke-linejoin="round"/>
<path d="M31.0169 39.3104C30.5854 39.48 30.2736 39.8909 30.2667 40.4523C30.2502 40.8527 30.4197 41.4724 31.3196 42.1123C33.6268 43.5287 37.4803 43.1682 37.4081 40.0596C36.0721 41.4409 34.5376 41.6745 33.1764 40.2713C32.8233 39.9391 32.4977 39.5829 32.0508 39.3716C31.7373 39.2272 31.4133 39.1967 31.0168 39.3105L31.0169 39.3104Z" fill="#333333"/>
<path d="M35.4742 41.1865C36.3545 41.0467 37.0698 40.3714 37.0336 39.8958C36.8967 38.5119 35.3918 39.0102 35.7913 39.8058C34.9863 39.3921 35.2659 38.6926 35.9358 38.4503C36.5232 38.2213 37.3949 38.5485 37.7118 39.2058C38.3486 41.309 36.7271 42.5515 34.7373 42.8039L35.4742 41.1865Z" fill="#333333"/>
<path d="M36.5544 0C33.0511 0.561244 31.2519 4.18391 24.1121 2.71885C20.8795 1.80066 19.4126 1.69536 18.2716 2.8867C17.0815 4.12944 16.257 6.44872 15.4591 9.10441C14.8474 11.228 14.3939 13.2239 14.0996 15.3049H46.3827C45.3836 8.34617 43.2827 2.90703 39.1693 0.678443C38.1577 0.213532 37.2995 0.0207792 36.5543 0.00204531L36.5544 0Z" fill="#95E8CF"/>
<path d="M29.963 9.23373C24.393 9.25893 18.9278 9.82737 14.959 10.8663C14.5933 12.1781 14.2624 13.7792 14.0342 15.6807H46.4347C46.1948 13.9589 45.8857 12.3366 45.4841 10.8328C41.1218 9.72012 35.4947 9.20878 29.9642 9.23378L29.963 9.23373Z" fill="#1A1A1A"/>
<path d="M30.2865 12.7827C13.5606 12.7827 0 17.2158 0 22.6853H0.00893713C0.00893713 25.9208 4.73424 28.7922 12.076 30.5991C12.0464 28.3733 12.8746 24.3247 13.5866 21.7103C15.332 21.2185 15.5715 21.1668 17.3583 20.8532C21.6189 20.0438 25.9489 19.6491 30.2867 19.6744C34.6244 19.6491 38.9544 20.0438 43.2151 20.8532C45.0017 21.1668 45.2794 21.2185 47.0249 21.7103C47.7368 24.3246 48.5651 28.3731 48.5354 30.5991C55.8772 28.7921 60.5644 25.9208 60.5644 22.6853H60.5733C60.5733 17.2161 47.0124 12.7827 30.2865 12.7827Z" fill="#09A4AF"/>
<path d="M17.8513 20.7349C15.8529 21.0542 14.0252 21.553 12.5694 21.9803C12.2297 24.1044 11.9955 27.3822 12.0273 29.512C13.267 29.3321 14.9362 29.1212 15.8357 29.0403C15.7195 29.1268 16.619 23.9338 17.8515 20.735L17.8513 20.7349ZM42.7222 20.7349C43.9547 23.9337 44.8541 29.1268 44.738 29.0403C45.6373 29.1211 47.3066 29.332 48.5463 29.5119C48.5782 27.3821 48.3439 24.1043 48.0042 21.9803C46.5484 21.553 44.7206 21.0542 42.7223 20.7349L42.7222 20.7349Z" fill="#1A1A1A"/>
<path d="M29.5162 39.3104C29.9477 39.48 30.2596 39.8909 30.2665 40.4523C30.2829 40.8527 30.1135 41.4724 29.2135 42.1123C26.9064 43.5287 23.0528 43.1682 23.125 40.0596C24.461 41.4409 25.9956 41.6745 27.3568 40.2713C27.7099 39.9391 28.0355 39.5829 28.4823 39.3716C28.7959 39.2272 29.1199 39.1967 29.5163 39.3105L29.5162 39.3104Z" fill="#333333"/>
<path d="M25.0597 41.1865C24.1794 41.0467 23.4641 40.3714 23.5003 39.8958C23.6372 38.5119 25.1422 39.0102 24.7426 39.8058C25.5476 39.3921 25.2681 38.6926 24.5982 38.4503C24.0107 38.2213 23.1391 38.5485 22.8221 39.2058C22.1854 41.309 23.8068 42.5515 25.7966 42.8039L25.0597 41.1865Z" fill="#333333"/>
</svg>
