<svg width="49" height="64" viewBox="0 0 49 64" fill="none" xmlns="http://www.w3.org/2000/svg">
<path fill-rule="evenodd" clip-rule="evenodd" d="M21.6427 44.9616H27.5862V52.3203C29.0865 52.4541 30.5759 52.6905 32.0439 53.0279L35.7572 59.4582C28.5839 62.2121 20.645 62.2121 13.4717 59.4582L17.185 53.0279C18.6528 52.6877 20.1422 52.4485 21.6427 52.3118V44.9531V44.9616Z" fill="#FAD2B9"/>
<path fill-rule="evenodd" clip-rule="evenodd" d="M24.6152 12.4844C28.1838 12.4844 31.6722 13.5426 34.6394 15.5252C37.6065 17.5077 39.9191 20.3257 41.2847 23.6226C42.6504 26.9195 43.0077 30.5473 42.3115 34.0473C41.6153 37.5473 39.8969 40.7623 37.3735 43.2856C34.8502 45.809 31.6352 47.5274 28.1352 48.2236C24.6352 48.9198 21.0074 48.5625 17.7105 47.1969C14.4136 45.8312 11.5956 43.5186 9.61305 40.5515C7.63047 37.5843 6.57227 34.0959 6.57227 30.5273C6.57227 25.742 8.47321 21.1527 11.8569 17.769C15.2406 14.3853 19.8299 12.4844 24.6152 12.4844Z" fill="#FAD2B9"/>
<path fill-rule="evenodd" clip-rule="evenodd" d="M24.7573 55.3291C24.7234 55.3291 24.6866 55.3631 24.6187 55.3631C24.5507 55.3631 24.5479 55.3291 24.48 55.3291H24.7573ZM17.0335 53.0649C17.2798 52.9942 17.5203 52.9319 17.7581 52.8696C17.6787 53.6783 17.7073 54.494 17.843 55.2952C18.3444 56.0883 19.0225 56.7548 19.8242 57.2424C21.6384 55.5442 24.579 55.3631 24.579 55.3631C24.579 55.3631 27.5508 55.5273 29.3905 57.2565C30.1775 56.7834 30.8479 56.1392 31.3519 55.3716C31.4993 54.5461 31.5327 53.7042 31.4509 52.8696L32.0538 53.0281C35.8923 53.9196 39.5367 55.502 42.8088 57.6981C37.429 61.2964 31.1023 63.2172 24.63 63.2172C18.1577 63.2172 11.831 61.2964 6.45117 57.6981C9.67223 55.5334 13.2555 53.9642 17.0307 53.0649H17.0335Z" fill="black"/>
<path fill-rule="evenodd" clip-rule="evenodd" d="M27.6291 56.1411L26.5196 58.3572H22.7101L21.6006 56.1411C22.5611 55.7361 23.5773 55.4785 24.6148 55.377C25.653 55.4744 26.6698 55.7322 27.6291 56.1411Z" fill="#818181"/>
<path fill-rule="evenodd" clip-rule="evenodd" d="M27.1742 63.1177L26.5572 58.3799H22.7448L22.125 63.1234C22.9458 63.1857 23.7779 63.2168 24.6156 63.2168C25.4534 63.2168 26.3308 63.1828 27.1629 63.1177H27.1742Z" fill="#989898"/>
<path fill-rule="evenodd" clip-rule="evenodd" d="M30.089 50.481C30.089 50.481 30.3324 53.2546 24.6152 55.366C24.6152 55.366 29.0842 55.6094 30.4371 58.6944C30.4711 58.8331 33.0692 52.1112 30.089 50.4866V50.481Z" fill="#4D4D4D"/>
<path fill-rule="evenodd" clip-rule="evenodd" d="M19.1406 50.481C16.1943 52.1112 18.7585 58.7991 18.8292 58.6887C20.1453 55.6377 24.6483 55.3603 24.6483 55.3603C18.8972 53.2518 19.1406 50.481 19.1406 50.481Z" fill="#4D4D4D"/>
<path d="M25.4837 44.5771C25.3481 44.1093 25.0761 43.6925 24.7026 43.3799H24.5271C24.1448 43.6834 23.8708 44.1023 23.7459 44.5743C23.5988 45.1092 24.3318 47.5772 24.5271 48.1206H24.7026C24.8837 47.6225 25.6054 45.0582 25.4837 44.5771Z" fill="#333333"/>
<path d="M21.0245 40.9262C20.9342 40.9045 20.8491 40.8651 20.774 40.8103C20.699 40.7556 20.6355 40.6865 20.5872 40.6072C20.5389 40.5278 20.5067 40.4397 20.4926 40.3478C20.4785 40.256 20.4826 40.1623 20.5048 40.0721C20.527 39.9819 20.5667 39.8969 20.6218 39.8221C20.677 39.7473 20.7463 39.6842 20.8259 39.6362C20.9055 39.5883 20.9937 39.5566 21.0856 39.5429C21.1775 39.5292 21.2712 39.5337 21.3613 39.5564L21.4208 39.5733C21.9244 39.7172 22.4381 39.8231 22.9576 39.8903C24.0622 40.0375 25.1814 40.0375 26.286 39.8903C26.8055 39.8231 27.3192 39.7172 27.8228 39.5733C28 39.5137 28.1936 39.5268 28.361 39.6099C28.5285 39.6929 28.6561 39.8391 28.7158 40.0163C28.7755 40.1934 28.7623 40.387 28.6792 40.5545C28.5962 40.7219 28.45 40.8495 28.2728 40.9092L28.2134 40.9262C27.6429 41.0901 27.0611 41.2121 26.4728 41.2913C25.2444 41.4583 23.9992 41.4583 22.7708 41.2913C22.1805 41.2127 21.5969 41.0907 21.0245 40.9262Z" fill="#333333"/>
<path d="M36.1059 2.33186C35.9968 3.83233 35.6234 5.01388 35.07 5.94328C34.9533 12.6717 32.4564 15.914 30.781 18.056L35.0439 16.7359C34.8564 17.5322 34.3469 18.7613 34.9455 20.171C35.4078 19.516 37.1926 18.5275 38.6249 19.2235C38.5019 20.2292 38.3552 21.2313 38.2142 22.2346L40.7514 22.4779C40.9876 23.5758 40.8978 25.1227 40.5817 25.7995L42.1528 26.3683C42.2115 27.1508 42.1811 27.9223 41.9416 28.8802C44.3344 28.3927 45.9642 27.6378 47.5005 25.1476C48.3111 23.8026 48.8879 22.1806 48.8394 20.2677C47.6616 21.659 46.1086 22.3192 44.5204 23.1288C46.362 19.9971 47.0294 16.6848 46.8233 14.4738C44.7443 17.3751 43.5263 18.1701 41.186 19.257C41.5365 16.0305 42.7497 13.9978 44.7128 11.5388C41.4885 11.1702 40.0991 11.9563 37.6679 13.3614C38.9547 9.38882 38.2965 5.81051 36.1058 2.33154L36.1059 2.33186ZM2.77666 10.4496C5.41951 11.4789 8.31861 13.0035 8.75674 15.6995C6.60058 15.7112 4.54049 14.7069 3.02771 13.6647C2.98252 15.9943 3.83295 17.1324 4.94476 19.0649C2.90337 19.5214 1.52467 20.4323 0 21.7481C2.06462 21.7036 3.48095 21.4509 4.78061 22.9593C3.06795 24.379 1.38711 26.0131 1.38711 28.4047C4.00709 26.6588 4.92354 26.7211 7.36945 27.7817C7.73473 25.4893 8.04809 23.5725 8.15822 23.1301C8.85783 22.9228 9.15581 22.8618 9.83433 22.764C9.22424 20.6616 10.1455 20.0702 10.5176 19.4809L12.6525 19.9071C11.546 18.1608 13.4043 16.374 14.6745 15.5173C13.4158 13.4772 13.0712 12.2461 12.5867 10.7633C9.41732 8.41569 5.82373 8.98755 2.77695 10.4493L2.77666 10.4496Z" fill="#62F1F1"/>
<path fill-rule="evenodd" clip-rule="evenodd" d="M16.5064 26.251C16.2305 26.2504 15.9606 26.3315 15.7307 26.4841C15.5007 26.6366 15.3211 26.8538 15.2143 27.1082C15.1076 27.3627 15.0785 27.643 15.1308 27.9139C15.183 28.1849 15.3143 28.4343 15.508 28.6307C15.7017 28.8272 15.9493 28.962 16.2194 29.0181C16.4896 29.0742 16.7703 29.0491 17.0262 28.9459C17.2822 28.8428 17.5018 28.6662 17.6576 28.4385C17.8134 28.2108 17.8983 27.942 17.9017 27.6661C17.9017 27.2942 17.7553 26.9373 17.4942 26.6724C17.2331 26.4076 16.8783 26.2562 16.5064 26.251ZM32.7015 26.251C32.425 26.2509 32.1546 26.3329 31.9247 26.4865C31.6947 26.6402 31.5155 26.8585 31.4097 27.114C31.3038 27.3695 31.2761 27.6506 31.33 27.9219C31.384 28.1931 31.5172 28.4422 31.7127 28.6378C31.9082 28.8333 32.1574 28.9665 32.4286 29.0204C32.6999 29.0744 32.981 29.0467 33.2365 28.9408C33.492 28.835 33.7103 28.6557 33.8639 28.4258C34.0176 28.1958 34.0995 27.9255 34.0995 27.649C34.0994 27.2782 33.9521 26.9227 33.69 26.6605C33.4278 26.3983 33.0723 26.251 32.7015 26.251Z" fill="#333333"/>
<path d="M16.324 23.1304C9.10564 23.1304 10.238 25.0708 10.3705 28.6766C10.5974 33.8053 15.3979 33.3505 16.3709 33.3858C20.5478 33.3742 22.1781 31.0574 22.8667 26.8955C23.3808 23.8583 20.2484 23.1669 16.324 23.1304ZM32.9088 23.1304C28.9843 23.1667 25.8512 23.8582 26.3655 26.8955C27.0541 31.0574 28.6845 33.3742 32.8612 33.3858C33.8343 33.3505 38.6347 33.8055 38.8617 28.6766C38.8617 23.309 38.7259 23.1304 32.9088 23.1304Z" fill="#4D4D4D"/>
<path fill-rule="evenodd" clip-rule="evenodd" d="M40.0024 23.3825C40.0035 23.3469 39.9913 23.3122 39.9684 23.285C39.9454 23.2579 39.9132 23.2402 39.8779 23.2353C37.759 22.9327 35.6219 22.7738 33.4815 22.7598C30.0852 22.7598 25.7068 23.824 24.9426 23.824H24.2633C23.9096 23.824 22.7661 23.5947 21.3057 23.3485C19.4639 23.004 17.5976 22.8071 15.7244 22.7598C13.8974 22.7705 12.0726 22.8877 10.2592 23.1107C9.81765 23.1617 9.49783 23.2098 9.32804 23.2353C9.29279 23.2401 9.26058 23.2579 9.23759 23.285C9.2146 23.3122 9.20246 23.3469 9.20349 23.3824L9.17774 25.208C9.17758 25.2389 9.1863 25.2692 9.20286 25.2953C9.21942 25.3214 9.24313 25.3422 9.27117 25.3552L9.48059 25.4231C9.78626 25.5419 9.76365 31.0412 11.3995 32.4167C12.3732 33.2261 13.242 33.6874 16.8959 33.6874C19.0101 33.6874 20.3403 33.1214 21.6026 31.4232C22.5111 30.2005 23.3291 27.3052 23.3291 27.3052C23.5612 26.1533 24.3961 26.0259 24.5829 26.0089H24.617C24.6484 26.0089 25.6529 26.0257 25.9105 27.3052C25.9105 27.3052 26.7199 30.1977 27.6284 31.4204C28.8907 33.1185 30.221 33.6846 32.3351 33.6846C35.989 33.6846 36.8636 33.2233 37.8315 32.4138C39.4702 31.0383 39.4447 25.5391 39.7504 25.4202L39.9599 25.3523C39.9879 25.3393 40.0116 25.3185 40.0281 25.2924C40.0447 25.2663 40.0534 25.236 40.0533 25.2051L40.0191 23.3796L40.0024 23.3825ZM21.6057 29.8921C21.0651 31.1657 19.6811 32.8044 17.7282 32.9035C11.8696 33.1865 11.6007 31.5619 11.2186 30.2656C10.8412 29.0606 10.7244 27.789 10.8762 26.5353C11.029 25.2391 11.3573 24.4778 11.946 24.0956C12.3141 23.8522 12.7375 23.7053 13.1772 23.6683C14.2482 23.547 15.3261 23.4979 16.4037 23.5211C17.2764 23.5192 18.1479 23.5854 19.0103 23.7192C21.0962 24.0588 22.5057 24.7664 22.5057 25.4627C22.4607 26.9801 22.1514 28.4781 21.5915 29.8892L21.6057 29.8921ZM38.0212 30.2657C37.642 31.5619 37.3731 33.1979 31.5116 32.9035C29.5559 32.8044 28.1691 31.1657 27.6313 29.8921C27.0738 28.4804 26.7654 26.9827 26.72 25.4656C26.72 24.5061 29.3889 23.5241 32.822 23.5241C36.2552 23.5241 36.7844 23.7788 37.2797 24.0901C37.8684 24.4722 38.1967 25.2222 38.3467 26.5298C38.5046 27.7815 38.3926 29.0524 38.0184 30.2573L38.0212 30.2657Z" fill="#333333"/>
<path d="M20.7661 0.000311347C17.9225 1.76685 17.2449 8.1079 17.3327 9.42199C15.3727 7.77313 15.097 5.53037 15.1337 3.98703C12.41 5.68966 12.1149 8.06856 12.5864 10.7635C12.8995 12.2186 13.2649 13.7243 14.6743 15.5175C14.6749 15.5173 14.6755 15.5167 14.676 15.5164C15.4612 16.3299 16.2226 17.0997 17.0387 17.8818C17.1552 15.9088 17.1673 14.0264 19.0724 13.4032C20.1912 14.2004 21.1702 15.084 22.2094 15.9797L25.1979 13.0787C26.7955 14.1997 26.7413 14.9368 27.0437 17.0705C27.653 16.5739 29.5114 14.5222 31.528 14.2009C31.8073 15.3687 31.2467 17.1183 30.7811 18.056C30.7811 18.056 34.8341 14.7032 35.0817 10.1394C35.1779 8.36771 35.145 6.98482 35.0701 5.94328C34.1609 7.51838 32.6044 8.42823 31.1675 8.816C29.9585 6.1984 30.466 2.74932 31.0315 0.520769C27.5757 1.37537 25.1072 5.71063 24.7562 7.61625C22.1332 5.5227 20.9056 3.0465 20.7661 0L20.7661 0.000311347Z" fill="#62F1F1"/>
</svg>
