<svg width="55" height="65" viewBox="0 0 55 65" fill="none" xmlns="http://www.w3.org/2000/svg">
<path fill-rule="evenodd" clip-rule="evenodd" d="M24.1908 46.0688H30.3327V53.6731C31.8831 53.8114 33.4222 54.0557 34.9392 54.4043L38.7764 61.0493C31.3637 63.8951 23.1598 63.8951 15.7471 61.0493L19.5843 54.4043C21.1011 54.0528 22.6402 53.8056 24.1908 53.6644V46.0601V46.0688Z" fill="#FAD2B9"/>
<path fill-rule="evenodd" clip-rule="evenodd" d="M27.2614 12.5073C30.9491 12.5073 34.5539 13.6008 37.6201 15.6496C40.6863 17.6984 43.0761 20.6103 44.4873 24.0173C45.8985 27.4243 46.2677 31.1732 45.5483 34.79C44.8289 38.4068 43.0531 41.7291 40.4455 44.3366C37.8379 46.9442 34.5157 48.72 30.8989 49.4394C27.2821 50.1588 23.5331 49.7896 20.1262 48.3784C16.7192 46.9672 13.8072 44.5774 11.7585 41.5112C9.70973 38.445 8.61621 34.8402 8.61621 31.1525C8.61621 26.2075 10.5806 21.465 14.0773 17.9684C17.5739 14.4717 22.3164 12.5073 27.2614 12.5073Z" fill="#FAD2B9"/>
<path fill-rule="evenodd" clip-rule="evenodd" d="M27.261 35.686C22.0813 35.8761 19.3642 38.4382 18.6008 42.6147C18.3084 44.2584 18.4751 44.6796 19.4081 44.7118C26.0648 44.934 25.9097 50.0377 27.261 50.2366C28.6122 50.0377 28.4572 44.934 35.1139 44.7118C36.0469 44.6796 36.2224 44.2584 35.9211 42.6147C35.1548 38.4382 32.4407 35.8878 27.261 35.686ZM27.261 44.2584C24.3362 44.2584 21.9965 42.7961 21.9965 40.9915C21.9965 39.1869 24.3596 37.7246 27.261 37.7246C30.1623 37.7246 32.5255 39.1869 32.5255 40.9915C32.5255 42.7961 30.1623 44.2584 27.261 44.2584Z" fill="#333333"/>
<path d="M29.6131 40.792C28.9834 41.4053 28.1392 41.7485 27.2602 41.7485C26.3812 41.7485 25.5369 41.4053 24.9072 40.792" stroke="#333333" stroke-width="1.99314" stroke-linecap="round" stroke-linejoin="round"/>
<path fill-rule="evenodd" clip-rule="evenodd" d="M20.3646 54.2314C22.8919 55.5573 25.2146 57.2408 27.2612 59.2298C29.3077 57.2408 31.6305 55.5573 34.1577 54.2314C34.418 54.287 34.6783 54.3426 34.9386 54.404C38.9053 55.3253 42.6712 56.9605 46.0526 59.2298C40.4932 62.9482 33.9553 64.9332 27.267 64.9332C20.5787 64.9332 14.0408 62.9482 8.48145 59.2298C11.8628 56.9605 15.6288 55.3253 19.5954 54.404C19.8528 54.3426 20.116 54.287 20.3763 54.2314H20.3646Z" fill="white"/>
<path fill-rule="evenodd" clip-rule="evenodd" d="M15.0211 55.8135C19.8733 58.2205 23.421 61.3441 25.0442 64.8597C19.1209 64.4796 13.4041 62.537 8.47559 59.2296C10.5255 57.8542 12.7206 56.7086 15.0211 55.8135Z" fill="#EE2829"/>
<path fill-rule="evenodd" clip-rule="evenodd" d="M11.2131 57.5776C14.8252 59.3149 17.6271 61.5085 19.2825 63.9857C15.4274 63.0519 11.7684 61.4418 8.47559 59.2301C9.35886 58.6452 10.2714 58.0943 11.2131 57.5776Z" fill="white"/>
<path fill-rule="evenodd" clip-rule="evenodd" d="M39.5006 55.8135C34.6455 58.2205 31.1008 61.3441 29.4775 64.8597C35.4008 64.4796 41.1176 62.537 46.0462 59.2296C43.9962 57.8542 41.8011 56.7086 39.5006 55.8135Z" fill="#EE2829"/>
<path fill-rule="evenodd" clip-rule="evenodd" d="M43.3096 57.5776C39.6975 59.3149 36.8956 61.5085 35.2402 63.9857C39.0954 63.0519 42.7543 61.4418 46.0471 59.2301C45.1639 58.6452 44.2513 58.0943 43.3096 57.5776Z" fill="white"/>
<path d="M32.3806 29.0087H36.525M18.0231 29.0087H22.144M16.0928 26.3969C17.213 25.4631 18.6252 24.9517 20.0836 24.9517C21.542 24.9517 22.9542 25.4631 24.0744 26.3969M30.4503 26.3969C31.5705 25.4631 32.9827 24.9517 34.4411 24.9517C35.8995 24.9517 37.3117 25.4631 38.4319 26.3969" stroke="#333333" stroke-width="1.41409" stroke-linecap="round" stroke-linejoin="round"/>
<path d="M27.2613 12.5073C15.942 14.0604 11.4048 17.783 9.75293 22.7734" stroke="#333333" stroke-width="3.51742" stroke-linecap="round" stroke-linejoin="round"/>
<path d="M27.2627 12.5073C24.9699 13.5701 25.6256 17.3574 23.0684 19.3664" stroke="#333333" stroke-width="3.51742" stroke-linecap="round" stroke-linejoin="round"/>
<path d="M26.0485 11.59C19.4286 9.56669 13.6309 10.6545 9.74805 12.3243" stroke="#333333" stroke-width="3.51742" stroke-linecap="round" stroke-linejoin="round"/>
<path d="M27.2525 13.1678C27.31 11.1856 27.2105 5.47312 27.2671 2" stroke="#333333" stroke-width="3.51742" stroke-linecap="round" stroke-linejoin="round"/>
<path d="M13.625 5.61276C23.6027 4.62362 25.9051 9.5088 26.836 11.3458" stroke="#333333" stroke-width="3.51742" stroke-linecap="round" stroke-linejoin="round"/>
<path d="M27.5518 11.6123C28.3963 9.76914 30.5812 5.31884 40.2653 5.08252" stroke="#333333" stroke-width="3.51742" stroke-linecap="round" stroke-linejoin="round"/>
<path d="M27.6768 12.5122C28.1182 14.3838 28.7001 17.0733 30.6272 19.2561" stroke="#333333" stroke-width="3.51742" stroke-linecap="round" stroke-linejoin="round"/>
<path d="M26.7666 12.4434C33.2098 10.1424 40.4277 10.2904 44.1524 11.8449" stroke="#333333" stroke-width="3.51742" stroke-linecap="round" stroke-linejoin="round"/>
<path d="M26.9775 12.6621C37.5727 14.083 42.3072 17.6611 44.3426 22.4152" stroke="#333333" stroke-width="3.51742" stroke-linecap="round" stroke-linejoin="round"/>
<path d="M9.75309 22.7739C8.54771 26.4158 8.87926 30.733 9.23336 35.3748" stroke="#333333" stroke-width="3.51742" stroke-linecap="round" stroke-linejoin="round"/>
<path d="M9.74638 12.3242C5.8208 13.9334 3.33887 17.1234 2.51878 20.7398C1.98291 23.2151 1.93942 26.05 2.04801 29.0712" stroke="#333333" stroke-width="3.51742" stroke-linecap="round" stroke-linejoin="round"/>
<path d="M44.1553 11.8452C51.4428 14.8866 51.9664 22.5313 52.1132 29.2825" stroke="#333333" stroke-width="3.51742" stroke-linecap="round" stroke-linejoin="round"/>
<path d="M44.3428 22.415C45.9234 26.1075 45.8757 30.5092 45.6807 35.161" stroke="#333333" stroke-width="3.51742" stroke-linecap="round" stroke-linejoin="round"/>
<path d="M9.23322 35.373C9.61139 40.3308 10.0152 45.659 8.59961 50.9306" stroke="#333333" stroke-width="3.51742" stroke-linecap="round" stroke-linejoin="round"/>
<path d="M2.04883 29.0703C2.22937 34.0941 2.83038 39.6342 2.28743 44.8955" stroke="#333333" stroke-width="3.51742" stroke-linecap="round" stroke-linejoin="round"/>
<path d="M52.1131 29.2832C52.218 34.7024 51.7402 40.0872 52.6755 43.61" stroke="#333333" stroke-width="3.51742" stroke-linecap="round" stroke-linejoin="round"/>
<path d="M45.6819 35.1597C45.469 40.2376 45.0804 45.6135 46.4426 50.6897" stroke="#333333" stroke-width="3.51742" stroke-linecap="round" stroke-linejoin="round"/>
</svg>
