<svg width="55" height="64" viewBox="0 0 55 64" fill="none" xmlns="http://www.w3.org/2000/svg">
<path fill-rule="evenodd" clip-rule="evenodd" d="M24.3851 44.8704H30.4006V52.3182C31.919 52.4536 33.4264 52.6928 34.9122 53.0343L38.6704 59.5424C31.4103 62.3296 23.3753 62.3296 16.1152 59.5424L19.8735 53.0343C21.359 52.69 22.8664 52.4478 24.3851 52.3095V44.8618V44.8704Z" fill="#FAD2B9"/>
<path fill-rule="evenodd" clip-rule="evenodd" d="M27.3931 12C31.0048 12 34.5355 13.071 37.5385 15.0776C40.5416 17.0842 42.8822 19.9362 44.2643 23.273C45.6465 26.6098 46.0081 30.2815 45.3035 33.8239C44.5989 37.3662 42.8597 40.6201 40.3058 43.1739C37.7519 45.7278 34.498 47.467 30.9557 48.1716C27.4134 48.8763 23.7416 48.5146 20.4048 47.1325C17.068 45.7503 14.216 43.4097 12.2094 40.4067C10.2028 37.4036 9.13184 33.873 9.13184 30.2613C9.13184 25.4181 11.0558 20.7733 14.4804 17.3486C17.9051 13.9239 22.5499 12 27.3931 12Z" fill="#FAD2B9"/>
<path fill-rule="evenodd" clip-rule="evenodd" d="M34.9124 53.0337C38.7974 53.936 42.4858 55.5375 45.7975 57.7601C40.3526 61.402 33.9494 63.346 27.3988 63.346C20.8482 63.346 14.4449 61.402 9 57.7601C12.3117 55.5375 16.0001 53.936 19.8851 53.0337L24.3853 57.5453H30.4008L34.9124 53.0337Z" fill="#1F9EE4"/>
<path fill-rule="evenodd" clip-rule="evenodd" d="M27.3776 57.7143L24.3555 60.7335C24.2887 60.8007 24.2093 60.854 24.1218 60.8904C24.0343 60.9268 23.9404 60.9455 23.8457 60.9455C23.7509 60.9455 23.6571 60.9268 23.5696 60.8904C23.4821 60.854 23.4026 60.8007 23.3358 60.7335C23.307 60.7066 23.2811 60.6768 23.2585 60.6447L17.9648 53.3688L19.6521 51.6816C19.7839 51.547 19.9632 51.4693 20.1516 51.465C20.34 51.4608 20.5226 51.5304 20.6603 51.659L27.3891 57.7146L27.3776 57.7143Z" fill="#A0D2F0"/>
<path fill-rule="evenodd" clip-rule="evenodd" d="M27.3789 57.7147L30.401 60.7339C30.4678 60.8011 30.5472 60.8544 30.6347 60.8908C30.7222 60.9272 30.8161 60.946 30.9108 60.946C31.0056 60.946 31.0994 60.9272 31.1869 60.8908C31.2744 60.8544 31.3539 60.8011 31.4207 60.7339C31.4495 60.7071 31.4754 60.6773 31.498 60.6451L36.7917 53.3693L35.1044 51.6821C34.9736 51.5513 34.7975 51.4757 34.6125 51.4709C34.4276 51.4662 34.2479 51.5327 34.1105 51.6566L27.3817 57.7122L27.3789 57.7147Z" fill="#A0D2F0"/>
<path fill-rule="evenodd" clip-rule="evenodd" d="M39.6842 54.3461L36.7881 53.418V61.9915C37.7736 61.6993 38.7389 61.3641 39.6842 60.986V54.3461ZM17.9654 61.9829V53.418L15.0723 54.3461V60.9746C16.0147 61.3527 16.9829 61.6907 17.9654 61.9829Z" fill="#262C5F"/>
<path d="M18.4268 29.8574L20.5981 27.686L22.7694 29.8574M32.0159 29.8574L34.1873 27.686L36.3586 29.8574H32.0159Z" stroke="#333333" stroke-width="1.86188" stroke-linecap="round" stroke-linejoin="round"/>
<path d="M28.1234 39.6796C27.6919 39.8491 27.38 40.26 27.3731 40.8215C27.3567 41.2218 27.5261 41.8415 28.4261 42.4814C30.7332 43.8978 34.5868 43.5373 34.5146 40.4288C33.1786 41.81 31.644 42.0437 30.2828 40.6405C29.9297 40.3082 29.6041 39.9521 29.1573 39.7408C28.8437 39.5963 28.5197 39.5658 28.1233 39.6797L28.1234 39.6796Z" fill="#333333"/>
<path d="M32.5807 41.5557C33.461 41.4158 34.1763 40.7405 34.1401 40.265C34.0031 38.8811 32.4982 39.3793 32.8978 40.175C32.0927 39.7612 32.3723 39.0618 33.0422 38.8194C33.6297 38.5904 34.5013 38.9177 34.8183 39.5749C35.455 41.6781 33.8336 42.9207 31.8438 43.173L32.5807 41.5557Z" fill="#333333"/>
<path d="M26.6217 39.6796C27.0532 39.8491 27.365 40.26 27.372 40.8215C27.3884 41.2218 27.2189 41.8415 26.319 42.4814C24.0118 43.8978 20.1583 43.5373 20.2305 40.4288C21.5665 41.81 23.101 42.0437 24.4622 40.6405C24.8154 40.3082 25.141 39.9521 25.5878 39.7408C25.9014 39.5963 26.2254 39.5658 26.6218 39.6797L26.6217 39.6796Z" fill="#333333"/>
<path d="M22.1652 41.5557C21.2849 41.4158 20.5696 40.7405 20.6058 40.265C20.7427 38.8811 22.2476 39.3793 21.8481 40.175C22.6531 39.7612 22.3735 39.0618 21.7037 38.8194C21.1162 38.5904 20.2446 38.9177 19.9276 39.5749C19.2908 41.6781 20.9123 42.9207 22.9021 43.173L22.1652 41.5557Z" fill="#333333"/>
<path d="M27.2613 12.5073C15.942 14.0604 11.4048 17.783 9.75293 22.7734" stroke="#333333" stroke-width="3.51742" stroke-linecap="round" stroke-linejoin="round"/>
<path d="M27.2627 12.5073C24.9699 13.5701 25.6256 17.3574 23.0684 19.3664" stroke="#333333" stroke-width="3.51742" stroke-linecap="round" stroke-linejoin="round"/>
<path d="M26.0485 11.59C19.4286 9.56669 13.6309 10.6545 9.74805 12.3243" stroke="#333333" stroke-width="3.51742" stroke-linecap="round" stroke-linejoin="round"/>
<path d="M27.2525 13.1678C27.31 11.1856 27.2105 5.47312 27.2671 2" stroke="#333333" stroke-width="3.51742" stroke-linecap="round" stroke-linejoin="round"/>
<path d="M13.625 5.61276C23.6027 4.62362 25.9051 9.5088 26.836 11.3458" stroke="#333333" stroke-width="3.51742" stroke-linecap="round" stroke-linejoin="round"/>
<path d="M27.5518 11.6123C28.3963 9.76914 30.5812 5.31884 40.2653 5.08252" stroke="#333333" stroke-width="3.51742" stroke-linecap="round" stroke-linejoin="round"/>
<path d="M27.6768 12.5122C28.1182 14.3838 28.7001 17.0733 30.6272 19.2561" stroke="#333333" stroke-width="3.51742" stroke-linecap="round" stroke-linejoin="round"/>
<path d="M26.7666 12.4434C33.2098 10.1424 40.4277 10.2904 44.1524 11.8449" stroke="#333333" stroke-width="3.51742" stroke-linecap="round" stroke-linejoin="round"/>
<path d="M26.9775 12.6621C37.5727 14.083 42.3072 17.6611 44.3426 22.4152" stroke="#333333" stroke-width="3.51742" stroke-linecap="round" stroke-linejoin="round"/>
<path d="M9.75309 22.7739C8.54771 26.4158 8.87926 30.733 9.23336 35.3748" stroke="#333333" stroke-width="3.51742" stroke-linecap="round" stroke-linejoin="round"/>
<path d="M9.74638 12.3242C5.8208 13.9334 3.33887 17.1234 2.51878 20.7398C1.98291 23.2151 1.93942 26.05 2.04801 29.0712" stroke="#333333" stroke-width="3.51742" stroke-linecap="round" stroke-linejoin="round"/>
<path d="M44.1553 11.8452C51.4428 14.8866 51.9664 22.5313 52.1132 29.2825" stroke="#333333" stroke-width="3.51742" stroke-linecap="round" stroke-linejoin="round"/>
<path d="M44.3428 22.415C45.9234 26.1075 45.8757 30.5092 45.6807 35.161" stroke="#333333" stroke-width="3.51742" stroke-linecap="round" stroke-linejoin="round"/>
<path d="M9.23322 35.373C9.61139 40.3308 10.0152 45.659 8.59961 50.9306" stroke="#333333" stroke-width="3.51742" stroke-linecap="round" stroke-linejoin="round"/>
<path d="M2.04883 29.0703C2.22937 34.0941 2.83038 39.6342 2.28743 44.8955" stroke="#333333" stroke-width="3.51742" stroke-linecap="round" stroke-linejoin="round"/>
<path d="M52.1131 29.2832C52.218 34.7024 51.7402 40.0872 52.6755 43.61" stroke="#333333" stroke-width="3.51742" stroke-linecap="round" stroke-linejoin="round"/>
<path d="M45.6819 35.1597C45.469 40.2376 45.0804 45.6135 46.4426 50.6897" stroke="#333333" stroke-width="3.51742" stroke-linecap="round" stroke-linejoin="round"/>
</svg>
