<svg width="39" height="54" viewBox="0 0 39 54" fill="none" xmlns="http://www.w3.org/2000/svg">
<path fill-rule="evenodd" clip-rule="evenodd" d="M15.9845 34.1506H22.2343V41.8884C23.8119 42.0291 25.3781 42.2776 26.9217 42.6324L30.8263 49.3941C23.2834 52.2898 14.9355 52.2898 7.39258 49.3941L11.2972 42.6324C12.8406 42.2747 14.4067 42.0231 15.9845 41.8794V34.1416V34.1506Z" fill="#FAD2B9"/>
<path fill-rule="evenodd" clip-rule="evenodd" d="M19.1093 0C22.8617 0 26.5299 1.11272 29.6499 3.19745C32.7699 5.28219 35.2017 8.2453 36.6377 11.7121C38.0736 15.1789 38.4494 18.9936 37.7173 22.6739C36.9852 26.3543 35.1783 29.7348 32.5249 32.3882C29.8716 35.0416 26.491 36.8485 22.8107 37.5806C19.1303 38.3126 15.3156 37.9369 11.8488 36.5009C8.38202 35.0649 5.41891 32.6332 3.33417 29.5132C1.24944 26.3931 0.136719 22.725 0.136719 18.9726C0.136719 13.9407 2.13561 9.11498 5.69366 5.55694C9.2517 1.99889 14.0774 0 19.1093 0Z" fill="#FAD2B9"/>
<path fill-rule="evenodd" clip-rule="evenodd" d="M26.9217 42.6318C30.958 43.5693 34.7901 45.2332 38.2308 47.5424C32.5738 51.3261 25.9212 53.3459 19.1154 53.3459C12.3097 53.3459 5.65701 51.3261 0 47.5424C3.4407 45.2332 7.27281 43.5693 11.3091 42.6318L15.9846 47.3192H22.2344L26.9217 42.6318Z" fill="#1F9EE4"/>
<path fill-rule="evenodd" clip-rule="evenodd" d="M19.0938 47.4948L15.9541 50.6316C15.8847 50.7014 15.8021 50.7568 15.7112 50.7946C15.6203 50.8324 15.5228 50.8519 15.4243 50.8519C15.3259 50.8519 15.2284 50.8324 15.1375 50.7946C15.0466 50.7568 14.964 50.7014 14.8946 50.6316C14.8647 50.6037 14.8378 50.5728 14.8143 50.5393L9.31445 42.9801L11.0674 41.2272C11.2044 41.0873 11.3906 41.0065 11.5864 41.0021C11.7821 40.9977 11.9718 41.0701 12.115 41.2037L19.1058 47.4951L19.0938 47.4948Z" fill="#A0D2F0"/>
<path fill-rule="evenodd" clip-rule="evenodd" d="M19.0947 47.4955L22.2345 50.6323C22.3039 50.7021 22.3865 50.7576 22.4774 50.7954C22.5683 50.8332 22.6658 50.8526 22.7642 50.8526C22.8627 50.8526 22.9602 50.8332 23.0511 50.7954C23.142 50.7576 23.2245 50.7021 23.294 50.6323C23.3238 50.6044 23.3508 50.5735 23.3743 50.5401L28.8741 42.9808L27.1212 41.2279C26.9852 41.092 26.8023 41.0135 26.6101 41.0085C26.418 41.0036 26.2312 41.0727 26.0885 41.2014L19.0977 47.4929L19.0947 47.4955Z" fill="#A0D2F0"/>
<path fill-rule="evenodd" clip-rule="evenodd" d="M31.8792 43.9955L28.8703 43.0312V51.9387C29.8941 51.6351 30.8971 51.2869 31.8792 50.8941V43.9955ZM9.31444 51.9298V43.0313L6.30859 43.9956V50.8822C7.28776 51.275 8.29364 51.6262 9.31444 51.9298Z" fill="#262C5F"/>
<path d="M9.79395 18.5528L12.0498 16.2969L14.3057 18.5528M23.9125 18.5528L26.1684 16.2969L28.4243 18.5528H23.9125Z" stroke="#333333" stroke-width="1.86188" stroke-linecap="round" stroke-linejoin="round"/>
<path d="M19.8684 28.758C19.4201 28.9341 19.0962 29.361 19.089 29.9443C19.0719 30.3603 19.248 31.0041 20.1829 31.6689C22.58 33.1405 26.5836 32.766 26.5086 29.5363C25.1206 30.9714 23.5263 31.2142 22.112 29.7563C21.7451 29.4111 21.4069 29.0411 20.9426 28.8216C20.6168 28.6715 20.2802 28.6398 19.8684 28.758L19.8684 28.758Z" fill="#333333"/>
<path d="M24.499 30.7071C25.4136 30.5618 26.1568 29.8602 26.1192 29.3661C25.9769 27.9283 24.4134 28.446 24.8285 29.2726C23.9921 28.8427 24.2826 28.1161 24.9785 27.8642C25.5889 27.6263 26.4945 27.9663 26.8238 28.6492C27.4853 30.8343 25.8007 32.1253 23.7334 32.3875L24.499 30.7071Z" fill="#333333"/>
<path d="M6.18962 9.45904C4.11335 9.79079 2.21445 10.309 0.702004 10.753C0.34901 12.9597 0.105656 16.3653 0.13875 18.578C1.42674 18.3911 3.16097 18.1719 4.09546 18.088C3.97477 18.1778 4.90924 12.7825 6.18976 9.4591L6.18962 9.45904ZM32.0292 9.45904C33.3098 12.7824 34.2442 18.1778 34.1235 18.0879C35.0579 18.1719 36.7922 18.391 38.0802 18.5779C38.1133 16.3652 37.87 12.9597 37.517 10.7529C36.0045 10.309 34.1055 9.79076 32.0294 9.45898L32.0292 9.45904Z" fill="#1A1A1A"/>
<path d="M18.3082 28.758C18.7565 28.9341 19.0805 29.361 19.0877 29.9443C19.1047 30.3603 18.9287 31.0041 17.9937 31.6689C15.5966 33.1405 11.593 32.766 11.668 29.5363C13.0561 30.9714 14.6504 31.2142 16.0646 29.7563C16.4315 29.4111 16.7698 29.0411 17.234 28.8216C17.5598 28.6715 17.8964 28.6398 18.3083 28.758L18.3082 28.758Z" fill="#333333"/>
<path d="M13.6777 30.7071C12.7631 30.5618 12.02 29.8602 12.0576 29.3661C12.1999 27.9283 13.7634 28.446 13.3483 29.2726C14.1847 28.8427 13.8942 28.1161 13.1982 27.8642C12.5879 27.6263 11.6823 27.9663 11.353 28.6492C10.6914 30.8343 12.3761 32.1253 14.4434 32.3875L13.6777 30.7071Z" fill="#333333"/>
</svg>
