<svg width="95" height="16" viewBox="0 0 95 16" fill="none" xmlns="http://www.w3.org/2000/svg">
<path fill-rule="evenodd" clip-rule="evenodd" d="M88.5366 0.561846C87.6491 -0.187282 86.3509 -0.187282 85.4634 0.561846L84.5124 1.36448C84.3866 1.47073 84.2311 1.53509 84.0671 1.54905L82.8269 1.65374C81.6698 1.75184 80.7516 2.66964 80.6539 3.82706L80.549 5.06708C80.5405 5.16751 80.513 5.26483 80.4684 5.3544C80.4403 5.41062 80.4056 5.46375 80.3645 5.51221L79.5618 6.46336C78.8127 7.35091 78.8127 8.64909 79.5618 9.53664L80.3645 10.4878C80.4707 10.6134 80.5351 10.7689 80.549 10.9329L80.6539 12.1729C80.7516 13.3304 81.6698 14.2482 82.8269 14.3463L84.0671 14.4509C84.2311 14.4649 84.3866 14.5293 84.5124 14.6355L85.4634 15.4382C86.3509 16.1873 87.6491 16.1873 88.5366 15.4382L89.4876 14.6355C89.6134 14.5293 89.7689 14.4649 89.9329 14.4509L91.1731 14.3463C92.3304 14.2482 93.2484 13.3304 93.3461 12.1729L93.4509 10.9329C93.4649 10.7689 93.5293 10.6134 93.6355 10.4878L94.4382 9.53664C95.1873 8.64909 95.1873 7.35091 94.4382 6.46336L93.6355 5.51221C93.5293 5.38658 93.4649 5.2311 93.4509 5.06708L93.3461 3.82706C93.2484 2.66964 92.3304 1.75184 91.1731 1.65374L89.9329 1.54905C89.7689 1.53509 89.6134 1.47073 89.4876 1.36448L88.5366 0.561846ZM90.6819 6.52036C90.961 6.24118 90.961 5.78868 90.6819 5.5095C90.4027 5.23032 89.9502 5.23032 89.6712 5.5095L86.2059 8.9748L84.329 7.09771C84.0498 6.81853 83.5973 6.81853 83.3183 7.09771C83.0392 7.37689 83.0392 7.82939 83.3183 8.10857L85.7007 10.4909C85.9796 10.7697 86.4321 10.7697 86.7113 10.4909L90.6819 6.52036Z" fill="white"/>
<path fill-rule="evenodd" clip-rule="evenodd" d="M88.5366 0.561846C87.6491 -0.187282 86.3509 -0.187282 85.4634 0.561846L84.5124 1.36448C84.3866 1.47073 84.2311 1.53509 84.0671 1.54905L82.8269 1.65374C81.6698 1.75184 80.7516 2.66964 80.6539 3.82706L80.549 5.06708C80.5405 5.16751 80.513 5.26483 80.4684 5.3544C80.4403 5.41062 80.4056 5.46375 80.3645 5.51221L79.5618 6.46336C78.8127 7.35091 78.8127 8.64909 79.5618 9.53664L80.3645 10.4878C80.4707 10.6134 80.5351 10.7689 80.549 10.9329L80.6539 12.1729C80.7516 13.3304 81.6698 14.2482 82.8269 14.3463L84.0671 14.4509C84.2311 14.4649 84.3866 14.5293 84.5124 14.6355L85.4634 15.4382C86.3509 16.1873 87.6491 16.1873 88.5366 15.4382L89.4876 14.6355C89.6134 14.5293 89.7689 14.4649 89.9329 14.4509L91.1731 14.3463C92.3304 14.2482 93.2484 13.3304 93.3461 12.1729L93.4509 10.9329C93.4649 10.7689 93.5293 10.6134 93.6355 10.4878L94.4382 9.53664C95.1873 8.64909 95.1873 7.35091 94.4382 6.46336L93.6355 5.51221C93.5293 5.38658 93.4649 5.2311 93.4509 5.06708L93.3461 3.82706C93.2484 2.66964 92.3304 1.75184 91.1731 1.65374L89.9329 1.54905C89.7689 1.53509 89.6134 1.47073 89.4876 1.36448L88.5366 0.561846ZM90.6819 6.52036C90.961 6.24118 90.961 5.78868 90.6819 5.5095C90.4027 5.23032 89.9502 5.23032 89.6712 5.5095L86.2059 8.9748L84.329 7.09771C84.0498 6.81853 83.5973 6.81853 83.3183 7.09771C83.0392 7.37689 83.0392 7.82939 83.3183 8.10857L85.7007 10.4909C85.9796 10.7697 86.4321 10.7697 86.7113 10.4909L90.6819 6.52036Z" fill="url(#paint0_linear)"/>
<path d="M5.98643 7.4385H11.5897C11.6217 7.56685 11.6483 7.72193 11.6695 7.90374C11.6908 8.08556 11.7015 8.26738 11.7015 8.4492C11.7015 9.18717 11.5897 9.88235 11.3662 10.5348C11.1427 11.1872 10.7915 11.7701 10.3126 12.2834C9.80178 12.8289 9.18983 13.2513 8.47678 13.5508C7.76373 13.8503 6.94958 14 6.03432 14C5.2042 14 4.42198 13.8503 3.68764 13.5508C2.95331 13.2513 2.31475 12.8342 1.77198 12.2995C1.22921 11.7647 0.798191 11.1337 0.478914 10.4064C0.159638 9.66845 0 8.86631 0 8C0 7.13369 0.159638 6.3369 0.478914 5.60963C0.798191 4.87166 1.22921 4.23529 1.77198 3.70053C2.31475 3.16577 2.95331 2.74866 3.68764 2.4492C4.42198 2.14973 5.2042 2 6.03432 2C6.96022 2 7.78502 2.16043 8.50871 2.48128C9.24305 2.80214 9.87096 3.24599 10.3924 3.81283L8.90781 5.27273C8.53532 4.87701 8.12026 4.57754 7.66263 4.37433C7.205 4.16043 6.65691 4.05348 6.01836 4.05348C5.49687 4.05348 5.00199 4.14973 4.53372 4.34225C4.06545 4.52406 3.65571 4.7861 3.30451 5.12834C2.95331 5.47059 2.67128 5.8877 2.45843 6.37968C2.25622 6.86096 2.15511 7.40107 2.15511 8C2.15511 8.59893 2.25622 9.14438 2.45843 9.63636C2.67128 10.1176 2.95331 10.5294 3.30451 10.8717C3.66636 11.2139 4.08141 11.4813 4.54969 11.6738C5.01796 11.8556 5.51816 11.9465 6.05028 11.9465C6.65691 11.9465 7.16775 11.861 7.58281 11.6898C8.00851 11.508 8.37036 11.2781 8.66835 11C8.8812 10.8075 9.06213 10.5668 9.21112 10.2781C9.37076 9.97861 9.49315 9.64706 9.57829 9.28342H5.98643V7.4385Z" fill="url(#paint1_linear)"/>
<path d="M16.6631 2.25669H19.1215L23.4158 13.7433H21.0372L20.0953 11H15.6893L14.7474 13.7433H12.3688L16.6631 2.25669ZM19.3929 9.0107L18.3712 6.13904L17.9562 4.74332H17.8285L17.4134 6.13904L16.3917 9.0107H19.3929Z" fill="url(#paint2_linear)"/>
<path d="M24.7539 2.25669H26.8771L30.3731 8.3369H30.5009L33.9969 2.25669H36.1361V13.7433H33.9969V8.08021L34.1246 6.15508H33.9969L31.0915 11.3048H29.7984L26.8771 6.15508H26.7494L26.8771 8.08021V13.7433H24.7539V2.25669Z" fill="url(#paint3_linear)"/>
<path d="M38.4416 4.31016V6.97326H45.1783L43.4679 9.02674H38.4416V11.6898H45.6892L43.9788 13.7433H38.4416V2.25669H45.6892L43.9788 4.31016H38.4416Z" fill="url(#paint4_linear)"/>
<path d="M47.6707 2.25669H51.8372C52.4119 2.25669 52.9334 2.34759 53.4017 2.52941C53.87 2.71123 54.2691 2.96257 54.599 3.28342C54.9395 3.60428 55.2003 3.9893 55.3812 4.4385C55.5621 4.87701 55.6526 5.35829 55.6526 5.88235C55.6526 6.26738 55.5887 6.63102 55.461 6.97326C55.3333 7.30481 55.1577 7.60963 54.9342 7.8877C54.7107 8.15508 54.45 8.39572 54.152 8.60963C53.854 8.81283 53.54 8.97326 53.2101 9.09091L53.1942 9.20321L56.2592 13.615V13.7433H53.7848L50.8315 9.42781H49.8258V13.7433H47.6707V2.25669ZM51.8213 7.4385C52.3108 7.4385 52.7099 7.28877 53.0186 6.98931C53.3378 6.68984 53.4975 6.31016 53.4975 5.85027C53.4975 5.64706 53.4602 5.4492 53.3857 5.25668C53.3219 5.06417 53.2208 4.89305 53.0824 4.74332C52.9441 4.59358 52.7685 4.47594 52.5556 4.39037C52.3534 4.29412 52.1193 4.24599 51.8532 4.24599H49.8258V7.4385H51.8213Z" fill="url(#paint5_linear)"/>
<path d="M61.0662 14C60.5766 14 60.1084 13.9305 59.6614 13.7914C59.2144 13.6524 58.8047 13.4439 58.4322 13.1658C58.0597 12.8877 57.7351 12.5508 57.4584 12.1551C57.1817 11.7487 56.9635 11.2781 56.8039 10.7433L58.8313 9.94118C58.9803 10.5187 59.241 11 59.6135 11.385C59.986 11.7594 60.4755 11.9465 61.0822 11.9465C61.3057 11.9465 61.5185 11.9198 61.7207 11.8663C61.9336 11.8021 62.1198 11.7166 62.2794 11.6096C62.4497 11.492 62.5828 11.3476 62.6785 11.1765C62.7743 11.0053 62.8222 10.8075 62.8222 10.5829C62.8222 10.369 62.785 10.1765 62.7105 10.0053C62.636 9.83423 62.5083 9.6738 62.3273 9.52406C62.1571 9.37433 61.9282 9.22995 61.6409 9.09091C61.3642 8.95187 61.0183 8.80749 60.6032 8.65775L59.9008 8.40107C59.5922 8.29412 59.2782 8.14973 58.959 7.96792C58.6503 7.7861 58.3683 7.56685 58.1129 7.31016C57.8575 7.05348 57.6446 6.75401 57.4743 6.41177C57.3147 6.05882 57.2349 5.6631 57.2349 5.2246C57.2349 4.7754 57.32 4.35829 57.4903 3.97326C57.6712 3.57754 57.9213 3.23529 58.2406 2.94652C58.5705 2.64706 58.959 2.41711 59.406 2.25669C59.8636 2.08556 60.3691 2 60.9225 2C61.4972 2 61.9921 2.08021 62.4072 2.24064C62.8329 2.39037 63.1894 2.58824 63.4767 2.83423C63.7747 3.06952 64.0142 3.33155 64.1951 3.62032C64.376 3.90909 64.5091 4.18182 64.5942 4.4385L62.6945 5.24064C62.5881 4.91979 62.3912 4.63102 62.1038 4.37433C61.8271 4.11765 61.444 3.9893 60.9544 3.9893C60.4862 3.9893 60.0977 4.1016 59.7891 4.3262C59.4805 4.54011 59.3261 4.82353 59.3261 5.17647C59.3261 5.51872 59.4751 5.81283 59.7731 6.05882C60.0711 6.29412 60.5447 6.52406 61.1939 6.74866L61.9123 6.98931C62.3699 7.14973 62.785 7.3369 63.1575 7.5508C63.5406 7.75401 63.8652 8 64.1312 8.28877C64.408 8.57754 64.6155 8.90909 64.7538 9.28342C64.9028 9.64706 64.9773 10.0695 64.9773 10.5508C64.9773 11.1497 64.8549 11.6684 64.6102 12.107C64.376 12.5348 64.0727 12.8877 63.7002 13.1658C63.3277 13.4439 62.9074 13.6524 62.4391 13.7914C61.9708 13.9305 61.5132 14 61.0662 14Z" fill="url(#paint6_linear)"/>
<path d="M66.7524 4.31016V7.04398L73.4892 6.97326L71.7788 9.02674H66.7524V11.6898H74L72.2896 13.7433H66.7524V2.25669H74L72.2896 4.31016H66.7524Z" fill="url(#paint7_linear)"/>
<defs>
<linearGradient id="paint0_linear" x1="95" y1="9.53674e-07" x2="79" y2="16" gradientUnits="userSpaceOnUse">
<stop stop-color="#044CD7"/>
<stop offset="1" stop-color="#B11CC9"/>
</linearGradient>
<linearGradient id="paint1_linear" x1="74" y1="2" x2="70.2078" y2="25.385" gradientUnits="userSpaceOnUse">
<stop stop-color="#044CD7"/>
<stop offset="1" stop-color="#B11CC9"/>
</linearGradient>
<linearGradient id="paint2_linear" x1="74" y1="2" x2="70.2078" y2="25.385" gradientUnits="userSpaceOnUse">
<stop stop-color="#044CD7"/>
<stop offset="1" stop-color="#B11CC9"/>
</linearGradient>
<linearGradient id="paint3_linear" x1="74" y1="2" x2="70.2078" y2="25.385" gradientUnits="userSpaceOnUse">
<stop stop-color="#044CD7"/>
<stop offset="1" stop-color="#B11CC9"/>
</linearGradient>
<linearGradient id="paint4_linear" x1="74" y1="2" x2="70.2078" y2="25.385" gradientUnits="userSpaceOnUse">
<stop stop-color="#044CD7"/>
<stop offset="1" stop-color="#B11CC9"/>
</linearGradient>
<linearGradient id="paint5_linear" x1="74" y1="2" x2="70.2078" y2="25.385" gradientUnits="userSpaceOnUse">
<stop stop-color="#044CD7"/>
<stop offset="1" stop-color="#B11CC9"/>
</linearGradient>
<linearGradient id="paint6_linear" x1="74" y1="2" x2="70.2078" y2="25.385" gradientUnits="userSpaceOnUse">
<stop stop-color="#044CD7"/>
<stop offset="1" stop-color="#B11CC9"/>
</linearGradient>
<linearGradient id="paint7_linear" x1="74" y1="2" x2="70.2078" y2="25.385" gradientUnits="userSpaceOnUse">
<stop stop-color="#044CD7"/>
<stop offset="1" stop-color="#B11CC9"/>
</linearGradient>
</defs>
</svg>
