<svg width="214" height="36" viewBox="0 0 214 36" fill="none" xmlns="http://www.w3.org/2000/svg">
<path d="M17.2927 16.3325H33.4788C33.571 16.7015 33.6478 17.1472 33.7093 17.6699C33.7708 18.1925 33.8016 18.7151 33.8016 19.2377C33.8016 21.359 33.4788 23.3572 32.8332 25.2325C32.1876 27.1078 31.1731 28.7833 29.7896 30.259C28.314 31.8268 26.5463 33.0412 24.4865 33.902C22.4268 34.7628 20.075 35.1932 17.4311 35.1932C15.0332 35.1932 12.7736 34.7628 10.6523 33.902C8.53109 33.0412 6.68653 31.8422 5.11865 30.3051C3.55078 28.768 2.3057 26.9541 1.38342 24.8636C0.46114 22.7424 0 20.4367 0 17.9465C0 15.4564 0.46114 13.1661 1.38342 11.0756C2.3057 8.95431 3.55078 7.12512 5.11865 5.58799C6.68653 4.05085 8.53109 2.85189 10.6523 1.9911C12.7736 1.1303 15.0332 0.699905 17.4311 0.699905C20.1057 0.699905 22.4883 1.16105 24.5788 2.08333C26.7 3.0056 28.5138 4.28142 30.0202 5.91079L25.7316 10.1072C24.6556 8.96968 23.4567 8.10889 22.1347 7.52478C20.8128 6.90992 19.2295 6.6025 17.385 6.6025C15.8786 6.6025 14.4491 6.87918 13.0964 7.43255C11.7437 7.95517 10.5601 8.70837 9.5456 9.69213C8.53109 10.6759 7.71641 11.8749 7.10156 13.289C6.51744 14.6724 6.22539 16.2249 6.22539 17.9465C6.22539 19.6681 6.51744 21.236 7.10156 22.6502C7.71641 24.0336 8.53109 25.2172 9.5456 26.2009C10.5908 27.1847 11.7898 27.9533 13.1425 28.5066C14.4952 29.0293 15.9401 29.2906 17.4772 29.2906C19.2295 29.2906 20.7052 29.0446 21.9041 28.5528C23.1339 28.0301 24.1791 27.3692 25.0399 26.5699C25.6548 26.0165 26.1774 25.3248 26.6078 24.4947C27.0689 23.6339 27.4225 22.6809 27.6684 21.6357H17.2927V16.3325Z" fill="white"/>
<path d="M48.134 1.43773H55.2356L67.6402 34.4553H60.7692L58.0485 26.5699H45.321L42.6003 34.4553H35.7293L48.134 1.43773ZM56.0195 20.8517L53.0682 12.5973L51.8692 8.5854H51.5003L50.3014 12.5973L47.3501 20.8517H56.0195Z" fill="white"/>
<path d="M71.5055 1.43773H77.6387L87.7376 18.9149H88.1066L98.2055 1.43773H104.385V34.4553H98.2055V18.1771L98.5744 12.6434H98.2055L89.8128 27.446H86.0775L77.6387 12.6434H77.2698L77.6387 18.1771V34.4553H71.5055V1.43773Z" fill="white"/>
<path d="M111.045 7.34032V14.9952H130.505L125.564 20.8978H111.045V28.5528H131.98L127.04 34.4553H111.045V1.43773H131.98L127.04 7.34032H111.045Z" fill="white"/>
<path d="M137.704 1.43773H149.74C151.4 1.43773 152.907 1.69904 154.259 2.22167C155.612 2.74429 156.765 3.46674 157.718 4.38903C158.702 5.3113 159.455 6.41804 159.977 7.70923C160.5 8.96968 160.761 10.3531 160.761 11.8595C160.761 12.9662 160.577 14.0115 160.208 14.9952C159.839 15.9483 159.332 16.8244 158.686 17.6237C158.041 18.3923 157.287 19.084 156.427 19.6989C155.566 20.283 154.659 20.7441 153.706 21.0823L153.66 21.4051L162.514 34.0864V34.4553H155.366L146.835 22.0507H143.93V34.4553H137.704V1.43773ZM149.694 16.3325C151.108 16.3325 152.261 15.9021 153.152 15.0414C154.075 14.1806 154.536 13.0892 154.536 11.7673C154.536 11.1832 154.428 10.6144 154.213 10.061C154.029 9.50768 153.737 9.01579 153.337 8.5854C152.937 8.155 152.43 7.81683 151.815 7.57089C151.231 7.29421 150.555 7.15586 149.786 7.15586H143.93V16.3325H149.694Z" fill="white"/>
<path d="M176.399 35.1932C174.985 35.1932 173.633 34.9933 172.341 34.5937C171.05 34.194 169.867 33.5946 168.791 32.7952C167.715 31.9959 166.777 31.0275 165.978 29.8901C165.178 28.7218 164.548 27.3692 164.087 25.832L169.943 23.5263C170.374 25.1864 171.127 26.5699 172.203 27.6766C173.279 28.7526 174.693 29.2906 176.445 29.2906C177.091 29.2906 177.706 29.2137 178.29 29.06C178.905 28.8756 179.443 28.6296 179.904 28.3222C180.396 27.984 180.78 27.569 181.057 27.0771C181.334 26.5852 181.472 26.0165 181.472 25.3709C181.472 24.756 181.364 24.2027 181.149 23.7108C180.934 23.2189 180.565 22.7578 180.042 22.3274C179.55 21.897 178.889 21.4819 178.059 21.0823C177.26 20.6826 176.261 20.2676 175.062 19.8372L173.033 19.0994C172.141 18.792 171.235 18.3769 170.312 17.8543C169.421 17.3317 168.606 16.7015 167.868 15.9636C167.13 15.2258 166.516 14.365 166.024 13.3813C165.563 12.3667 165.332 11.2293 165.332 9.96882C165.332 8.67763 165.578 7.47866 166.07 6.37193C166.592 5.23445 167.315 4.25068 168.237 3.42063C169.19 2.55984 170.312 1.89887 171.603 1.43773C172.925 0.945847 174.386 0.699905 175.984 0.699905C177.644 0.699905 179.074 0.930476 180.273 1.39162C181.503 1.82201 182.533 2.39075 183.363 3.09783C184.223 3.77417 184.915 4.52737 185.438 5.35742C185.96 6.18747 186.345 6.97141 186.591 7.70923L181.103 10.0149C180.796 9.09265 180.227 8.2626 179.397 7.52478C178.597 6.78695 177.491 6.41804 176.077 6.41804C174.724 6.41804 173.602 6.74084 172.71 7.38643C171.819 8.00129 171.373 8.81597 171.373 9.83047C171.373 10.8142 171.803 11.6597 172.664 12.3667C173.525 13.0431 174.893 13.7041 176.768 14.3496L178.843 15.0414C180.165 15.5025 181.364 16.0405 182.44 16.6553C183.547 17.2395 184.485 17.9465 185.253 18.7766C186.053 19.6066 186.652 20.5597 187.052 21.6357C187.482 22.6809 187.697 23.8952 187.697 25.2787C187.697 27.0002 187.344 28.4913 186.637 29.7517C185.96 30.9814 185.084 31.9959 184.008 32.7952C182.932 33.5946 181.718 34.194 180.365 34.5937C179.012 34.9933 177.691 35.1932 176.399 35.1932Z" fill="white"/>
<path d="M192.825 7.34032V15.1985L212.285 14.9952L207.344 20.8978H192.825V28.5528H213.761L208.82 34.4553H192.825V1.43773H213.761L208.82 7.34032H192.825Z" fill="white"/>
</svg>
