<svg width="56" height="56" viewBox="0 0 56 56" fill="none" xmlns="http://www.w3.org/2000/svg">
<path d="M28 56C43.464 56 56 43.464 56 28C56 12.536 43.464 0 28 0C12.536 0 0 12.536 0 28C0 43.464 12.536 56 28 56Z" fill="#6C7FD8"/>
<path d="M45.9375 28C45.9375 31.5477 44.8855 35.0157 42.9145 37.9656C40.9435 40.9154 38.1421 43.2145 34.8644 44.5721C31.5868 45.9298 27.9801 46.285 24.5006 45.5929C21.021 44.9007 17.8249 43.1923 15.3163 40.6837C12.8077 38.1751 11.0993 34.979 10.4072 31.4994C9.71505 28.0199 10.0703 24.4133 11.4279 21.1356C12.7856 17.858 15.0847 15.0565 18.0345 13.0855C20.9843 11.1145 24.4523 10.0625 28 10.0625H28.0149C32.7696 10.0664 37.3283 11.958 40.689 15.3215C44.0497 18.685 45.9375 23.2453 45.9375 28Z" fill="#FF7979"/>
<path d="M45.9398 28C45.9439 32.0333 44.5861 35.9499 42.0863 39.1151C38.2375 40.9513 33.8184 41.1898 29.7944 39.7784C25.7704 38.367 22.4684 35.4205 20.6098 31.5825C18.7512 27.7445 18.487 23.3269 19.8749 19.2947C21.2628 15.2625 24.19 11.9434 28.0171 10.0625C32.7719 10.0664 37.3305 11.958 40.6913 15.3215C44.052 18.685 45.9398 23.2453 45.9398 28Z" fill="#FFB2B2"/>
<path d="M24.4431 27.6254C24.4431 28.0208 24.3258 28.4073 24.1061 28.7361C23.8864 29.0649 23.5742 29.3212 23.2088 29.4725C22.8435 29.6239 22.4415 29.6635 22.0537 29.5863C21.6658 29.5092 21.3096 29.3187 21.0299 29.0391C20.7503 28.7595 20.5599 28.4032 20.4828 28.0154C20.4056 27.6276 20.4452 27.2256 20.5965 26.8602C20.7479 26.4949 21.0041 26.1826 21.3329 25.9629C21.6617 25.7432 22.0483 25.626 22.4437 25.626C22.9738 25.6267 23.4819 25.8375 23.8567 26.2123C24.2315 26.5872 24.4424 27.0953 24.4431 27.6254Z" fill="#C62828"/>
<path d="M35.074 32.4306C35.074 32.8026 34.9637 33.1664 34.757 33.4757C34.5503 33.7851 34.2565 34.0262 33.9127 34.1686C33.5689 34.311 33.1907 34.3483 32.8258 34.2757C32.4608 34.2031 32.1256 34.0239 31.8625 33.7608C31.5994 33.4977 31.4203 33.1625 31.3477 32.7976C31.2751 32.4327 31.3123 32.0544 31.4547 31.7106C31.5971 31.3669 31.8382 31.0731 32.1476 30.8664C32.457 30.6596 32.8207 30.5493 33.1928 30.5493C33.6917 30.5493 34.1702 30.7475 34.523 31.1003C34.8758 31.4531 35.074 31.9316 35.074 32.4306Z" fill="#C62828"/>
<path d="M26.1139 43.7429C26.8499 43.7429 27.4465 43.1463 27.4465 42.4103C27.4465 41.6743 26.8499 41.0776 26.1139 41.0776C25.3779 41.0776 24.7812 41.6743 24.7812 42.4103C24.7812 43.1463 25.3779 43.7429 26.1139 43.7429Z" fill="#C62828"/>
<path d="M36.3638 38.8668C37.0675 38.8668 37.6378 38.2965 37.6378 37.5928C37.6378 36.8892 37.0675 36.3188 36.3638 36.3188C35.6602 36.3188 35.0898 36.8892 35.0898 37.5928C35.0898 38.2965 35.6602 38.8668 36.3638 38.8668Z" fill="#C62828"/>
<path d="M29.274 17.026C29.9776 17.026 30.548 16.4556 30.548 15.752C30.548 15.0484 29.9776 14.478 29.274 14.478C28.5704 14.478 28 15.0484 28 15.752C28 16.4556 28.5704 17.026 29.274 17.026Z" fill="#C62828"/>
<path d="M31.1931 38.8667C31.5241 38.8667 31.7925 38.5984 31.7925 38.2673C31.7925 37.9363 31.5241 37.668 31.1931 37.668C30.8621 37.668 30.5938 37.9363 30.5938 38.2673C30.5938 38.5984 30.8621 38.8667 31.1931 38.8667Z" fill="#C62828"/>
<path d="M17.6209 36.917C17.9519 36.917 18.2202 36.6487 18.2202 36.3176C18.2202 35.9866 17.9519 35.7183 17.6209 35.7183C17.2898 35.7183 17.0215 35.9866 17.0215 36.3176C17.0215 36.6487 17.2898 36.917 17.6209 36.917Z" fill="#C62828"/>
<path d="M26.7515 30.5508C27.1023 30.5508 27.3867 30.2664 27.3867 29.9155C27.3867 29.5647 27.1023 29.2803 26.7515 29.2803C26.4006 29.2803 26.1162 29.5647 26.1162 29.9155C26.1162 30.2664 26.4006 30.5508 26.7515 30.5508Z" fill="#C62828"/>
<path d="M42.2329 31.8213C42.5837 31.8213 42.8682 31.5369 42.8682 31.186C42.8682 30.8352 42.5837 30.5508 42.2329 30.5508C41.8821 30.5508 41.5977 30.8352 41.5977 31.186C41.5977 31.5369 41.8821 31.8213 42.2329 31.8213Z" fill="#C62828"/>
<path d="M20.9136 23.1733C21.2644 23.1733 21.5488 22.8889 21.5488 22.5381C21.5488 22.1872 21.2644 21.9028 20.9136 21.9028C20.5627 21.9028 20.2783 22.1872 20.2783 22.5381C20.2783 22.8889 20.5627 23.1733 20.9136 23.1733Z" fill="#C62828"/>
<path d="M37.311 29.2806C37.8457 29.2806 38.2791 28.8471 38.2791 28.3124C38.2791 27.7777 37.8457 27.3442 37.311 27.3442C36.7762 27.3442 36.3428 27.7777 36.3428 28.3124C36.3428 28.8471 36.7762 29.2806 37.311 29.2806Z" fill="#C62828"/>
<path d="M40.226 24.1195C40.7607 24.1195 41.1942 23.686 41.1942 23.1513C41.1942 22.6166 40.7607 22.1831 40.226 22.1831C39.6913 22.1831 39.2578 22.6166 39.2578 23.1513C39.2578 23.686 39.6913 24.1195 40.226 24.1195Z" fill="#C62828"/>
<path d="M22.4421 19.1914C23.0288 19.1914 23.5044 18.7158 23.5044 18.1291C23.5044 17.5425 23.0288 17.0669 22.4421 17.0669C21.8555 17.0669 21.3799 17.5425 21.3799 18.1291C21.3799 18.7158 21.8555 19.1914 22.4421 19.1914Z" fill="#C62828"/>
<path d="M31.7908 19.8785C32.1704 19.8785 32.4781 19.5708 32.4781 19.1912C32.4781 18.8116 32.1704 18.5039 31.7908 18.5039C31.4112 18.5039 31.1035 18.8116 31.1035 19.1912C31.1035 19.5708 31.4112 19.8785 31.7908 19.8785Z" fill="#C62828"/>
<path d="M34.4353 18.1294C35.022 18.1294 35.4975 17.6538 35.4975 17.0671C35.4975 16.4805 35.022 16.0049 34.4353 16.0049C33.8486 16.0049 33.373 16.4805 33.373 17.0671C33.373 17.6538 33.8486 18.1294 34.4353 18.1294Z" fill="#C62828"/>
<path d="M30.5925 26.0004C31.3792 26.0004 32.017 25.3626 32.017 24.5759C32.017 23.7891 31.3792 23.1514 30.5925 23.1514C29.8057 23.1514 29.168 23.7891 29.168 24.5759C29.168 25.3626 29.8057 26.0004 30.5925 26.0004Z" fill="#C62828"/>
<path d="M15.4627 27.6246C16.3023 27.6246 16.983 26.9439 16.983 26.1043C16.983 25.2647 16.3023 24.584 15.4627 24.584C14.623 24.584 13.9424 25.2647 13.9424 26.1043C13.9424 26.9439 14.623 27.6246 15.4627 27.6246Z" fill="#C62828"/>
<path d="M16.9839 30.5508C17.3347 30.5508 17.6191 30.2664 17.6191 29.9155C17.6191 29.5647 17.3347 29.2803 16.9839 29.2803C16.633 29.2803 16.3486 29.5647 16.3486 29.9155C16.3486 30.2664 16.633 30.5508 16.9839 30.5508Z" fill="#C62828"/>
<path d="M23.1071 38.8661C25.0184 38.8661 26.5677 37.3167 26.5677 35.4055C26.5677 33.4942 25.0184 31.9448 23.1071 31.9448C21.1959 31.9448 19.6465 33.4942 19.6465 35.4055C19.6465 37.3167 21.1959 38.8661 23.1071 38.8661Z" fill="#C62828"/>
</svg>
