<svg width="54" height="56" viewBox="0 0 54 56" fill="none" xmlns="http://www.w3.org/2000/svg">
<path d="M26.7968 55.9998C41.5962 55.9998 53.5935 44.0025 53.5935 29.203C53.5935 14.4036 41.5962 2.40625 26.7968 2.40625C11.9973 2.40625 0 14.4036 0 29.203C0 44.0025 11.9973 55.9998 26.7968 55.9998Z" fill="#6C7FD8"/>
<path d="M26.7968 50.9686C38.8176 50.9686 48.5624 41.2238 48.5624 29.2031C48.5624 17.1823 38.8176 7.4375 26.7968 7.4375C14.776 7.4375 5.03125 17.1823 5.03125 29.2031C5.03125 41.2238 14.776 50.9686 26.7968 50.9686Z" fill="#314DC9"/>
<path d="M26.7968 50.9686C38.8176 50.9686 48.5624 41.2238 48.5624 29.2031C48.5624 17.1823 38.8176 7.4375 26.7968 7.4375C14.776 7.4375 5.03125 17.1823 5.03125 29.2031C5.03125 41.2238 14.776 50.9686 26.7968 50.9686Z" fill="#7D8EDA"/>
<path d="M26.7968 48.6718C37.5491 48.6718 46.2655 39.9553 46.2655 29.2031C46.2655 18.4508 37.5491 9.73438 26.7968 9.73438C16.0446 9.73438 7.32812 18.4508 7.32812 29.2031C7.32812 39.9553 16.0446 48.6718 26.7968 48.6718Z" fill="#8795DE"/>
<path d="M26.7968 46.5936C36.4014 46.5936 44.1874 38.8076 44.1874 29.2031C44.1874 19.5985 36.4014 11.8125 26.7968 11.8125C17.1923 11.8125 9.40625 19.5985 9.40625 29.2031C9.40625 38.8076 17.1923 46.5936 26.7968 46.5936Z" fill="#F3F0F3"/>
<path d="M19.1401 36.86C13.142 30.8619 12.4426 21.5728 17.0395 14.8057C16.1445 15.4137 15.2931 16.113 14.4998 16.9063C7.7084 23.6977 7.7084 34.7089 14.4998 41.5003C21.2912 48.2917 32.3024 48.2917 39.0938 41.5003C39.8871 40.707 40.5864 39.8555 41.1944 38.9606C34.4273 43.5574 25.1383 42.8581 19.1401 36.86Z" fill="#E2DEE2"/>
<path d="M17.5216 30.1562C18.5131 29.2219 18.2907 27.3756 17.0249 26.0323C15.7591 24.689 13.9293 24.3575 12.9378 25.2917C11.9463 26.226 12.1687 28.0723 13.4345 29.4156C14.7003 30.7589 16.5301 31.0905 17.5216 30.1562Z" fill="#E2DEE2"/>
<path d="M14.6669 28.241C13.6792 27.1931 13.3269 25.8388 13.6908 24.8506C13.4072 24.9363 13.1491 25.0804 12.9316 25.2855C11.9406 26.2196 12.1631 28.0653 13.4288 29.408C14.6944 30.7507 16.5238 31.0819 17.5148 30.1477C17.7324 29.9426 17.8914 29.6936 17.9938 29.4156C16.9858 29.7206 15.6547 29.2889 14.6669 28.241Z" fill="#CBC4CC"/>
<path d="M34.9945 40.1493C35.8255 39.3663 35.6391 37.819 34.5783 36.6932C33.5174 35.5674 31.9839 35.2895 31.1529 36.0725C30.322 36.8555 30.5084 38.4029 31.5692 39.5286C32.6301 40.6544 34.1636 40.9323 34.9945 40.1493Z" fill="#E2DEE2"/>
<path d="M32.3872 38.733C31.5115 37.804 31.2323 36.588 31.6288 35.7515C31.4474 35.8246 31.2809 35.9282 31.136 36.0647C30.3055 36.8476 30.492 38.3945 31.5527 39.5198C32.6134 40.645 34.1465 40.9226 34.9771 40.1397C35.1219 40.0032 35.2351 39.843 35.3189 39.6663C34.4603 40.0125 33.2629 39.662 32.3872 38.733Z" fill="#CBC4CC"/>
<path d="M22.69 40.7928C24.0997 39.4644 23.7836 36.8393 21.9838 34.9294C20.1841 33.0195 17.5824 32.5481 16.1726 33.8765C14.7629 35.2049 15.0791 37.83 16.8788 39.7399C18.6785 41.6498 21.2803 42.1212 22.69 40.7928Z" fill="#CBC4CC"/>
<path d="M17.7142 38.3696C16.389 36.9637 15.8692 35.1704 16.2495 33.792C16.2207 33.8169 16.1914 33.8414 16.1635 33.8678C14.7544 35.196 15.0708 37.8204 16.8704 39.7294C18.6699 41.6385 21.2709 42.1094 22.68 40.7811C23.0514 40.431 23.3017 39.9905 23.4378 39.4971C22.011 40.7292 19.4778 40.2409 17.7142 38.3696Z" fill="#B5ADB6"/>
<path d="M29.5044 32.4559C30.9142 31.1275 30.598 28.5024 28.7983 26.5925C26.9986 24.6826 24.3968 24.2112 22.9871 25.5396C21.5774 26.8679 21.8935 29.4931 23.6932 31.403C25.493 33.3129 28.0947 33.7843 29.5044 32.4559Z" fill="#E2DEE2"/>
<path d="M30.1469 31.2628C28.7378 32.5911 26.1366 32.1201 24.3372 30.211C23.0143 28.8075 22.4941 27.0181 22.8705 25.6406C21.5856 26.9986 21.9309 29.5359 23.6834 31.3953C25.4829 33.3044 28.0839 33.7753 29.493 32.4471C29.8662 32.0954 30.1172 31.6521 30.2528 31.1558C30.2185 31.1922 30.1836 31.2281 30.1469 31.2628Z" fill="#CBC4CC"/>
<path d="M27.0781 43.478C28.0446 43.478 28.8281 42.6945 28.8281 41.728C28.8281 40.7615 28.0446 39.978 27.0781 39.978C26.1116 39.978 25.3281 40.7615 25.3281 41.728C25.3281 42.6945 26.1116 43.478 27.0781 43.478Z" fill="#CBC4CC"/>
<path d="M27.9602 42.5967C26.9941 42.5681 26.2342 41.7618 26.2627 40.7957C26.2701 40.5479 26.3292 40.3139 26.4286 40.103C25.8016 40.3542 25.3501 40.9578 25.3289 41.6759C25.3004 42.642 26.0604 43.4484 27.0264 43.4769C27.7446 43.4981 28.3738 43.0832 28.6616 42.4721C28.4451 42.5587 28.2081 42.604 27.9602 42.5967Z" fill="#B5ADB6"/>
<path d="M19.335 22.2397C20.2712 22.2397 21.0303 21.4807 21.0303 20.5444C21.0303 19.6081 20.2712 18.8491 19.335 18.8491C18.3987 18.8491 17.6396 19.6081 17.6396 20.5444C17.6396 21.4807 18.3987 22.2397 19.335 22.2397Z" fill="#CBC4CC"/>
<path d="M37.1191 34.9116C37.9346 34.9116 38.5957 34.2505 38.5957 33.4351C38.5957 32.6196 37.9346 31.9585 37.1191 31.9585C36.3037 31.9585 35.6426 32.6196 35.6426 33.4351C35.6426 34.2505 36.3037 34.9116 37.1191 34.9116Z" fill="#CBC4CC"/>
<path d="M37.4222 34.2845C36.607 34.2604 35.9658 33.5801 35.99 32.7649C35.9933 32.6503 36.0104 32.5394 36.0384 32.4331C35.8036 32.6857 35.6542 33.0194 35.6432 33.3912C35.6192 34.2064 36.2604 34.8867 37.0755 34.9108C37.7739 34.9314 38.3718 34.4632 38.5444 33.8162C38.2648 34.1152 37.8635 34.2975 37.4222 34.2845Z" fill="#B5ADB6"/>
<path d="M44.3687 13.8146C43.4878 14.1302 43.1136 14.5044 42.798 15.3853C42.7281 15.5804 42.4548 15.5804 42.3849 15.3853C42.0694 14.5044 41.6952 14.1302 40.8143 13.8146C40.6192 13.7448 40.6192 13.4714 40.8143 13.4015C41.6952 13.086 42.0694 12.7118 42.3849 11.8309C42.4548 11.6358 42.7281 11.6358 42.798 11.8309C43.1136 12.7118 43.4878 13.086 44.3687 13.4015C44.5638 13.4714 44.5638 13.7448 44.3687 13.8146Z" fill="white"/>
<path d="M43.1506 14.6187C42.835 13.7378 42.4608 13.3637 41.5799 13.0481C41.572 13.0453 41.5663 13.0401 41.5588 13.0366C41.3578 13.1767 41.1164 13.2924 40.8143 13.4006C40.6192 13.4705 40.6192 13.7438 40.8143 13.8137C41.6952 14.1293 42.0694 14.5034 42.3849 15.3843C42.4548 15.5795 42.7281 15.5795 42.798 15.3843C42.9062 15.0823 43.0219 14.8408 43.162 14.6398C43.1585 14.6324 43.1535 14.6267 43.1506 14.6187Z" fill="#F3F0F3"/>
<path d="M5.65186 30.549C4.77096 30.8646 4.39679 31.2387 4.08124 32.1196C4.01135 32.3148 3.73803 32.3148 3.66814 32.1196C3.35259 31.2387 2.97842 30.8646 2.09752 30.549C1.90239 30.4791 1.90239 30.2058 2.09752 30.1359C2.97842 29.8204 3.35259 29.4462 3.66814 28.5653C3.73803 28.3702 4.01135 28.3702 4.08124 28.5653C4.39679 29.4462 4.77096 29.8204 5.65186 30.1359C5.84699 30.2058 5.84699 30.4791 5.65186 30.549Z" fill="white"/>
<path d="M4.34048 31.3725C4.02702 30.4974 3.65503 30.1223 2.78649 29.8081C2.59629 29.932 2.37032 30.0366 2.09459 30.1354C1.89946 30.2052 1.89946 30.4786 2.09459 30.5485C2.97549 30.864 3.34966 31.2382 3.66521 32.1191C3.7351 32.3142 4.00842 32.3142 4.07831 32.1191C4.17314 31.8545 4.27355 31.6363 4.39102 31.451C4.37034 31.4294 4.35208 31.4045 4.34048 31.3725Z" fill="#F3F0F3"/>
<path d="M51.9637 30.1534C50.7115 30.602 50.1796 31.1338 49.7311 32.3861C49.6317 32.6635 49.2431 32.6635 49.1438 32.3861C48.6953 31.1338 48.1634 30.602 46.9112 30.1534C46.6338 30.0541 46.6338 29.6655 46.9112 29.5662C48.1634 29.1176 48.6953 28.5857 49.1438 27.3335C49.2431 27.0561 49.6317 27.0561 49.7311 27.3335C50.1796 28.5857 50.7115 29.1176 51.9637 29.5662C52.2411 29.6655 52.2411 30.054 51.9637 30.1534Z" fill="#FED402"/>
<path d="M50.2376 31.2915C49.789 30.0392 49.2571 29.5074 48.0049 29.0588C47.9939 29.0549 47.984 29.0497 47.9738 29.0449C47.6873 29.2454 47.3427 29.4108 46.9112 29.5653C46.6338 29.6646 46.6338 30.0532 46.9112 30.1526C48.1634 30.6011 48.6953 31.133 49.1438 32.3852C49.2431 32.6626 49.6317 32.6626 49.7311 32.3852C49.8856 31.9536 50.051 31.6091 50.2515 31.3225C50.2468 31.3124 50.2416 31.3025 50.2376 31.2915Z" fill="#FAC600"/>
<path d="M8.60145 15.19C8.49131 15.1891 8.40064 15.1032 8.39397 14.9931C8.10446 10.2393 7.90878 10.0404 3.16029 9.67393C3.05048 9.6655 2.96593 9.57341 2.9668 9.46327C2.96768 9.35313 3.05365 9.26246 3.16368 9.25579C7.91753 8.96627 8.11638 8.7706 8.48289 4.0221C8.49131 3.91229 8.58341 3.82775 8.69355 3.82862C8.80369 3.8295 8.89436 3.91546 8.90103 4.02549C9.19055 8.77935 9.38622 8.97819 14.1347 9.34471C14.2445 9.35313 14.3291 9.44522 14.3282 9.55536C14.3273 9.6655 14.2414 9.75618 14.1313 9.76285C9.37747 10.0524 9.17862 10.248 8.81211 14.9965C8.80369 15.1063 8.71159 15.1909 8.60145 15.19Z" fill="#FEA613"/>
<path d="M6.82838 8.729C6.07764 9.05253 4.93806 9.14769 3.16368 9.25575C3.05365 9.26242 2.96768 9.3532 2.9668 9.46324C2.96593 9.57338 3.05048 9.66547 3.16029 9.67389C7.90879 10.0404 8.10446 10.2392 8.39397 14.9931C8.40065 15.1031 8.49132 15.1891 8.60146 15.19C8.7116 15.1909 8.80369 15.1063 8.81211 14.9965C8.94719 13.246 9.05985 12.1147 9.386 11.3689C9.1246 9.6005 8.57072 9.0241 6.82838 8.729Z" fill="#FE9901"/>
<path d="M46.4315 53.1558C46.3214 53.155 46.2307 53.069 46.224 52.959C45.9345 48.2051 45.7389 48.0063 40.9904 47.6397C40.8804 47.6313 40.796 47.5392 40.7969 47.4291C40.7978 47.3189 40.8837 47.2283 40.9938 47.2216C45.7476 46.9321 45.9465 46.7364 46.313 41.9879C46.3214 41.878 46.4135 41.7936 46.5236 41.7944C46.6338 41.7953 46.7244 41.8813 46.7311 41.9913C47.0206 46.7452 47.2163 46.944 51.9648 47.3105C52.0747 47.319 52.1592 47.411 52.1583 47.5212C52.1574 47.6313 52.0714 47.722 51.9614 47.7287C47.2075 48.0182 47.0087 48.2139 46.6422 52.9623C46.6338 53.0722 46.5417 53.1567 46.4315 53.1558Z" fill="#FEA613"/>
<path d="M45.0292 46.4961C44.2994 46.9852 43.0893 47.0949 40.9938 47.2226C40.8837 47.2292 40.7978 47.32 40.7969 47.43C40.796 47.5402 40.8806 47.6323 40.9904 47.6407C45.7389 48.0072 45.9345 48.2061 46.2241 52.9599C46.2307 53.0699 46.3215 53.1559 46.4315 53.1568C46.5417 53.1577 46.6338 53.0731 46.6422 52.9633C46.8021 50.8915 46.9302 49.6867 47.4185 48.9623C47.1556 47.3574 46.6098 46.79 45.0292 46.4961Z" fill="#FE9901"/>
<path d="M10.5673 44.2366L9.89383 44.91C9.83652 44.9673 9.74355 44.9673 9.68613 44.91L9.01271 44.2366C8.9554 44.1793 8.9554 44.0862 9.01271 44.0289L9.68613 43.3555C9.74344 43.2982 9.83652 43.2982 9.89383 43.3555L10.5673 44.0289C10.6246 44.0863 10.6246 44.1793 10.5673 44.2366Z" fill="#FED402"/>
<path d="M18.1141 51.2366L17.4407 51.91C17.3834 51.9673 17.2903 51.9673 17.233 51.91L16.5596 51.2366C16.5023 51.1793 16.5023 51.0862 16.5596 51.0289L17.233 50.3555C17.2903 50.2982 17.3834 50.2982 17.4407 50.3555L18.1141 51.0289C18.1714 51.0863 18.1714 51.1793 18.1141 51.2366Z" fill="#FED402"/>
<path d="M49.8329 18.8616L49.1595 19.535C49.1021 19.5923 49.0091 19.5923 48.9518 19.535L48.2783 18.8616C48.221 18.8043 48.221 18.7112 48.2783 18.6539L48.9518 17.9805C49.0091 17.9232 49.1021 17.9232 49.1595 17.9805L49.8329 18.6539C49.8902 18.7113 49.8902 18.8043 49.8329 18.8616Z" fill="#FED402"/>
<path d="M36.7002 7.08453H27.2344C27.0806 7.08453 26.9561 6.95984 26.9561 6.80617V1.09867C26.9561 0.94489 27.0807 0.820312 27.2344 0.820312H36.7002C36.854 0.820312 36.9786 0.945 36.9786 1.09867V6.80606C36.9787 6.95984 36.854 7.08453 36.7002 7.08453Z" fill="#FEA613"/>
<path d="M29.9692 6.80606V1.09867C29.9692 0.94489 30.0939 0.820312 30.2476 0.820312H27.2344C27.0806 0.820312 26.9561 0.945 26.9561 1.09867V6.80606C26.9561 6.95984 27.0807 7.08442 27.2344 7.08442H30.2476C30.0939 7.08453 29.9692 6.95984 29.9692 6.80606Z" fill="#FB8801"/>
<path d="M26.7717 0.000370532C26.3227 0.0138236 25.9766 0.405494 25.9766 0.854696V15.5859C25.9766 15.8879 26.2215 16.1328 26.5234 16.1328H27.0703C27.3723 16.1328 27.6172 15.8879 27.6172 15.5859V0.820352C27.6172 0.35901 27.2363 -0.0134107 26.7717 0.000370532Z" fill="#B5ADB6"/>
<path d="M19.8573 21.3809C18.9214 21.3532 18.1852 20.5722 18.2129 19.6363C18.2171 19.4915 18.2414 19.3523 18.2795 19.2192C17.9031 19.5193 17.6557 19.976 17.6404 20.4948C17.6127 21.4307 18.349 22.2117 19.2849 22.2394C20.076 22.2628 20.7545 21.7394 20.9629 21.012C20.6602 21.2531 20.2745 21.3932 19.8573 21.3809Z" fill="#B5ADB6"/>
</svg>
