<svg width="71" height="18" viewBox="0 0 71 18" fill="none" xmlns="http://www.w3.org/2000/svg">
<g clip-path="url(#clip0)">
<path d="M54.4472 4.69556H50.646C50.4223 4.69556 50.1987 4.91916 50.0869 5.14276L48.5217 14.9813C48.5217 15.2049 48.6335 15.3167 48.8571 15.3167H50.8696C51.0932 15.3167 51.205 15.2049 51.205 14.9813L51.6522 12.1862C51.6522 11.9626 51.8758 11.739 52.2112 11.739H53.441C56.0124 11.739 57.4658 10.5092 57.8012 8.04959C58.0248 7.04338 57.8012 6.14897 57.354 5.58997C56.6832 5.03096 55.677 4.69556 54.4472 4.69556ZM54.8944 8.385C54.6708 9.72661 53.6646 9.72661 52.6584 9.72661H51.9876L52.4348 7.15518C52.4348 7.04338 52.5466 6.93158 52.7702 6.93158H52.9938C53.6646 6.93158 54.3354 6.93158 54.6708 7.37879C54.8944 7.49059 54.8944 7.82599 54.8944 8.385Z" fill="#139AD6"/>
<path d="M27.0558 4.69556H23.2546C23.031 4.69556 22.8074 4.91916 22.6956 5.14276L21.1304 14.9813C21.1304 15.2049 21.2422 15.3167 21.4658 15.3167H23.2546C23.4782 15.3167 23.7018 15.0931 23.8136 14.8695L24.2608 12.1862C24.2608 11.9626 24.4844 11.739 24.8198 11.739H26.0496C28.6211 11.739 30.0745 10.5092 30.4099 8.04959C30.6335 7.04338 30.4099 6.14897 29.9627 5.58997C29.2919 5.03096 28.3975 4.69556 27.0558 4.69556ZM27.503 8.385C27.2794 9.72661 26.2732 9.72661 25.267 9.72661H24.708L25.1552 7.15518C25.1552 7.04338 25.267 6.93158 25.4906 6.93158H25.7142C26.385 6.93158 27.0558 6.93158 27.3912 7.37879C27.503 7.49059 27.6148 7.82599 27.503 8.385Z" fill="#263B80"/>
<path d="M38.5715 8.27316H36.7827C36.6709 8.27316 36.4473 8.38496 36.4473 8.49677L36.3355 9.05577L36.2237 8.83217C35.7765 8.27316 34.9939 8.04956 34.0995 8.04956C32.0871 8.04956 30.2983 9.61478 29.9629 11.739C29.7393 12.857 30.0747 13.8632 30.6337 14.534C31.1927 15.2048 31.9753 15.4284 32.9815 15.4284C34.6585 15.4284 35.5529 14.4222 35.5529 14.4222L35.4411 14.9812C35.4411 15.2048 35.5529 15.3166 35.7765 15.3166H37.4535C37.6771 15.3166 37.9007 15.093 38.0125 14.8694L39.0187 8.60857C38.9069 8.49677 38.6833 8.27316 38.5715 8.27316ZM36.0001 11.8508C35.7765 12.857 34.9939 13.6396 33.8759 13.6396C33.3169 13.6396 32.8697 13.416 32.6461 13.1924C32.4225 12.857 32.3107 12.4098 32.3107 11.8508C32.4225 10.8446 33.3169 10.062 34.3231 10.062C34.8821 10.062 35.2175 10.2856 35.5529 10.5092C35.8883 10.8446 36.0001 11.4036 36.0001 11.8508Z" fill="#263B80"/>
<path d="M65.8508 8.27316H64.062C63.9502 8.27316 63.7266 8.38496 63.7266 8.49677L63.6148 9.05577L63.503 8.83217C63.0558 8.27316 62.2732 8.04956 61.3788 8.04956C59.3664 8.04956 57.5776 9.61478 57.2422 11.739C57.0186 12.857 57.354 13.8632 57.913 14.534C58.472 15.2048 59.2546 15.4284 60.2608 15.4284C61.9378 15.4284 62.8322 14.4222 62.8322 14.4222L62.7204 14.9812C62.7204 15.2048 62.8322 15.3166 63.0558 15.3166H64.7328C64.9564 15.3166 65.18 15.093 65.2918 14.8694L66.298 8.60857C66.1862 8.49677 66.0744 8.27316 65.8508 8.27316ZM63.2794 11.8508C63.0558 12.857 62.2732 13.6396 61.1552 13.6396C60.5962 13.6396 60.149 13.416 59.9254 13.1924C59.7018 12.857 59.59 12.4098 59.59 11.8508C59.7018 10.8446 60.5962 10.062 61.6024 10.062C62.1614 10.062 62.4968 10.2856 62.8322 10.5092C63.2794 10.8446 63.3912 11.4036 63.2794 11.8508Z" fill="#139AD6"/>
<path d="M48.2982 8.27344H46.3975C46.1739 8.27344 46.0621 8.38524 45.9503 8.49704L43.4907 12.2983L42.3727 8.72064C42.2609 8.49704 42.1491 8.38524 41.8137 8.38524H40.0249C39.8013 8.38524 39.6895 8.60884 39.6895 8.83244L41.7019 14.7579L39.8013 17.4411C39.6895 17.6647 39.8013 18.0001 40.0249 18.0001H41.8137C42.0373 18.0001 42.1491 17.8883 42.2609 17.7765L48.41 8.94424C48.7454 8.60884 48.5218 8.27344 48.2982 8.27344Z" fill="#263B80"/>
<path d="M67.9751 5.03113L66.4099 15.0932C66.4099 15.3168 66.5217 15.4286 66.7453 15.4286H68.3105C68.5341 15.4286 68.7577 15.205 68.8695 14.9814L70.4348 5.14294C70.4348 4.91933 70.323 4.80753 70.0994 4.80753H68.3105C68.1987 4.69573 68.0869 4.80753 67.9751 5.03113Z" fill="#139AD6"/>
<path d="M12.8571 1.34161C12.0745 0.447205 10.6211 0 8.6087 0H3.01863C2.68323 0 2.34783 0.335404 2.23603 0.670807L0 15.3168C0 15.6522 0.223603 15.8758 0.447205 15.8758H3.91304L4.80745 10.3975V10.6211C4.91926 10.2857 5.25466 9.95031 5.59006 9.95031H7.26708C10.5093 9.95031 12.9689 8.6087 13.7516 4.91925C13.7516 4.80745 13.7516 4.69565 13.7516 4.58385C13.6398 4.58385 13.6398 4.58385 13.7516 4.58385C13.8634 3.13043 13.6398 2.23602 12.8571 1.34161Z" fill="#263B80"/>
<path d="M13.6397 4.58374C13.6397 4.69554 13.6397 4.80734 13.6397 4.91914C12.8571 8.72039 10.3975 9.9502 7.15528 9.9502H5.47826C5.14285 9.9502 4.80745 10.2856 4.69565 10.621L3.57764 17.4409C3.57764 17.6645 3.68944 17.8881 4.02484 17.8881H6.93167C7.26708 17.8881 7.60248 17.6645 7.60248 17.3291V17.2173L8.16149 13.7514V13.5278C8.16149 13.1924 8.49689 12.9688 8.83229 12.9688H9.2795C12.0745 12.9688 14.3106 11.8508 14.8696 8.49678C15.0932 7.15517 14.9814 5.92535 14.3106 5.14275C14.1988 4.91914 13.9752 4.69554 13.6397 4.58374Z" fill="#139AD6"/>
<path d="M12.8573 4.24849C12.7455 4.24849 12.6337 4.13669 12.5219 4.13669C12.4101 4.13669 12.2983 4.13669 12.1865 4.02489C11.7393 3.91309 11.2921 3.91309 10.7331 3.91309H6.37283C6.26103 3.91309 6.14923 3.91309 6.03743 4.02489C5.81383 4.13669 5.70203 4.36029 5.70203 4.58389L4.80762 10.3976V10.6212C4.91942 10.2858 5.25482 9.95035 5.59023 9.95035H7.26724C10.5095 9.95035 12.9691 8.60874 13.7517 4.9193C13.7517 4.8075 13.7517 4.69569 13.8635 4.58389C13.6399 4.47209 13.5281 4.36029 13.3045 4.36029C12.9691 4.24849 12.9691 4.24849 12.8573 4.24849Z" fill="#232C65"/>
</g>
<defs>
<clipPath id="clip0">
<rect width="70.4348" height="18" fill="white"/>
</clipPath>
</defs>
</svg>
