<svg width="259" height="196" viewBox="0 0 259 196" fill="none" xmlns="http://www.w3.org/2000/svg">
<g opacity="0.45" filter="url(#filter0_f)">
<path d="M129.5 142C171.197 142 205 122.301 205 98C205 73.6995 171.197 54 129.5 54C87.8025 54 54 73.6995 54 98C54 122.301 87.8025 142 129.5 142Z" fill="#6C7FD8"/>
</g>
<path d="M129 125C162.689 125 190 97.6894 190 64C190 30.3106 162.689 3 129 3C95.3106 3 68 30.3106 68 64C68 97.6894 95.3106 125 129 125Z" fill="#6C7FD8"/>
<path d="M168.078 64C168.078 71.7289 165.786 79.2843 161.492 85.7107C157.198 92.137 151.095 97.1458 143.955 100.104C136.814 103.061 128.957 103.835 121.376 102.327C113.796 100.819 106.833 97.0976 101.368 91.6324C95.9024 86.1673 92.1806 79.2042 90.6728 71.6238C89.1649 64.0434 89.9388 56.1861 92.8965 49.0455C95.8543 41.9049 100.863 35.8017 107.289 31.5077C113.716 27.2138 121.271 24.9219 129 24.9219H129.032C139.391 24.9305 149.322 29.0514 156.644 36.379C163.965 43.7067 168.078 53.6415 168.078 64Z" fill="#FF7979"/>
<path d="M168.083 64C168.092 72.7869 165.133 81.3194 159.687 88.2151C151.303 92.2154 141.675 92.7349 132.909 89.6601C124.142 86.5853 116.948 80.1661 112.899 71.8047C108.85 63.4433 108.275 53.8193 111.298 45.0349C114.322 36.2505 120.699 29.0196 129.037 24.9219C139.395 24.9305 149.327 29.0514 156.648 36.379C163.97 43.7067 168.083 53.6414 168.083 64Z" fill="#FFB2B2"/>
<path d="M121.251 63.1837C121.251 64.0452 120.995 64.8873 120.517 65.6036C120.038 66.3199 119.358 66.8782 118.562 67.2079C117.766 67.5376 116.89 67.6238 116.045 67.4557C115.2 67.2877 114.424 66.8728 113.815 66.2637C113.206 65.6545 112.791 64.8784 112.623 64.0334C112.455 63.1885 112.541 62.3127 112.871 61.5168C113.2 60.7209 113.759 60.0406 114.475 59.562C115.191 59.0833 116.033 58.8279 116.895 58.8279C118.05 58.8294 119.157 59.2888 119.973 60.1053C120.79 60.9219 121.249 62.0289 121.251 63.1837Z" fill="#C62828"/>
<path d="M144.411 73.6519C144.411 74.4625 144.17 75.2549 143.72 75.9289C143.27 76.6029 142.63 77.1282 141.881 77.4384C141.132 77.7486 140.308 77.8297 139.513 77.6716C138.718 77.5134 137.987 77.1231 137.414 76.5499C136.841 75.9768 136.451 75.2465 136.293 74.4515C136.134 73.6564 136.216 72.8324 136.526 72.0835C136.836 71.3346 137.361 70.6945 138.035 70.2442C138.709 69.7938 139.502 69.5535 140.312 69.5535C141.399 69.5535 142.442 69.9853 143.21 70.7539C143.979 71.5225 144.411 72.5649 144.411 73.6519Z" fill="#C62828"/>
<path d="M124.892 98.2974C126.495 98.2974 127.795 96.9976 127.795 95.3942C127.795 93.7908 126.495 92.491 124.892 92.491C123.288 92.491 121.988 93.7908 121.988 95.3942C121.988 96.9976 123.288 98.2974 124.892 98.2974Z" fill="#C62828"/>
<path d="M147.222 87.6738C148.755 87.6738 149.997 86.4312 149.997 84.8983C149.997 83.3654 148.755 82.1228 147.222 82.1228C145.689 82.1228 144.446 83.3654 144.446 84.8983C144.446 86.4312 145.689 87.6738 147.222 87.6738Z" fill="#C62828"/>
<path d="M131.776 40.092C133.308 40.092 134.551 38.8494 134.551 37.3165C134.551 35.7836 133.308 34.541 131.776 34.541C130.243 34.541 129 35.7836 129 37.3165C129 38.8494 130.243 40.092 131.776 40.092Z" fill="#C62828"/>
<path d="M135.957 87.6741C136.678 87.6741 137.263 87.0894 137.263 86.3683C137.263 85.6471 136.678 85.0625 135.957 85.0625C135.236 85.0625 134.651 85.6471 134.651 86.3683C134.651 87.0894 135.236 87.6741 135.957 87.6741Z" fill="#C62828"/>
<path d="M106.388 83.4268C107.109 83.4268 107.694 82.8421 107.694 82.121C107.694 81.3998 107.109 80.8152 106.388 80.8152C105.667 80.8152 105.082 81.3998 105.082 82.121C105.082 82.8421 105.667 83.4268 106.388 83.4268Z" fill="#C62828"/>
<path d="M126.279 69.5572C127.044 69.5572 127.663 68.9376 127.663 68.1732C127.663 67.4089 127.044 66.7893 126.279 66.7893C125.515 66.7893 124.896 67.4089 124.896 68.1732C124.896 68.9376 125.515 69.5572 126.279 69.5572Z" fill="#C62828"/>
<path d="M160.008 72.3243C160.772 72.3243 161.392 71.7047 161.392 70.9403C161.392 70.176 160.772 69.5564 160.008 69.5564C159.244 69.5564 158.624 70.176 158.624 70.9403C158.624 71.7047 159.244 72.3243 160.008 72.3243Z" fill="#C62828"/>
<path d="M113.562 53.4852C114.326 53.4852 114.946 52.8655 114.946 52.1012C114.946 51.3369 114.326 50.7173 113.562 50.7173C112.797 50.7173 112.178 51.3369 112.178 52.1012C112.178 52.8655 112.797 53.4852 113.562 53.4852Z" fill="#C62828"/>
<path d="M149.284 66.7903C150.449 66.7903 151.393 65.846 151.393 64.681C151.393 63.5161 150.449 62.5718 149.284 62.5718C148.119 62.5718 147.175 63.5161 147.175 64.681C147.175 65.846 148.119 66.7903 149.284 66.7903Z" fill="#C62828"/>
<path d="M155.635 55.5464C156.8 55.5464 157.744 54.6021 157.744 53.4371C157.744 52.2722 156.8 51.3279 155.635 51.3279C154.47 51.3279 153.525 52.2722 153.525 53.4371C153.525 54.6021 154.47 55.5464 155.635 55.5464Z" fill="#C62828"/>
<path d="M116.892 44.8098C118.17 44.8098 119.206 43.7737 119.206 42.4956C119.206 41.2175 118.17 40.1814 116.892 40.1814C115.614 40.1814 114.578 41.2175 114.578 42.4956C114.578 43.7737 115.614 44.8098 116.892 44.8098Z" fill="#C62828"/>
<path d="M137.259 46.3072C138.086 46.3072 138.756 45.6368 138.756 44.8099C138.756 43.9829 138.086 43.3125 137.259 43.3125C136.432 43.3125 135.762 43.9829 135.762 44.8099C135.762 45.6368 136.432 46.3072 137.259 46.3072Z" fill="#C62828"/>
<path d="M143.019 42.4961C144.297 42.4961 145.333 41.46 145.333 40.1819C145.333 38.9038 144.297 37.8677 143.019 37.8677C141.741 37.8677 140.705 38.9038 140.705 40.1819C140.705 41.46 141.741 42.4961 143.019 42.4961Z" fill="#C62828"/>
<path d="M134.647 59.6433C136.361 59.6433 137.751 58.2538 137.751 56.5399C137.751 54.826 136.361 53.4365 134.647 53.4365C132.933 53.4365 131.544 54.826 131.544 56.5399C131.544 58.2538 132.933 59.6433 134.647 59.6433Z" fill="#C62828"/>
<path d="M101.687 63.1823C103.516 63.1823 104.999 61.6994 104.999 59.8702C104.999 58.041 103.516 56.5581 101.687 56.5581C99.8579 56.5581 98.375 58.041 98.375 59.8702C98.375 61.6994 99.8579 63.1823 101.687 63.1823Z" fill="#C62828"/>
<path d="M105.001 69.5572C105.765 69.5572 106.385 68.9376 106.385 68.1732C106.385 67.4089 105.765 66.7893 105.001 66.7893C104.237 66.7893 103.617 67.4089 103.617 68.1732C103.617 68.9376 104.237 69.5572 105.001 69.5572Z" fill="#C62828"/>
<path d="M118.341 87.6729C122.505 87.6729 125.88 84.2975 125.88 80.1337C125.88 75.9699 122.505 72.5945 118.341 72.5945C114.177 72.5945 110.802 75.9699 110.802 80.1337C110.802 84.2975 114.177 87.6729 118.341 87.6729Z" fill="#C62828"/>
<defs>
<filter id="filter0_f" x="0" y="0" width="259" height="196" filterUnits="userSpaceOnUse" color-interpolation-filters="sRGB">
<feFlood flood-opacity="0" result="BackgroundImageFix"/>
<feBlend mode="normal" in="SourceGraphic" in2="BackgroundImageFix" result="shape"/>
<feGaussianBlur stdDeviation="27" result="effect1_foregroundBlur"/>
</filter>
</defs>
</svg>
