<svg width="259" height="196" viewBox="0 0 259 196" fill="none" xmlns="http://www.w3.org/2000/svg">
<g opacity="0.45" filter="url(#filter0_f)">
<path d="M129.5 142C171.197 142 205 122.301 205 98C205 73.6995 171.197 54 129.5 54C87.8025 54 54 73.6995 54 98C54 122.301 87.8025 142 129.5 142Z" fill="#6C7FD8"/>
</g>
<path d="M129.379 123.212C161.621 123.212 187.758 97.0749 187.758 64.8331C187.758 32.5913 161.621 6.4541 129.379 6.4541C97.1372 6.4541 71 32.5913 71 64.8331C71 97.0749 97.1372 123.212 129.379 123.212Z" fill="#6C7FD8"/>
<path d="M159.924 125C159.684 124.998 159.487 124.811 159.472 124.571C158.841 114.214 158.415 113.782 148.07 112.983C147.831 112.964 147.647 112.764 147.648 112.524C147.65 112.284 147.838 112.086 148.077 112.072C158.434 111.441 158.867 111.015 159.666 100.67C159.684 100.43 159.885 100.246 160.125 100.248C160.365 100.25 160.562 100.437 160.577 100.677C161.207 111.034 161.634 111.467 171.979 112.266C172.218 112.284 172.402 112.485 172.4 112.724C172.399 112.964 172.211 113.162 171.972 113.177C161.615 113.807 161.182 114.234 160.383 124.579C160.364 124.818 160.164 125.002 159.924 125Z" fill="#FEA613"/>
<path d="M156.024 110.941C154.388 111.633 151.914 111.84 148.076 112.073C147.837 112.088 147.649 112.286 147.647 112.525C147.646 112.765 147.83 112.966 148.069 112.984C158.414 113.783 158.84 114.216 159.471 124.573C159.486 124.812 159.683 125 159.923 125.001C160.163 125.004 160.364 124.819 160.382 124.58C160.663 120.94 160.9 118.529 161.539 116.904C160.986 112.904 159.822 111.601 156.024 110.941Z" fill="#FE9901"/>
<path d="M90.2278 40.6529C89.9497 40.6508 89.7205 40.4335 89.7038 40.1556C88.9725 28.1505 88.4785 27.6485 76.4868 26.7227C76.2094 26.7013 75.9959 26.4687 75.9981 26.1907C76.0002 25.9126 76.2175 25.6834 76.4954 25.6667C88.5005 24.9356 89.0025 24.4414 89.9283 12.4497C89.9497 12.1723 90.1823 11.9588 90.4603 11.961C90.7384 11.9631 90.9676 12.1804 90.9843 12.4582C91.7156 24.4634 92.2096 24.9654 104.201 25.8911C104.479 25.9126 104.692 26.1451 104.69 26.4232C104.688 26.7013 104.471 26.9305 104.193 26.947C92.1876 27.6783 91.6856 28.1725 90.7599 40.1642C90.7384 40.4416 90.5058 40.6551 90.2278 40.6529Z" fill="#FED402"/>
<path d="M84.5679 24.7419C82.7109 25.2459 80.1315 25.4461 76.4954 25.6677C76.2175 25.6846 76.0004 25.9136 75.9981 26.1916C75.9957 26.4697 76.2092 26.7025 76.4868 26.7237C88.4785 27.6495 88.9725 28.1515 89.7038 40.1566C89.7207 40.4345 89.9497 40.6515 90.2278 40.6539C90.5058 40.6563 90.7384 40.4428 90.7599 40.1652C91.0358 36.5891 91.2745 34.0361 91.7914 32.194C91.1399 26.9577 89.7321 25.4894 84.5679 24.7419Z" fill="#FAC600"/>
<path d="M161.986 27.7759C160.067 28.4633 159.252 29.2785 158.564 31.1973C158.412 31.6224 157.816 31.6224 157.664 31.1973C156.977 29.2782 156.162 28.4631 154.243 27.7759C153.818 27.6234 153.818 27.0279 154.243 26.8759C156.162 26.1884 156.977 25.3733 157.664 23.4541C157.817 23.0293 158.412 23.0293 158.564 23.4541C159.252 25.3735 160.067 26.1887 161.986 26.8759C162.411 27.0279 162.411 27.6234 161.986 27.7759Z" fill="white"/>
<path d="M156.245 25.8478C156.228 25.8416 156.216 25.8306 156.2 25.823C155.703 26.2514 155.077 26.5753 154.241 26.8745C153.816 27.0268 153.816 27.6223 154.241 27.7745C156.16 28.462 156.975 29.2771 157.662 31.196C157.815 31.6211 158.41 31.6211 158.562 31.196C158.868 30.342 159.2 29.7075 159.643 29.2047C158.961 27.3332 158.142 26.5271 156.245 25.8478Z" fill="#F3F0F3"/>
<path d="M95.7 95.5669C93.7808 96.2543 92.9657 97.0695 92.2782 98.9884C92.126 99.4135 91.5305 99.4135 91.3782 98.9884C90.6908 97.0692 89.8756 96.2541 87.9565 95.5669C87.5314 95.4144 87.5314 94.8189 87.9565 94.6669C89.8756 93.9794 90.6908 93.1643 91.3782 91.2452C91.5305 90.8203 92.126 90.8203 92.2782 91.2452C92.9657 93.1645 93.7808 93.9797 95.7 94.6669C96.1251 94.8189 96.1251 95.4144 95.7 95.5669Z" fill="white"/>
<path d="M93.1861 97.1818C92.4986 95.2626 91.6835 94.4475 89.7644 93.7603C89.7582 93.7579 89.7544 93.7538 89.7484 93.7515C89.279 94.1139 88.7016 94.4013 87.9565 94.6681C87.5314 94.8204 87.5314 95.4159 87.9565 95.5681C89.8756 96.2556 90.6908 97.0707 91.3782 98.9896C91.5305 99.4147 92.126 99.4147 92.2782 98.9896C92.5451 98.2445 92.8322 97.6672 93.1949 97.1977C93.1925 97.1918 93.1885 97.1877 93.1861 97.1818Z" fill="#F3F0F3"/>
<path d="M175.752 43.8528L174.285 45.32C174.16 45.4446 173.957 45.4446 173.832 45.32L172.365 43.8528C172.24 43.728 172.24 43.5252 172.365 43.4004L173.832 41.9335C173.957 41.8086 174.16 41.8086 174.285 41.9335L175.752 43.4004C175.877 43.5255 175.877 43.728 175.752 43.8528Z" fill="#FED402"/>
<path d="M115.942 109.857L114.475 111.324C114.35 111.449 114.148 111.449 114.023 111.324L112.556 109.857C112.431 109.732 112.431 109.529 112.556 109.404L114.023 107.937C114.148 107.813 114.35 107.813 114.475 107.937L115.942 109.404C116.067 109.529 116.067 109.732 115.942 109.857Z" fill="white"/>
<path d="M83.7743 64.5833L82.3072 66.0504C82.1823 66.175 81.9796 66.175 81.8547 66.0504L80.3876 64.5833C80.2627 64.4587 80.2627 64.2557 80.3876 64.1311L81.8547 62.664C81.9796 62.5391 82.1823 62.5391 82.3072 62.664L83.7743 64.1311C83.8991 64.2559 83.8991 64.4587 83.7743 64.5833Z" fill="#FED402"/>
<path d="M171.701 91.7474L170.234 93.2145C170.109 93.3391 169.906 93.3391 169.781 93.2145L168.314 91.7474C168.19 91.6225 168.19 91.4197 168.314 91.2949L169.781 89.828C169.906 89.7032 170.109 89.7032 170.234 89.828L171.701 91.2949C171.826 91.42 171.826 91.6225 171.701 91.7474Z" fill="white"/>
<path d="M120.47 18.3568L119.003 19.8239C118.878 19.9485 118.675 19.9485 118.55 19.8239L117.083 18.3568C116.958 18.2319 116.958 18.0294 117.083 17.9043L118.55 16.4374C118.675 16.3125 118.878 16.3125 119.003 16.4374L120.47 17.9043C120.594 18.0294 120.594 18.2319 120.47 18.3568Z" fill="white"/>
<path d="M153.947 9.59659C151.219 10.5738 150.06 11.7325 149.083 14.4606C148.867 15.0647 148.02 15.0647 147.804 14.4606C146.826 11.7325 145.667 10.5735 142.94 9.59659C142.335 9.38023 142.335 8.53362 142.94 8.31726C145.667 7.33982 146.826 6.1813 147.804 3.45321C148.02 2.84893 148.867 2.84893 149.083 3.45321C150.06 6.1813 151.219 7.34006 153.947 8.31726C154.551 8.53362 154.551 9.37999 153.947 9.59659Z" fill="#FED402"/>
<path d="M150.184 11.8385C149.225 9.16047 148.087 7.99504 145.465 7.02856C144.801 7.53658 143.986 7.94023 142.938 8.31576C142.333 8.53212 142.333 9.37874 142.938 9.5951C145.665 10.5723 146.824 11.7311 147.802 14.4591C148.018 15.0632 148.865 15.0632 149.081 14.4591C149.437 13.4636 149.819 12.6792 150.291 12.0341C150.248 11.9786 150.211 11.9131 150.184 11.8385Z" fill="#FAC600"/>
<path d="M180.095 70.5473C178.176 71.2348 177.361 72.0499 176.674 73.9688C176.521 74.3939 175.926 74.3939 175.774 73.9688C175.086 72.0497 174.271 71.2346 172.352 70.5473C171.927 70.3948 171.927 69.7994 172.352 69.6474C174.271 68.9599 175.087 68.1447 175.774 66.2256C175.926 65.8008 176.521 65.8008 176.674 66.2256C177.361 68.145 178.176 68.9602 180.095 69.6474C180.52 69.7994 180.52 70.3948 180.095 70.5473Z" fill="#FED402"/>
<path d="M177.58 72.1622C176.892 70.2431 176.077 69.428 174.158 68.7408C174.152 68.7384 174.148 68.7343 174.142 68.7319C173.673 69.0944 173.095 69.3817 172.35 69.6486C171.925 69.8009 171.925 70.3963 172.35 70.5486C174.269 71.236 175.085 72.0512 175.772 73.9701C175.924 74.3952 176.52 74.3952 176.672 73.9701C176.938 73.225 177.226 72.6476 177.588 72.1782C177.586 72.1722 177.582 72.1682 177.58 72.1622Z" fill="#FAC600"/>
<path d="M129.379 101.648C150.303 101.648 167.266 84.6851 167.266 63.7608C167.266 42.8365 150.303 25.874 129.379 25.874C108.455 25.874 91.4922 42.8365 91.4922 63.7608C91.4922 84.6851 108.455 101.648 129.379 101.648Z" fill="#FED2A4"/>
<path d="M100.265 51.8496C100.68 52.1451 101.105 52.4143 101.537 52.6626C101.968 50.0489 102.665 47.525 103.603 45.121C103.219 44.949 102.836 44.7676 102.459 44.5646C102.459 44.5646 100.729 43.3408 98.1664 42.2883C98.1664 42.2881 98.1664 42.2878 98.1664 42.2876C96.9204 44.095 95.8277 46.0162 94.9062 48.0321L100.265 51.8496Z" fill="#FFBD86"/>
<path d="M100.278 58.8433C105.319 64.4296 114.011 64.6526 119.331 59.3323C124.911 53.7524 134.028 53.9864 139.314 59.8455C139.314 59.8455 149.258 74.0064 159.361 60.4057L165.794 53.2761C165.052 50.6984 164.045 48.2331 162.803 45.912C154.791 52.0728 145.027 43.1448 145.027 43.1448C137.521 37.7975 127.066 39.8303 122.111 47.6005C117.387 55.0096 107.419 56.948 100.262 51.8495L94.9032 48.032C94.4031 49.1264 93.9554 50.2497 93.5596 51.397L100.278 58.8433Z" fill="white"/>
<path d="M100.278 58.8423C100.522 59.1121 100.776 59.3654 101.036 59.6101C101.031 59.3658 101.023 59.1221 101.023 58.8764C101.023 56.7593 101.2 54.6841 101.534 52.6618C101.102 52.4133 100.677 52.144 100.262 51.8488L94.9032 48.0312C94.4031 49.1257 93.9554 50.2489 93.5596 51.3963L100.278 58.8423Z" fill="#F3F0F3"/>
<path d="M140.563 27.5525C137.028 26.4623 133.273 25.874 129.38 25.874C116.429 25.874 104.998 32.3736 98.165 42.2871C100.727 43.3396 102.458 44.5634 102.458 44.5634C111.053 49.1901 121.77 45.6707 125.95 36.8498C128.726 30.9902 134.528 27.5885 140.563 27.5525Z" fill="#FFE5C2"/>
<path d="M91.6567 60.214C93.3159 60.9696 94.8559 62.0674 96.1636 63.5166L105.046 73.3608C110.322 79.208 119.42 79.4417 124.989 73.8726C130.83 68.0321 140.372 68.277 145.905 74.4097C145.905 74.4097 154.901 87.2157 164.664 77.5793C166.342 73.2981 167.264 68.6373 167.264 63.7609C167.264 60.1228 166.75 56.605 165.793 53.2746L159.359 60.4044C149.256 74.0051 139.312 59.8442 139.312 59.8442C134.026 53.9851 124.91 53.7511 119.33 59.331C114.009 64.6513 105.317 64.4285 100.277 58.842L93.5568 51.394C92.5882 54.1998 91.941 57.1557 91.6562 60.2162C91.6562 60.2157 91.6567 60.2148 91.6567 60.214Z" fill="#FFE5C2"/>
<path d="M164.604 77.7455C164.625 77.6907 164.647 77.6361 164.668 77.5813C164.647 77.6354 164.625 77.6911 164.604 77.7455Z" fill="#FFE5C2"/>
<path d="M91.6567 60.214C93.3159 60.9696 94.8559 62.0674 96.1636 63.5166L103.064 71.164C101.818 67.5291 101.107 63.6458 101.031 59.6064C100.772 59.3627 100.519 59.1106 100.277 58.842L93.5568 51.394C92.5882 54.1998 91.941 57.1555 91.6562 60.2159C91.6562 60.2155 91.6567 60.2148 91.6567 60.214Z" fill="#FED2A4"/>
<path d="M112.139 88.4282C115.21 83.5989 121.784 82.4864 126.273 86.0365L134.152 92.2669C138.641 95.8168 145.214 94.7043 148.285 89.8752C150.838 85.8619 155.808 84.4203 159.991 86.0847C159.991 86.0851 159.991 86.0856 159.992 86.0863C161.893 83.4831 163.471 80.6287 164.665 77.5816C154.903 87.2182 145.907 74.4119 145.907 74.4119C140.374 68.2793 130.831 68.0341 124.991 73.8749C119.422 79.4437 110.323 79.2102 105.048 73.363L96.1651 63.5189C94.8574 62.0697 93.3174 60.9721 91.6583 60.2163C91.5503 61.3841 91.4922 62.5665 91.4922 63.7629C91.4922 76.7345 98.0123 88.1813 107.952 95.0105L112.139 88.4282Z" fill="#FECE85"/>
<path d="M112.139 88.4279C112.504 87.8532 112.92 87.3328 113.376 86.865C108.729 82.6231 105.143 77.2403 103.06 71.1591L96.1658 63.5184C94.8582 62.0692 93.3181 60.9716 91.659 60.2158C91.5503 61.3839 91.4922 62.5662 91.4922 63.7626C91.4922 76.7342 98.0123 88.181 107.952 95.0102L112.139 88.4279Z" fill="#FEC165"/>
<path d="M129.378 101.648C141.956 101.648 153.1 95.5172 159.991 86.0831C155.808 84.419 150.837 85.8603 148.285 89.8737C145.214 94.703 138.64 95.8153 134.151 92.2654L126.272 86.035C121.783 82.4851 115.209 83.5976 112.138 88.4266L107.952 95.0089C114.046 99.1955 121.425 101.648 129.378 101.648Z" fill="#FFE5C2"/>
<path d="M151.219 94.7185C147.36 96.0439 143.22 96.7651 138.91 96.7651C129.072 96.7651 120.11 93.0143 113.375 86.8655C112.92 87.3332 112.504 87.8536 112.138 88.4284L107.952 95.0107C114.047 99.1975 121.426 101.65 129.379 101.65C137.514 101.65 145.047 99.0827 151.219 94.7185Z" fill="#FED2A4"/>
<path d="M114.798 74.7217C118.638 74.7217 121.751 72.7481 121.751 70.3135C121.751 67.8789 118.638 65.9053 114.798 65.9053C110.958 65.9053 107.845 67.8789 107.845 70.3135C107.845 72.7481 110.958 74.7217 114.798 74.7217Z" fill="#FECE85"/>
<path d="M139.817 89.4954C143.131 89.4954 145.817 87.5218 145.817 85.0872C145.817 82.6526 143.131 80.679 139.817 80.679C136.504 80.679 133.817 82.6526 133.817 85.0872C133.817 87.5218 136.504 89.4954 139.817 89.4954Z" fill="white"/>
<path d="M120.119 36.9967C119.302 35.1331 116.301 34.6485 113.417 35.9142C110.533 37.1799 108.858 39.7167 109.675 41.5802C110.493 43.4437 113.494 43.9283 116.378 42.6626C119.262 41.3969 120.937 38.8602 120.119 36.9967Z" fill="#FED2A4"/>
<path d="M161.913 72.502C161.299 70.4817 158.698 69.4834 156.103 70.2722C153.509 71.0611 151.904 73.3384 152.519 75.3587C153.133 77.379 155.734 78.3774 158.328 77.5885C160.922 76.7997 162.527 74.5224 161.913 72.502Z" fill="#FED2A4"/>
<path d="M103.602 45.1213C106.318 38.1544 111.036 32.1886 117.05 27.9319C109.32 30.5923 102.72 35.6803 98.165 42.2886C100.727 43.3411 102.458 44.5649 102.458 44.5649C102.835 44.7677 103.217 44.9493 103.602 45.1213Z" fill="#FED2A4"/>
<defs>
<filter id="filter0_f" x="0" y="0" width="259" height="196" filterUnits="userSpaceOnUse" color-interpolation-filters="sRGB">
<feFlood flood-opacity="0" result="BackgroundImageFix"/>
<feBlend mode="normal" in="SourceGraphic" in2="BackgroundImageFix" result="shape"/>
<feGaussianBlur stdDeviation="27" result="effect1_foregroundBlur"/>
</filter>
</defs>
</svg>
