<svg width="259" height="196" viewBox="0 0 259 196" fill="none" xmlns="http://www.w3.org/2000/svg">
<path d="M129.379 125C161.621 125 187.758 98.8631 187.758 66.6213C187.758 34.3794 161.621 8.24219 129.379 8.24219C97.1372 8.24219 71 34.3794 71 66.6213C71 98.8631 97.1372 125 129.379 125Z" fill="#6C7FD8"/>
<g opacity="0.45" filter="url(#filter0_f)">
<path d="M129.5 142C171.197 142 205 122.301 205 98C205 73.6995 171.197 54 129.5 54C87.8025 54 54 73.6995 54 98C54 122.301 87.8025 142 129.5 142Z" fill="#6C7FD8"/>
</g>
<path d="M129.379 114.039C155.567 114.039 176.797 92.8096 176.797 66.6213C176.797 40.4329 155.567 19.2031 129.379 19.2031C103.191 19.2031 81.9609 40.4329 81.9609 66.6213C81.9609 92.8096 103.191 114.039 129.379 114.039Z" fill="#314DC9"/>
<path d="M129.379 114.039C155.567 114.039 176.797 92.8096 176.797 66.6213C176.797 40.4329 155.567 19.2031 129.379 19.2031C103.191 19.2031 81.9609 40.4329 81.9609 66.6213C81.9609 92.8096 103.191 114.039 129.379 114.039Z" fill="#7D8EDA"/>
<path d="M129.379 109.035C152.804 109.035 171.793 90.046 171.793 66.6212C171.793 43.1965 152.804 24.207 129.379 24.207C105.954 24.207 86.9648 43.1965 86.9648 66.6212C86.9648 90.046 105.954 109.035 129.379 109.035Z" fill="#8795DE"/>
<path d="M129.379 104.508C150.303 104.508 167.266 87.5455 167.266 66.6212C167.266 45.6969 150.303 28.7344 129.379 28.7344C108.455 28.7344 91.4922 45.6969 91.4922 66.6212C91.4922 87.5455 108.455 104.508 129.379 104.508Z" fill="#F3F0F3"/>
<path d="M112.698 83.3026C99.6309 70.2352 98.1071 49.9981 108.122 35.2554C106.172 36.58 104.317 38.1036 102.589 39.8318C87.7933 54.6275 87.7933 78.6163 102.589 93.4119C117.385 108.208 141.373 108.208 156.169 93.4119C157.897 91.6837 159.421 89.8286 160.745 87.879C146.003 97.8935 125.766 96.37 112.698 83.3026Z" fill="#E2DEE2"/>
<path d="M109.173 68.6973C111.333 66.662 110.848 62.6396 108.091 59.7131C105.333 56.7867 101.346 56.0644 99.1864 58.0998C97.0264 60.1351 97.5109 64.1575 100.268 67.084C103.026 70.0104 107.013 70.7327 109.173 68.6973Z" fill="#E2DEE2"/>
<path d="M102.953 64.5249C100.801 62.242 100.033 59.2916 100.826 57.1387C100.208 57.3255 99.646 57.6393 99.172 58.0861C97.0129 60.1212 97.4978 64.1423 100.255 67.0674C103.012 69.9926 106.998 70.7141 109.157 68.6789C109.631 68.2321 109.977 67.6896 110.2 67.0839C108.004 67.7484 105.105 66.8079 102.953 64.5249Z" fill="#CBC4CC"/>
<path d="M147.239 90.4683C149.049 88.7625 148.643 85.3915 146.332 82.9389C144.021 80.4863 140.68 79.8809 138.869 81.5867C137.059 83.2925 137.465 86.6635 139.776 89.1161C142.088 91.5687 145.429 92.1741 147.239 90.4683Z" fill="#E2DEE2"/>
<path d="M141.557 87.3823C139.65 85.3583 139.041 82.7091 139.905 80.8867C139.51 81.0461 139.147 81.2718 138.832 81.5692C137.022 83.2748 137.429 86.6448 139.739 89.0963C142.05 91.5477 145.39 92.1525 147.2 90.4468C147.515 90.1495 147.762 89.8004 147.944 89.4156C146.074 90.1697 143.465 89.4063 141.557 87.3823Z" fill="#CBC4CC"/>
<path d="M120.431 91.8703C123.503 88.9763 122.814 83.2571 118.893 79.0963C114.972 74.9354 109.304 73.9084 106.233 76.8024C103.162 79.6964 103.85 85.4155 107.771 89.5764C111.692 93.7373 117.36 94.7643 120.431 91.8703Z" fill="#CBC4CC"/>
<path d="M109.591 86.5915C106.704 83.5286 105.572 79.6217 106.4 76.6187C106.337 76.673 106.273 76.7264 106.213 76.7838C103.143 79.6775 103.832 85.3948 107.753 89.5538C111.673 93.713 117.34 94.7388 120.409 91.8451C121.219 91.0824 121.764 90.1226 122.06 89.0477C118.952 91.7319 113.433 90.6682 109.591 86.5915Z" fill="#B5ADB6"/>
<path d="M135.277 73.7072C138.348 70.8132 137.66 65.0941 133.739 60.9332C129.818 56.7723 124.15 55.7453 121.078 58.6393C118.007 61.5333 118.696 67.2525 122.617 71.4133C126.538 75.5742 132.206 76.6012 135.277 73.7072Z" fill="#E2DEE2"/>
<path d="M136.677 71.1088C133.607 74.0025 127.94 72.9764 124.02 68.8172C121.138 65.7596 120.005 61.8613 120.824 58.8604C118.025 61.8189 118.777 67.3465 122.595 71.3973C126.516 75.5565 132.182 76.5823 135.252 73.6889C136.065 72.9226 136.612 71.9568 136.908 70.8757C136.833 70.9548 136.757 71.0332 136.677 71.1088Z" fill="#CBC4CC"/>
<path d="M129.992 97.7202C132.098 97.7202 133.805 96.0133 133.805 93.9077C133.805 91.8021 132.098 90.0952 129.992 90.0952C127.887 90.0952 126.18 91.8021 126.18 93.9077C126.18 96.0133 127.887 97.7202 129.992 97.7202Z" fill="#CBC4CC"/>
<path d="M131.914 95.7998C129.809 95.7376 128.154 93.981 128.216 91.8762C128.232 91.3363 128.361 90.8266 128.577 90.3672C127.211 90.9143 126.228 92.2294 126.181 93.7939C126.119 95.8987 127.775 97.6553 129.88 97.7175C131.444 97.7637 132.815 96.8597 133.442 95.5284C132.97 95.7171 132.454 95.8157 131.914 95.7998Z" fill="#B5ADB6"/>
<path d="M113.123 51.4509C115.163 51.4509 116.816 49.7974 116.816 47.7576C116.816 45.7178 115.163 44.0642 113.123 44.0642C111.083 44.0642 109.43 45.7178 109.43 47.7576C109.43 49.7974 111.083 51.4509 113.123 51.4509Z" fill="#CBC4CC"/>
<path d="M151.867 79.0576C153.644 79.0576 155.084 77.6174 155.084 75.8408C155.084 74.0642 153.644 72.624 151.867 72.624C150.091 72.624 148.65 74.0642 148.65 75.8408C148.65 77.6174 150.091 79.0576 151.867 79.0576Z" fill="#CBC4CC"/>
<path d="M152.527 77.6911C150.752 77.6387 149.355 76.1566 149.407 74.3807C149.415 74.1309 149.452 73.8893 149.513 73.6577C149.001 74.2079 148.676 74.9349 148.652 75.7451C148.599 77.521 149.996 79.0031 151.772 79.0555C153.294 79.1006 154.596 78.0805 154.972 76.6708C154.363 77.3223 153.489 77.7195 152.527 77.6911Z" fill="#B5ADB6"/>
<path d="M167.662 33.0961C165.743 33.7836 164.928 34.5987 164.24 36.5178C164.088 36.9429 163.492 36.9429 163.34 36.5178C162.653 34.5987 161.838 33.7836 159.918 33.0961C159.493 32.9438 159.493 32.3484 159.918 32.1961C161.838 31.5087 162.653 30.6935 163.34 28.7744C163.492 28.3493 164.088 28.3493 164.24 28.7744C164.928 30.6935 165.743 31.5087 167.662 32.1961C168.087 32.3484 168.087 32.9438 167.662 33.0961Z" fill="white"/>
<path d="M165.008 34.8481C164.321 32.929 163.506 32.1138 161.586 31.4264C161.569 31.4202 161.557 31.409 161.54 31.4014C161.102 31.7066 160.577 31.9587 159.918 32.1944C159.493 32.3466 159.493 32.9421 159.918 33.0944C161.838 33.7818 162.653 34.597 163.34 36.5161C163.492 36.9412 164.088 36.9412 164.24 36.5161C164.476 35.858 164.728 35.3318 165.033 34.8941C165.026 34.8779 165.015 34.8655 165.008 34.8481Z" fill="#F3F0F3"/>
<path d="M83.3123 69.5529C81.3932 70.2403 80.578 71.0555 79.8905 72.9746C79.7383 73.3997 79.1428 73.3997 78.9906 72.9746C78.3031 71.0555 77.4879 70.2403 75.5688 69.5529C75.1437 69.4006 75.1437 68.8052 75.5688 68.6529C77.4879 67.9655 78.3031 67.1503 78.9906 65.2312C79.1428 64.8061 79.7383 64.8061 79.8905 65.2312C80.578 67.1503 81.3932 67.9655 83.3123 68.6529C83.7374 68.8052 83.7374 69.4006 83.3123 69.5529Z" fill="white"/>
<path d="M80.4558 71.3466C79.7729 69.4401 78.9625 68.6231 77.0703 67.9385C76.656 68.2085 76.1637 68.4362 75.563 68.6514C75.1379 68.8037 75.1379 69.3991 75.563 69.5514C77.4821 70.2389 78.2972 71.054 78.9847 72.9731C79.137 73.3982 79.7324 73.3982 79.8847 72.9731C80.0913 72.3967 80.31 71.9214 80.5659 71.5177C80.5209 71.4705 80.4811 71.4164 80.4558 71.3466Z" fill="#F3F0F3"/>
<path d="M184.208 68.6913C181.48 69.6685 180.321 70.8273 179.344 73.5554C179.127 74.1597 178.281 74.1597 178.064 73.5554C177.087 70.8273 175.928 69.6685 173.2 68.6913C172.596 68.475 172.596 67.6284 173.2 67.412C175.928 66.4348 177.087 65.276 178.064 62.5479C178.281 61.9437 179.127 61.9437 179.344 62.5479C180.321 65.276 181.48 66.4348 184.208 67.412C184.812 67.6284 184.812 68.4747 184.208 68.6913Z" fill="#FED402"/>
<path d="M180.446 71.1712C179.469 68.4431 178.31 67.2843 175.582 66.3071C175.558 66.2985 175.537 66.2873 175.514 66.2769C174.89 66.7136 174.14 67.0739 173.199 67.4106C172.595 67.627 172.595 68.4736 173.199 68.6899C175.927 69.6671 177.086 70.8259 178.063 73.554C178.28 74.1583 179.126 74.1583 179.343 73.554C179.679 72.6137 180.04 71.8631 180.476 71.2388C180.466 71.2167 180.455 71.1952 180.446 71.1712Z" fill="#FAC600"/>
<path d="M89.7385 36.0924C89.4985 36.0905 89.301 35.9032 89.2865 35.6635C88.6557 25.3068 88.2294 24.8736 77.8844 24.0751C77.6452 24.0567 77.461 23.8561 77.4629 23.6162C77.4648 23.3762 77.6521 23.1787 77.8918 23.1641C88.2485 22.5334 88.6817 22.1071 89.4802 11.7621C89.4985 11.5229 89.6992 11.3387 89.9391 11.3406C90.1791 11.3425 90.3766 11.5298 90.3911 11.7695C91.0219 22.1262 91.4481 22.5594 101.793 23.3579C102.032 23.3762 102.217 23.5768 102.215 23.8168C102.213 24.0567 102.025 24.2543 101.786 24.2688C91.4291 24.8995 90.9959 25.3258 90.1974 35.6708C90.1791 35.9101 89.9784 36.0943 89.7385 36.0924Z" fill="#FEA613"/>
<path d="M85.8757 22.0161C84.2401 22.721 81.7575 22.9283 77.8918 23.1637C77.6521 23.1782 77.4648 23.376 77.4629 23.6157C77.461 23.8556 77.6452 24.0563 77.8844 24.0746C88.2294 24.8731 88.6557 25.3063 89.2865 35.663C89.301 35.9027 89.4985 36.09 89.7385 36.0919C89.9784 36.0938 90.1791 35.9096 90.1974 35.6704C90.4917 31.8567 90.7371 29.3921 91.4477 27.7673C90.8782 23.9147 89.6715 22.659 85.8757 22.0161Z" fill="#FE9901"/>
<path d="M172.154 118.804C171.915 118.802 171.717 118.615 171.702 118.375C171.072 108.018 170.645 107.585 160.3 106.787C160.061 106.768 159.877 106.568 159.879 106.328C159.881 106.088 160.068 105.89 160.308 105.876C170.665 105.245 171.098 104.819 171.896 94.4738C171.915 94.2343 172.115 94.0504 172.355 94.0523C172.595 94.0542 172.793 94.2415 172.807 94.4812C173.438 104.838 173.864 105.271 184.209 106.07C184.449 106.088 184.633 106.289 184.631 106.528C184.629 106.768 184.441 106.966 184.202 106.98C173.845 107.611 173.412 108.038 172.613 118.383C172.595 118.622 172.394 118.806 172.154 118.804Z" fill="#FEA613"/>
<path d="M169.1 104.295C167.51 105.361 164.874 105.6 160.309 105.878C160.069 105.892 159.882 106.09 159.88 106.33C159.878 106.57 160.062 106.77 160.301 106.789C170.646 107.587 171.073 108.02 171.703 118.377C171.718 118.617 171.916 118.804 172.155 118.806C172.395 118.808 172.596 118.624 172.614 118.384C172.963 113.871 173.242 111.246 174.306 109.668C173.733 106.171 172.544 104.935 169.1 104.295Z" fill="#FE9901"/>
<path d="M94.0204 99.3726L92.5533 100.84C92.4284 100.965 92.2259 100.965 92.1008 100.84L90.6337 99.3726C90.5088 99.2478 90.5088 99.045 90.6337 98.9201L92.1008 97.453C92.2256 97.3282 92.4284 97.3282 92.5533 97.453L94.0204 98.9201C94.1452 99.0452 94.1452 99.2478 94.0204 99.3726Z" fill="#FED402"/>
<path d="M110.462 114.623L108.995 116.09C108.87 116.215 108.667 116.215 108.542 116.09L107.075 114.623C106.95 114.498 106.95 114.295 107.075 114.17L108.542 112.703C108.667 112.578 108.87 112.578 108.995 112.703L110.462 114.17C110.587 114.295 110.587 114.498 110.462 114.623Z" fill="#FED402"/>
<path d="M179.563 44.0914L178.096 45.5585C177.971 45.6833 177.769 45.6833 177.644 45.5585L176.177 44.0914C176.052 43.9665 176.052 43.7637 176.177 43.6389L177.644 42.1718C177.769 42.0469 177.971 42.0469 178.096 42.1718L179.563 43.6389C179.688 43.764 179.688 43.9665 179.563 44.0914Z" fill="#FED402"/>
<path d="M150.955 18.4342H130.333C129.998 18.4342 129.727 18.1626 129.727 17.8278V5.39354C129.727 5.05851 129.998 4.78711 130.333 4.78711H150.955C151.29 4.78711 151.562 5.05875 151.562 5.39354V17.8276C151.562 18.1626 151.29 18.4342 150.955 18.4342Z" fill="#FEA613"/>
<path d="M136.29 17.8276V5.39354C136.29 5.05851 136.562 4.78711 136.896 4.78711H130.332C129.997 4.78711 129.726 5.05875 129.726 5.39354V17.8276C129.726 18.1626 129.997 18.434 130.332 18.434H136.896C136.562 18.4342 136.29 18.1626 136.29 17.8276Z" fill="#FB8801"/>
<path d="M129.324 3.00032C128.346 3.02963 127.592 3.88292 127.592 4.86154V36.9548C127.592 37.6127 128.125 38.1462 128.783 38.1462H129.975C130.633 38.1462 131.166 37.6127 131.166 36.9548V4.78672C131.166 3.78165 130.336 2.9703 129.324 3.00032Z" fill="#B5ADB6"/>
<path d="M114.261 49.5795C112.222 49.5192 110.618 47.8177 110.679 45.7787C110.688 45.4632 110.741 45.1601 110.824 44.8701C110.004 45.5237 109.465 46.5188 109.431 47.649C109.371 49.6879 110.975 51.3895 113.014 51.4498C114.737 51.5008 116.216 50.3606 116.67 48.7758C116.01 49.301 115.17 49.6062 114.261 49.5795Z" fill="#B5ADB6"/>
<defs>
<filter id="filter0_f" x="0" y="0" width="259" height="196" filterUnits="userSpaceOnUse" color-interpolation-filters="sRGB">
<feFlood flood-opacity="0" result="BackgroundImageFix"/>
<feBlend mode="normal" in="SourceGraphic" in2="BackgroundImageFix" result="shape"/>
<feGaussianBlur stdDeviation="27" result="effect1_foregroundBlur"/>
</filter>
</defs>
</svg>
