<svg width="54" height="56" viewBox="0 0 54 56" fill="none" xmlns="http://www.w3.org/2000/svg">
<path d="M26.7969 55.1787C41.5964 55.1787 53.5937 43.1813 53.5937 28.3818C53.5937 13.5823 41.5964 1.58496 26.7969 1.58496C11.9974 1.58496 0 13.5823 0 28.3818C0 43.1813 11.9974 55.1787 26.7969 55.1787Z" fill="#6C7FD8"/>
<path d="M40.8183 55.9992C40.7081 55.9984 40.6175 55.9124 40.6109 55.8024C40.3214 51.0485 40.1256 50.8498 35.3771 50.4831C35.2673 50.4747 35.1828 50.3826 35.1836 50.2725C35.1844 50.1623 35.2704 50.0717 35.3805 50.065C40.1343 49.7756 40.3332 49.5798 40.6997 44.8313C40.7081 44.7214 40.8002 44.6369 40.9104 44.6377C41.0205 44.6385 41.1112 44.7245 41.1178 44.8346C41.4073 49.5886 41.603 49.7873 46.3515 50.1539C46.4614 50.1623 46.5459 50.2544 46.5451 50.3646C46.5444 50.4747 46.4583 50.5654 46.3483 50.5721C41.5943 50.8615 41.3955 51.0572 41.0289 55.8058C41.0204 55.9156 40.9283 56.0002 40.8183 55.9992Z" fill="#FEA613"/>
<path d="M39.0286 49.5459C38.2777 49.8637 37.142 49.9585 35.3805 50.0656C35.2704 50.0724 35.1845 50.1632 35.1836 50.2731C35.1827 50.3833 35.2672 50.4754 35.3771 50.4838C40.1256 50.8504 40.3213 51.0491 40.6109 55.803C40.6176 55.9131 40.7082 55.999 40.8183 55.9999C40.9284 56.0009 41.0206 55.9162 41.029 55.8064C41.1581 54.1355 41.2665 53.0288 41.5598 52.283C41.3064 50.4471 40.7721 49.8488 39.0286 49.5459Z" fill="#FE9901"/>
<path d="M8.82658 17.2833C8.69894 17.2824 8.59372 17.1826 8.58607 17.0551C8.2504 11.5446 8.02366 11.3141 2.51926 10.8892C2.39194 10.8793 2.29394 10.7726 2.29493 10.6449C2.29591 10.5173 2.39566 10.4121 2.52319 10.4044C8.03372 10.0689 8.26418 9.84202 8.6891 4.33762C8.69894 4.2103 8.80569 4.1123 8.93333 4.11329C9.06097 4.11427 9.16619 4.21402 9.17385 4.34155C9.50952 9.85208 9.73626 10.0825 15.2407 10.5075C15.368 10.5173 15.466 10.6241 15.465 10.7517C15.464 10.8793 15.3643 10.9846 15.2367 10.9921C9.72619 11.3278 9.49574 11.5546 9.07082 17.059C9.06097 17.1863 8.95422 17.2843 8.82658 17.2833Z" fill="#FED402"/>
<path d="M6.2286 9.97949C5.37624 10.2108 4.19226 10.3027 2.5232 10.4044C2.39567 10.4122 2.29602 10.5173 2.29493 10.6449C2.29384 10.7726 2.39184 10.8794 2.51926 10.8892C8.02366 11.3141 8.2504 11.5445 8.58607 17.0551C8.59383 17.1826 8.69894 17.2822 8.82658 17.2833C8.95422 17.2844 9.06097 17.1864 9.07082 17.059C9.19747 15.4175 9.30707 14.2457 9.5443 13.4001C9.24527 10.9966 8.59908 10.3226 6.2286 9.97949Z" fill="#FAC600"/>
<path d="M41.7641 11.3722C40.8832 11.6877 40.509 12.0619 40.1934 12.9427C40.1236 13.1378 39.8502 13.1378 39.7804 12.9427C39.4649 12.0618 39.0906 11.6876 38.2098 11.3722C38.0147 11.3022 38.0147 11.0289 38.2098 10.9591C39.0907 10.6435 39.465 10.2694 39.7804 9.38845C39.8503 9.19343 40.1237 9.19343 40.1934 9.38845C40.5091 10.2695 40.8833 10.6436 41.7641 10.9591C41.9592 11.0289 41.9592 11.3022 41.7641 11.3722Z" fill="white"/>
<path d="M39.128 10.4879C39.1202 10.4851 39.1146 10.4801 39.1074 10.4766C38.8789 10.6732 38.5916 10.8219 38.2079 10.9592C38.0127 11.0291 38.0127 11.3025 38.2079 11.3723C39.0888 11.6879 39.4631 12.0621 39.7785 12.9429C39.8484 13.138 40.1217 13.138 40.1915 12.9429C40.3319 12.5509 40.4844 12.2596 40.6874 12.0288C40.3744 11.1698 39.9988 10.7998 39.128 10.4879Z" fill="#F3F0F3"/>
<path d="M11.3384 42.4894C10.4575 42.8049 10.0833 43.1791 9.76777 44.0599C9.69788 44.255 9.42455 44.255 9.35466 44.0599C9.03912 43.179 8.66495 42.8048 7.78404 42.4894C7.58891 42.4194 7.58891 42.146 7.78404 42.0763C8.66495 41.7607 9.03912 41.3865 9.35466 40.5056C9.42455 40.3106 9.69788 40.3106 9.76777 40.5056C10.0833 41.3867 10.4575 41.7608 11.3384 42.0763C11.5335 42.146 11.5335 42.4194 11.3384 42.4894Z" fill="white"/>
<path d="M10.1845 43.2313C9.86894 42.3504 9.49477 41.9762 8.61387 41.6608C8.61102 41.6597 8.60927 41.6578 8.60654 41.6567C8.39107 41.8231 8.12605 41.955 7.78404 42.0775C7.58891 42.1474 7.58891 42.4207 7.78404 42.4906C8.66494 42.8062 9.03912 43.1803 9.35466 44.0611C9.42455 44.2563 9.69788 44.2563 9.76777 44.0611C9.89027 43.7191 10.0221 43.4541 10.1885 43.2386C10.1874 43.2359 10.1856 43.234 10.1845 43.2313Z" fill="#F3F0F3"/>
<path d="M48.0828 18.7516L47.4094 19.4251C47.3521 19.4823 47.259 19.4823 47.2017 19.4251L46.5283 18.7516C46.4711 18.6943 46.4711 18.6012 46.5283 18.5439L47.2017 17.8706C47.259 17.8133 47.3521 17.8133 47.4094 17.8706L48.0828 18.5439C48.1401 18.6014 48.1401 18.6943 48.0828 18.7516Z" fill="#FED402"/>
<path d="M20.6288 49.048L19.9554 49.7214C19.898 49.7788 19.805 49.7788 19.7477 49.7214L19.0742 49.048C19.0169 48.9908 19.0169 48.8976 19.0742 48.8404L19.7477 48.167C19.805 48.1097 19.898 48.1097 19.9554 48.167L20.6288 48.8404C20.6861 48.8977 20.6861 48.9908 20.6288 49.048Z" fill="white"/>
<path d="M5.86413 28.2673L5.19071 28.9407C5.1334 28.9979 5.04032 28.9979 4.98301 28.9407L4.30959 28.2673C4.25227 28.2101 4.25227 28.1169 4.30959 28.0597L4.98301 27.3862C5.04032 27.3289 5.1334 27.3289 5.19071 27.3862L5.86413 28.0597C5.92145 28.117 5.92145 28.2101 5.86413 28.2673Z" fill="#FED402"/>
<path d="M46.2234 40.7355L45.55 41.4089C45.4927 41.4661 45.3996 41.4661 45.3423 41.4089L44.6689 40.7355C44.6117 40.6782 44.6117 40.5851 44.6689 40.5278L45.3423 39.8545C45.3996 39.7972 45.4927 39.7972 45.55 39.8545L46.2234 40.5278C46.2807 40.5852 46.2807 40.6782 46.2234 40.7355Z" fill="white"/>
<path d="M22.7069 7.049L22.0335 7.72242C21.9762 7.77962 21.8831 7.77962 21.8258 7.72242L21.1524 7.049C21.095 6.99169 21.095 6.89872 21.1524 6.8413L21.8258 6.16798C21.8831 6.11067 21.9762 6.11067 22.0335 6.16798L22.7069 6.8413C22.7642 6.89872 22.7642 6.99169 22.7069 7.049Z" fill="white"/>
<path d="M38.074 3.02794C36.8219 3.47648 36.2899 4.00837 35.8413 5.26061C35.7421 5.53787 35.3534 5.53787 35.2542 5.26061C34.8055 4.00837 34.2736 3.47637 33.0215 3.02794C32.7441 2.92862 32.7441 2.54001 33.0215 2.4407C34.2736 1.99205 34.8056 1.46026 35.2542 0.208031C35.3534 -0.0693437 35.7421 -0.0693437 35.8413 0.208031C36.29 1.46026 36.8219 1.99216 38.074 2.4407C38.3514 2.54001 38.3514 2.92851 38.074 3.02794Z" fill="#FED402"/>
<path d="M36.346 4.05794C35.9056 2.82868 35.3831 2.29372 34.1796 1.8501C33.875 2.08329 33.5007 2.26857 33.0196 2.44094C32.7422 2.54025 32.7422 2.92886 33.0196 3.02818C34.2717 3.47672 34.8037 4.00861 35.2522 5.26085C35.3514 5.53811 35.7401 5.53811 35.8394 5.26085C36.003 4.80388 36.1783 4.44381 36.395 4.14774C36.3751 4.12225 36.3583 4.09217 36.346 4.05794Z" fill="#FAC600"/>
<path d="M50.0766 31.005C49.1957 31.3205 48.8215 31.6947 48.5059 32.5755C48.4361 32.7706 48.1627 32.7706 48.0929 32.5755C47.7774 31.6946 47.4031 31.3204 46.5223 31.005C46.3272 30.935 46.3272 30.6617 46.5223 30.5919C47.4032 30.2763 47.7775 29.9022 48.0929 29.0213C48.1628 28.8262 48.4362 28.8262 48.5059 29.0213C48.8216 29.9023 49.1958 30.2765 50.0766 30.5919C50.2717 30.6617 50.2717 30.935 50.0766 31.005Z" fill="#FED402"/>
<path d="M48.9208 31.7474C48.6053 30.8665 48.2311 30.4923 47.3502 30.1769C47.3475 30.1758 47.3456 30.1739 47.343 30.1729C47.1274 30.3392 46.8624 30.4711 46.5204 30.5936C46.3252 30.6635 46.3252 30.9368 46.5204 31.0067C47.4013 31.3223 47.7756 31.6964 48.091 32.5772C48.1609 32.7724 48.4342 32.7724 48.504 32.5772C48.6265 32.2352 48.7583 31.9702 48.9249 31.7547C48.9238 31.752 48.9218 31.7501 48.9208 31.7474Z" fill="#FAC600"/>
<path d="M26.7969 45.2798C36.4015 45.2798 44.1875 37.4937 44.1875 27.8892C44.1875 18.2846 36.4015 10.4985 26.7969 10.4985C17.1923 10.4985 9.40625 18.2846 9.40625 27.8892C9.40625 37.4937 17.1923 45.2798 26.7969 45.2798Z" fill="#FED2A4"/>
<path d="M13.4334 22.4238C13.6237 22.5594 13.8188 22.683 14.0171 22.797C14.2152 21.5972 14.5352 20.4387 14.9656 19.3352C14.7892 19.2563 14.6136 19.173 14.4406 19.0799C14.4406 19.0799 13.6462 18.5181 12.4701 18.035C12.4701 18.0349 12.4701 18.0348 12.4701 18.0347C11.8982 18.8643 11.3966 19.7462 10.9736 20.6715L13.4334 22.4238Z" fill="#FFBD86"/>
<path d="M13.4385 25.634C15.7521 28.1982 19.742 28.3006 22.1842 25.8585C24.7454 23.2972 28.93 23.4046 31.3565 26.0941C31.3565 26.0941 35.9208 32.5941 40.5583 26.3512L43.5112 23.0786C43.1708 21.8954 42.7084 20.7638 42.1383 19.6983C38.4606 22.5262 33.9786 18.4282 33.9786 18.4282C30.5333 15.9737 25.7346 16.9068 23.4602 20.4734C21.2916 23.8743 16.7162 24.7641 13.4312 22.4238L10.9713 20.6715C10.7417 21.1738 10.5362 21.6894 10.3545 22.2161L13.4385 25.634Z" fill="white"/>
<path d="M13.4385 25.6329C13.5502 25.7567 13.6669 25.8729 13.7861 25.9853C13.7839 25.8732 13.7803 25.7613 13.7803 25.6485C13.7803 24.6767 13.8617 23.7242 14.0149 22.7959C13.8166 22.6818 13.6216 22.5582 13.4312 22.4227L10.9713 20.6704C10.7417 21.1728 10.5362 21.6884 10.3545 22.215L13.4385 25.6329Z" fill="#F3F0F3"/>
<path d="M31.931 11.269C30.3085 10.7686 28.5846 10.4985 26.7977 10.4985C20.8531 10.4985 15.6062 13.482 12.4697 18.0324C13.6457 18.5155 14.4402 19.0773 14.4402 19.0773C18.3855 21.201 23.305 19.5855 25.2234 15.5366C26.4977 12.8469 29.1608 11.2855 31.931 11.269Z" fill="#FFE5C2"/>
<path d="M9.47971 26.2609C10.2413 26.6077 10.9482 27.1116 11.5484 27.7769L15.6256 32.2955C18.0473 34.9794 22.2236 35.0867 24.7799 32.5304C27.4609 29.8495 31.8409 29.962 34.3807 32.7769C34.3807 32.7769 38.51 38.6551 42.9911 34.2318C43.7612 32.2667 44.1845 30.1273 44.1845 27.889C44.1845 26.219 43.9486 24.6043 43.5092 23.0756L40.5562 26.3483C35.9188 32.5912 31.3543 26.0912 31.3543 26.0912C28.9279 23.4017 24.7434 23.2943 22.1821 25.8556C19.74 28.2977 15.7501 28.1954 13.4365 25.6311L10.3519 22.2124C9.90726 23.5003 9.6102 24.8571 9.47949 26.2619C9.47949 26.2617 9.47971 26.2612 9.47971 26.2609Z" fill="#FFE5C2"/>
<path d="M42.9668 34.3083C42.9767 34.2831 42.9868 34.2581 42.9965 34.2329C42.9869 34.2577 42.9766 34.2833 42.9668 34.3083Z" fill="#FFE5C2"/>
<path d="M9.47971 26.2609C10.2413 26.6077 10.9482 27.1116 11.5484 27.7769L14.7157 31.2871C14.1439 29.6186 13.8176 27.8361 13.7825 25.982C13.664 25.8701 13.5478 25.7544 13.4366 25.6311L10.3519 22.2124C9.90726 23.5003 9.6102 24.857 9.47949 26.2618C9.47949 26.2616 9.47971 26.2612 9.47971 26.2609Z" fill="#FED2A4"/>
<path d="M18.8833 39.2119C20.2929 36.9952 23.3105 36.4845 25.371 38.1141L28.9875 40.9739C31.0481 42.6034 34.0656 42.0927 35.4751 39.8761C36.6468 38.0339 38.9282 37.3722 40.8484 38.1362C40.8484 38.1364 40.8484 38.1366 40.8485 38.1369C41.7212 36.942 42.4458 35.6318 42.9939 34.2331C38.5128 38.6565 34.3835 32.7782 34.3835 32.7782C31.8435 29.9632 27.4634 29.8507 24.7826 32.5317C22.2264 35.0879 18.05 34.9807 15.6284 32.2968L11.5512 27.7781C10.951 27.1129 10.2441 26.6091 9.48248 26.2622C9.43294 26.7983 9.40625 27.341 9.40625 27.8901C9.40625 33.8443 12.3991 39.0986 16.9618 42.2333L18.8833 39.2119Z" fill="#FECE85"/>
<path d="M18.8833 39.212C19.051 38.9482 19.2421 38.7093 19.4511 38.4946C17.3184 36.5475 15.6721 34.0767 14.7161 31.2854L11.5515 27.7781C10.9513 27.1129 10.2444 26.6091 9.48281 26.2622C9.43294 26.7984 9.40625 27.3411 9.40625 27.8903C9.40625 33.8444 12.3991 39.0987 16.9618 42.2334L18.8833 39.212Z" fill="#FEC165"/>
<path d="M26.7949 45.2807C32.5682 45.2807 37.6836 42.4666 40.8466 38.1362C38.9264 37.3724 36.6448 38.034 35.4733 39.8762C34.0637 42.0929 31.046 42.6035 28.9856 40.974L25.3692 38.1142C23.3086 36.4847 20.2911 36.9954 18.8815 39.212L16.96 42.2333C19.7571 44.155 23.1444 45.2807 26.7949 45.2807Z" fill="#FFE5C2"/>
<path d="M36.8203 42.1003C35.0486 42.7086 33.1482 43.0397 31.1702 43.0397C26.6542 43.0397 22.5408 41.318 19.4493 38.4956C19.2403 38.7103 19.0492 38.9492 18.8815 39.213L16.96 42.2344C19.7574 44.1562 23.1447 45.2819 26.7952 45.2819C30.5291 45.2819 33.987 44.1035 36.8203 42.1003Z" fill="#FED2A4"/>
<path d="M20.1017 32.9204C21.8644 32.9204 23.2933 32.0145 23.2933 30.897C23.2933 29.7795 21.8644 28.8735 20.1017 28.8735C18.3391 28.8735 16.9102 29.7795 16.9102 30.897C16.9102 32.0145 18.3391 32.9204 20.1017 32.9204Z" fill="#FECE85"/>
<path d="M31.5861 39.7017C33.1071 39.7017 34.3402 38.7957 34.3402 37.6782C34.3402 36.5607 33.1071 35.6548 31.5861 35.6548C30.0651 35.6548 28.832 36.5607 28.832 37.6782C28.832 38.7957 30.0651 39.7017 31.5861 39.7017Z" fill="white"/>
<path d="M22.5469 15.6032C22.1715 14.7478 20.794 14.5253 19.4702 15.1063C18.1464 15.6873 17.3775 16.8517 17.7529 17.7071C18.1283 18.5624 19.5058 18.7849 20.8296 18.2039C22.1534 17.6229 22.9223 16.4585 22.5469 15.6032Z" fill="#FED2A4"/>
<path d="M41.7323 31.9012C41.4504 30.9738 40.2564 30.5156 39.0656 30.8777C37.8748 31.2398 37.1381 32.2851 37.4201 33.2125C37.7021 34.1398 38.896 34.5981 40.0868 34.236C41.2776 33.8739 42.0143 32.8286 41.7323 31.9012Z" fill="#FED2A4"/>
<path d="M14.9652 19.3355C16.2122 16.1376 18.3775 13.3992 21.138 11.4453C17.59 12.6665 14.5605 15.002 12.4697 18.0353C13.6457 18.5184 14.4402 19.0801 14.4402 19.0801C14.6133 19.1732 14.7887 19.2565 14.9652 19.3355Z" fill="#FED2A4"/>
</svg>
