<svg width="55" height="19" viewBox="0 0 55 19" fill="none" xmlns="http://www.w3.org/2000/svg">
<path d="M24.4322 0.283965L21.3921 18.1737H16.4812L19.5213 0.283965H24.4322ZM34.0202 7.4833C32.2997 6.66481 31.264 6.09689 31.264 5.2617C31.264 4.52673 32.1493 3.72495 34.0703 3.72495C35.6738 3.70824 36.8431 4.04232 37.7451 4.4098L38.1794 4.61025L38.8476 0.734967C37.8787 0.384187 36.3587 0 34.4545 0C29.6104 0 26.1861 2.42205 26.1694 5.89644C26.136 8.46882 28.6081 9.90535 30.4622 10.7572C32.3665 11.6258 33.0179 12.1938 33.0012 12.9788C32.9845 14.1815 31.4812 14.7327 30.0614 14.7327C28.107 14.7327 27.0547 14.4655 25.4511 13.7973L24.8164 13.5134L24.1315 17.5223C25.2841 18.0234 27.3888 18.4577 29.5937 18.4744C34.7551 18.4744 38.0959 16.0691 38.1293 12.3608C38.1627 10.3229 36.8431 8.76949 34.0202 7.4833ZM55.0001 18.1737H50.3899L49.8052 15.4343H43.6081L42.6059 18.1737H37.411L44.6772 1.80401C45.195 0.634744 46.0469 0.283965 47.2162 0.283965H50.9578L55.0001 18.1737ZM49.0536 11.8597C48.8531 10.9577 47.9177 6.69822 47.9177 6.69822L47.5836 5.16147C47.3331 5.82962 46.8988 6.91537 46.9322 6.86526C46.9322 6.86526 45.3787 10.8408 44.9778 11.8597H49.0536ZM12.4556 0.283965L7.54465 12.5445L7.11035 10.0891C6.20835 7.23274 3.43552 4.14254 0.328613 2.58909L4.65489 18.1737H9.84977L17.6504 0.283965H12.4556Z" fill="#293688"/>
</svg>
